<svg xmlns="http://www.w3.org/2000/svg" width="17.205" height="17.206" viewBox="0 0 17.205 17.206">
    <path id="Path_354" data-name="Path 354" d="M57.925,742.255a8.6,8.6,0,1,0,8.6,8.6A8.6,8.6,0,0,0,57.925,742.255ZM57.531,756.3a1.091,1.091,0,0,1-1.095-1.1,1.095,1.095,0,1,1,1.095,1.1Zm2.116-5.326-.646.45a1.678,1.678,0,0,0-.75,1.425,1.166,1.166,0,0,0,.015.2h-1.5c-.015-.2-.03-.36-.03-.57a2.625,2.625,0,0,1,1.215-2.265l.69-.495a1.54,1.54,0,0,0,.706-1.306,1.485,1.485,0,0,0-1.621-1.515,1.648,1.648,0,0,0-1.7,1.71,2.3,2.3,0,0,0,.09.675l-1.695-.12a2.518,2.518,0,0,1-.091-.69,3.169,3.169,0,0,1,3.391-3.136,3.109,3.109,0,0,1,3.421,3A3.155,3.155,0,0,1,59.647,750.975Z" transform="translate(-49.322 -742.255)" fill="#fff"/>
</svg>
