<svg xmlns="http://www.w3.org/2000/svg" width="16.532" height="16.532" viewBox="0 0 16.532 16.532">
    <path id="Path_353" data-name="Path 353" d="M66.527,706.582v-2.755L64.48,703.6a6.4,6.4,0,0,0-.686-1.658l1.286-1.608-1.948-1.949-1.608,1.287a6.407,6.407,0,0,0-1.658-.687l-.227-2.046H56.884l-.228,2.046a6.407,6.407,0,0,0-1.658.687l-1.608-1.287-1.949,1.949,1.287,1.608a6.424,6.424,0,0,0-.686,1.658l-2.047.227v2.755l2.047.228a6.438,6.438,0,0,0,.686,1.658l-1.287,1.607,1.949,1.949L55,710.737a6.373,6.373,0,0,0,1.658.687l.228,2.047h2.755l.227-2.047a6.352,6.352,0,0,0,1.657-.687l1.609,1.287,1.948-1.949-1.286-1.608a6.347,6.347,0,0,0,.686-1.657Zm-8.266.919a2.3,2.3,0,1,1,2.3-2.3A2.3,2.3,0,0,1,58.261,707.5Z" transform="translate(-49.995 -696.939)" fill="#fff"/>
</svg>
