<svg xmlns="http://www.w3.org/2000/svg" width="19.546" height="15.637" viewBox="0 0 19.546 15.637">
  <g id="Group_380" data-name="Group 380" transform="translate(-716 -264)">
    <path id="Path_408" data-name="Path 408" d="M747.909,275.955V274h-1.955v1.955H744v1.955h1.955v1.955h1.955v-1.955h1.955v-1.955Z" transform="translate(-14.318 -5.114)" fill="#d7765d"/>
    <path id="Path_409" data-name="Path 409" d="M726.424,275.727c-1.052-2.118-.623-1.724.063-2.249.643-.493.612-1.791,1.006-2.252a3.474,3.474,0,0,0,.433-2.314c-.2-.67-.5-.305-.551-.811-.1-1.089.175-1.986-.438-2.516-.593-.512-1.335-1.57-2.542-1.585a2.843,2.843,0,0,0-1.445.434c-2.607-.279-2.589,2.577-2.689,3.666-.046.506-.352.141-.551.811a3.477,3.477,0,0,0,.433,2.314c.394.461.364,1.759,1.006,2.252.686.525,1.115.131.063,2.25-.53,1.068-4,.68-4.689,1.615a4.98,4.98,0,0,0-.524,2.295h15.637a4.974,4.974,0,0,0-.524-2.295C730.429,276.407,726.955,276.8,726.424,275.727Z" transform="translate(0)" fill="#d7765d"/>
  </g>
</svg>
