<svg xmlns="http://www.w3.org/2000/svg" width="21.179" height="26" viewBox="0 0 21.179 26">
    <path id="icons8-notification" d="M21.951,16.782a6.329,6.329,0,0,1-2.745-5.339V10.33a7.834,7.834,0,0,0-1.934-5.193,6.455,6.455,0,0,0-1.215-1.049,4.082,4.082,0,0,0,.046-.573A3.329,3.329,0,0,0,13,0,3.329,3.329,0,0,0,9.9,3.516a4.078,4.078,0,0,0,.04.538,7.269,7.269,0,0,0-3.144,6.1v1.287a6.329,6.329,0,0,1-2.745,5.339,2.427,2.427,0,0,0-.983,2.587,2.092,2.092,0,0,0,1.967,1.724H9.224A4.011,4.011,0,0,0,13,25a4.011,4.011,0,0,0,3.776-3.906h4.193a2.092,2.092,0,0,0,1.967-1.724,2.427,2.427,0,0,0-.983-2.587ZM10.59,3.676c0-.054,0-.107,0-.161A2.589,2.589,0,0,1,13,.781a2.589,2.589,0,0,1,2.414,2.734c0,.053,0,.107,0,.161A5.637,5.637,0,0,0,13,3.125a5.929,5.929,0,0,0-2.41.551ZM13,24.219a3.278,3.278,0,0,1-3.084-3.125h6.168A3.278,3.278,0,0,1,13,24.219Zm7.969-3.906H5.031a1.441,1.441,0,0,1-1.342-1.52,1.582,1.582,0,0,1,.7-1.331,7.134,7.134,0,0,0,3.095-6.019V10.156C7.5,6.714,9.958,3.928,13,3.906a5.111,5.111,0,0,1,3.792,1.789,6.993,6.993,0,0,1,1.728,4.635v1.113a7.134,7.134,0,0,0,3.095,6.019,1.582,1.582,0,0,1,.7,1.33,1.441,1.441,0,0,1-1.342,1.52Z" transform="translate(-2.473 0.5)" fill="#fff" stroke="#fff" stroke-width="1"/>
</svg>
