<svg id="Layer_1" data-name="Layer 1" xmlns="http://www.w3.org/2000/svg" viewBox="0 0 97.98 91.99"><defs><style>.cls-1{fill:none;}.cls-1,.cls-2{stroke:#455d63;stroke-linecap:round;stroke-linejoin:round;stroke-width:2px;}.cls-2{fill:#fff;}</style></defs><line class="cls-1" x1="8.31" y1="85.27" x2="89.67" y2="85.27"/><rect class="cls-1" x="4.86" y="76.22" width="3.45" height="14.77"/><rect class="cls-1" x="89.67" y="76.22" width="3.45" height="14.77"/><rect class="cls-2" x="4.86" y="42.5" width="24.27" height="30.65" rx="3.59"/><rect class="cls-2" x="1" y="73.16" width="31.99" height="6.87" rx="3.42"/><line class="cls-1" x1="1" y1="76.59" x2="1" y2="65.26"/><line class="cls-1" x1="32.99" y1="76.59" x2="32.99" y2="65.26"/><rect class="cls-2" x="36.85" y="42.5" width="24.27" height="30.65" rx="3.59"/><rect class="cls-2" x="32.99" y="73.16" width="31.99" height="6.87" rx="3.42"/><line class="cls-1" x1="64.99" y1="76.59" x2="64.99" y2="65.26"/><rect class="cls-2" x="68.85" y="42.5" width="24.27" height="30.65" rx="3.59"/><rect class="cls-2" x="64.99" y="73.16" width="31.99" height="6.87" rx="3.42"/><line class="cls-1" x1="96.98" y1="76.59" x2="96.98" y2="65.26"/><circle class="cls-1" cx="50.76" cy="16.66" r="15.66" transform="translate(22.88 62.23) rotate(-76.72)"/><circle class="cls-1" cx="50.76" cy="16.66" r="11.08" transform="translate(22.88 62.23) rotate(-76.72)"/><polyline class="cls-1" points="50.76 12.5 50.76 16.66 54.74 21.26"/></svg>