<?xml version="1.0" encoding="utf-8"?>
<!-- Generator: Adobe Illustrator 26.3.1, SVG Export Plug-In . SVG Version: 6.00 Build 0)  -->
<svg version="1.1" id="Layer_1" xmlns="http://www.w3.org/2000/svg" xmlns:xlink="http://www.w3.org/1999/xlink" x="0px" y="0px"
	 viewBox="0 0 675.1 290.8" style="enable-background:new 0 0 675.1 290.8;" xml:space="preserve">
<style type="text/css">
	.st0{fill:#FFFFFF;}
	.st1{fill:url(#SVGID_1_);}
	.st2{fill:url(#SVGID_00000080902654151168212130000018054536755709326257_);}
	.st3{fill:#F27B55;}
</style>
<path class="st0" d="M163.6,175h-9.4c-0.4,0-0.8,0.4-0.8,0.8l0.1,39.2c0,0.1-0.1,0.2-0.2,0.2c-0.1,0-0.2,0-0.2-0.1l-41-39.8
	c-0.1-0.2-0.3-0.3-0.6-0.2h-8c-0.4,0-0.8,0.4-0.8,0.8v56.3c0,0.4,0.4,0.8,0.8,0.8h9.3c0.5,0,0.8-0.3,0.9-0.8v-39.5
	c0-0.1,0.1-0.2,0.3-0.2c0,0,0.1,0,0.1,0.1l41.4,40.2c0.1,0.2,0.3,0.3,0.6,0.2h7.6c0.5,0,0.9-0.4,0.9-0.9l-0.1-56.3
	C164.4,175.4,164,175,163.6,175L163.6,175z"/>
<path class="st0" d="M289.5,175h9.8c0.3,0,0.6,0.3,0.6,0.6v56.8c0,0.3-0.3,0.6-0.6,0.6h-9.8c-0.3,0-0.6-0.3-0.6-0.6v-56.8
	C288.9,175.2,289.2,175,289.5,175z"/>
<path class="st0" d="M472.9,173.7c-14.5,0-36.1,8.7-36.1,30.2c0,19.3,21.3,30.3,36.1,30.3c20.7,0,36.2-12.2,36.2-30.3
	C509.2,183.3,488.6,173.7,472.9,173.7z M472.9,223.2c-13.9,0-25.2-8.7-25.2-19.3s11.3-19.2,25.2-19.2s25.3,8.7,25.3,19.2
	S486.8,223.2,472.9,223.2z"/>
<path class="st0" d="M674.6,221.8h-45.5c-0.5-0.1-0.9-0.5-0.9-1V210c0-0.3,0.2-0.6,0.5-0.6c0,0,0,0,0,0h30.8c0.3,0,0.5-0.2,0.6-0.5
	l3.1-9.8c0.1-0.3-0.1-0.6-0.4-0.7c0,0-0.1,0-0.1,0h-34c-0.3,0-0.6-0.3-0.6-0.6v-10.9c0-0.5,0.4-0.9,0.9-0.9h45.5
	c0.3,0,0.6-0.3,0.6-0.6c0-0.1,0-0.1,0-0.2l-3.1-9.8c-0.1-0.2-0.3-0.4-0.6-0.4h-53.3c-0.5-0.1-0.9,0.3-1,0.8c0,0,0,0.1,0,0.1v55.9
	c0,0.5,0.4,0.9,0.9,0.9c0,0,0.1,0,0.1,0h53.2c0.2,0,0.5-0.2,0.6-0.4l3.1-9.8C675.2,222.2,674.9,221.8,674.6,221.8z"/>
<path class="st0" d="M373.4,175h-39.3c-0.1,0-0.2,0-0.2,0.2l-3.7,10.5c0,0.1,0.1,0.3,0.2,0.3c0,0,0,0,0.1,0h42.9
	c9.2,0,24.7,2.4,24.7,18c0,13-6.9,18-24.7,18h-18.3c-0.7,0-1.3-0.6-1.3-1.4v-25l-11,4.2v31.7c0,0.7,0.6,1.3,1.3,1.4c0,0,0,0,0,0
	h29.2c26.9,0,35.6-14.8,35.6-29C409,186.4,395.8,175,373.4,175z"/>
<path class="st0" d="M250.4,175h-50.5c-0.1,0-0.2,0-0.2,0.1l-3.2,9.3c0,0.1,0.1,0.2,0.2,0.2c0,0,0,0,0.1,0h57c0.1,0,0.2-0.1,0.2-0.2
	c0,0,0,0,0-0.1l-3.4-9.3C250.6,175,250.5,175,250.4,175z"/>
<path class="st0" d="M220.9,232.4c0,0.2,0.2,0.5,0.4,0.5h10.1c0.2,0,0.4-0.2,0.4-0.5v-36.3l-10.9,4.2V232.4z"/>
<path class="st0" d="M588.1,175h-50.5c-0.1,0-0.2,0-0.2,0.1l-3.3,9.3c0,0.1,0.1,0.2,0.2,0.2c0,0,0,0,0.1,0h57c0.1,0,0.2-0.1,0.2-0.2
	c0,0,0,0,0-0.1l-3.4-9.3C588.3,175,588.2,175,588.1,175z"/>
<path class="st0" d="M558.6,232.4c0,0.2,0.2,0.5,0.4,0.5h10.1c0.2,0,0.4-0.2,0.4-0.5v-36.3l-10.9,4.2V232.4z"/>
<path class="st0" d="M41.5,175.3c-0.1-0.2-0.3-0.3-0.6-0.3H29c-0.2,0-0.4,0.1-0.6,0.3L0.1,232.1c-0.2,0.3,0,0.7,0.3,0.9
	c0.1,0,0.2,0.1,0.3,0.1h10.9c0,0,0.1,0,0.1,0l0,0l20.3-8.5c1.9-0.8,4.1-0.8,6,0l20.3,8.5v-0.1c0.1,0,0.1,0,0.2,0.1h10.9
	c0.4-0.1,0.7-0.4,0.6-0.8c0,0,0-0.1,0-0.1L41.5,175.3z M37.7,213c-1.8-0.7-3.7-0.7-5.5,0l-12.8,4.8l3.3-6.5c0,0,0-0.1,0-0.1l4.7-9.2
	l0,0l7.4-14.8c0.1-0.1,0.2-0.1,0.3-0.1c0,0,0.1,0.1,0.1,0.1l7.4,14.7l8,15.9L37.7,213z"/>
<linearGradient id="SVGID_1_" gradientUnits="userSpaceOnUse" x1="350.8322" y1="93.9923" x2="438.0022" y2="118.6923" gradientTransform="matrix(1 0 0 -1 -62.44 210.41)">
	<stop  offset="0" style="stop-color:#DE5A21"/>
	<stop  offset="1" style="stop-color:#F191AC"/>
</linearGradient>
<path class="st1" d="M372.7,87.7l-29.6-11.1c-3.6-1.3-7.5-1.3-11.1,0l-29.6,11.1l-11.8,29l40.9-17.1c3.9-1.6,8.3-1.6,12.2,0
	l40.9,17.2L372.7,87.7z"/>
<linearGradient id="SVGID_00000025419826059811466220000012933779913604464042_" gradientUnits="userSpaceOnUse" x1="422.8552" y1="58.1274" x2="364.6652" y2="164.4174" gradientTransform="matrix(1 0 0 -1 -62.44 210.41)">
	<stop  offset="0" style="stop-color:#DE5A21"/>
	<stop  offset="1" style="stop-color:#F191AC"/>
</linearGradient>
<path style="fill:url(#SVGID_00000025419826059811466220000012933779913604464042_);" d="M407.9,114.8L350.6,0.6
	C350.4,0.3,350,0,349.5,0h-24c-0.4,0-0.9,0.3-1.1,0.6l-57.1,114.2c-0.3,0.6-0.1,1.4,0.5,1.8c0.2,0.1,0.4,0.1,0.6,0.2h21.9
	c0.5,0,0.8-0.3,1.1-0.8l7.8-15.6l13.6-27.2c0-0.1,0-0.1,0-0.2l9.4-18.6l0,0l0,0l14.9-29.7c0.1-0.2,0.4-0.3,0.6-0.2
	c0.1,0,0.2,0.1,0.2,0.2l14.8,29.7l0,0l21.3,42.4l0,0l9.6,19.2c0.2,0.5,0.6,0.8,1.1,0.8h21.9c0.8-0.1,1.4-0.8,1.3-1.6
	C407.9,115,407.9,114.9,407.9,114.8z"/>
<g>
	<path class="st3" d="M208.4,257.4h5.5v12.5h14.3v-12.5h5.5v31.4h-5.5v-14.2h-14.3v14.2h-5.5V257.4z"/>
	<path class="st3" d="M262.3,257.4h22.6v4.8h-17.1v8.2h15.8v4.5h-15.8v9.2h17.4v4.8h-22.9V257.4z"/>
	<path class="st3" d="M320.4,257.4h5.9l12.1,31.4h-5.9l-2.9-8.3h-12.5l-2.9,8.3h-5.7L320.4,257.4z M318.4,276.3h9.6l-4.7-13.5h-0.1
		L318.4,276.3z"/>
	<path class="st3" d="M363.3,257.4h5.5v26.7h16v4.8h-21.5V257.4z"/>
	<path class="st3" d="M410.6,257.4h5.5v31.4h-5.5V257.4z"/>
	<path class="st3" d="M442.1,257.4h6.6l7.1,11.1l7.4-11.1h6.2L459,272.5l11.1,16.3h-6.7l-7.8-12l-8,12h-6.3l11.1-16.3L442.1,257.4z"
		/>
</g>
</svg>
