<svg version="1.1" id="Layer_1" xmlns="http://www.w3.org/2000/svg" x="0" y="0" viewBox="0 0 675.1 290.8" style="enable-background:new 0 0 675.1 290.8" xml:space="preserve"><style>.st0{fill:#fff}.st3{fill:#f27b55}</style><path class="st0" d="M163.6 175h-9.4c-.4 0-.8.4-.8.8l.1 39.2c0 .1-.1.2-.2.2s-.2 0-.2-.1l-41-39.8c-.1-.2-.3-.3-.6-.2h-8c-.4 0-.8.4-.8.8v56.3c0 .4.4.8.8.8h9.3c.5 0 .8-.3.9-.8v-39.5c0-.1.1-.2.3-.2 0 0 .1 0 .1.1l41.4 40.2c.1.2.3.3.6.2h7.6c.5 0 .9-.4.9-.9l-.1-56.3c-.1-.4-.5-.8-.9-.8zM289.5 175h9.8c.3 0 .6.3.6.6v56.8c0 .3-.3.6-.6.6h-9.8c-.3 0-.6-.3-.6-.6v-56.8c0-.4.3-.6.6-.6zM472.9 173.7c-14.5 0-36.1 8.7-36.1 30.2 0 19.3 21.3 30.3 36.1 30.3 20.7 0 36.2-12.2 36.2-30.3.1-20.6-20.5-30.2-36.2-30.2zm0 49.5c-13.9 0-25.2-8.7-25.2-19.3s11.3-19.2 25.2-19.2 25.3 8.7 25.3 19.2-11.4 19.3-25.3 19.3zM674.6 221.8h-45.5c-.5-.1-.9-.5-.9-1V210c0-.3.2-.6.5-.6h30.8c.3 0 .5-.2.6-.5l3.1-9.8c.1-.3-.1-.6-.4-.7h-34.1c-.3 0-.6-.3-.6-.6v-10.9c0-.5.4-.9.9-.9h45.5c.3 0 .6-.3.6-.6v-.2l-3.1-9.8c-.1-.2-.3-.4-.6-.4h-53.3c-.5-.1-.9.3-1 .8v56c0 .5.4.9.9.9H671.3c.2 0 .5-.2.6-.4l3.1-9.8c.2-.3-.1-.7-.4-.7zM373.4 175h-39.3c-.1 0-.2 0-.2.2l-3.7 10.5c0 .1.1.3.2.3h43c9.2 0 24.7 2.4 24.7 18 0 13-6.9 18-24.7 18h-18.3c-.7 0-1.3-.6-1.3-1.4v-25l-11 4.2v31.7c0 .7.6 1.3 1.3 1.4h29.2c26.9 0 35.6-14.8 35.6-29 .1-17.5-13.1-28.9-35.5-28.9zM250.4 175h-50.5c-.1 0-.2 0-.2.1l-3.2 9.3c0 .1.1.2.2.2h57.1c.1 0 .2-.1.2-.2v-.1l-3.4-9.3h-.2zM220.9 232.4c0 .2.2.5.4.5h10.1c.2 0 .4-.2.4-.5v-36.3l-10.9 4.2v32.1zM588.1 175h-50.5c-.1 0-.2 0-.2.1l-3.3 9.3c0 .1.1.2.2.2h57.1c.1 0 .2-.1.2-.2v-.1l-3.4-9.3h-.1zM558.6 232.4c0 .2.2.5.4.5h10.1c.2 0 .4-.2.4-.5v-36.3l-10.9 4.2v32.1zM41.5 175.3c-.1-.2-.3-.3-.6-.3H29c-.2 0-.4.1-.6.3L.1 232.1c-.2.3 0 .7.3.9.1 0 .2.1.3.1h11l20.3-8.5c1.9-.8 4.1-.8 6 0l20.3 8.5v-.1c.1 0 .1 0 .2.1h10.9c.4-.1.7-.4.6-.8v-.1l-28.5-56.9zM37.7 213c-1.8-.7-3.7-.7-5.5 0l-12.8 4.8 3.3-6.5v-.1l4.7-9.2 7.4-14.8c.1-.1.2-.1.3-.1l.1.1 7.4 14.7 8 15.9-12.9-4.8z"/><linearGradient id="SVGID_1_" gradientUnits="userSpaceOnUse" x1="350.832" y1="93.992" x2="438.002" y2="118.692" gradientTransform="matrix(1 0 0 -1 -62.44 210.41)"><stop offset="0" style="stop-color:#de5a21"/><stop offset="1" style="stop-color:#f191ac"/></linearGradient><path d="m372.7 87.7-29.6-11.1c-3.6-1.3-7.5-1.3-11.1 0l-29.6 11.1-11.8 29 40.9-17.1c3.9-1.6 8.3-1.6 12.2 0l40.9 17.2-11.9-29.1z" style="fill:url(#SVGID_1_)"/><linearGradient id="SVGID_00000025419826059811466220000012933779913604464042_" gradientUnits="userSpaceOnUse" x1="422.855" y1="58.127" x2="364.665" y2="164.417" gradientTransform="matrix(1 0 0 -1 -62.44 210.41)"><stop offset="0" style="stop-color:#de5a21"/><stop offset="1" style="stop-color:#f191ac"/></linearGradient><path style="fill:url(#SVGID_00000025419826059811466220000012933779913604464042_)" d="M407.9 114.8 350.6.6c-.2-.3-.6-.6-1.1-.6h-24c-.4 0-.9.3-1.1.6l-57.1 114.2c-.3.6-.1 1.4.5 1.8.2.1.4.1.6.2h21.9c.5 0 .8-.3 1.1-.8l7.8-15.6 13.6-27.2V73l9.4-18.6 14.9-29.7c.1-.2.4-.3.6-.2.1 0 .2.1.2.2l14.8 29.7L374 96.8l9.6 19.2c.2.5.6.8 1.1.8h21.9c.8-.1 1.4-.8 1.3-1.6v-.4z"/><path class="st3" d="M208.4 257.4h5.5v12.5h14.3v-12.5h5.5v31.4h-5.5v-14.2h-14.3v14.2h-5.5v-31.4zM262.3 257.4h22.6v4.8h-17.1v8.2h15.8v4.5h-15.8v9.2h17.4v4.8h-22.9v-31.5zM320.4 257.4h5.9l12.1 31.4h-5.9l-2.9-8.3h-12.5l-2.9 8.3h-5.7l11.9-31.4zm-2 18.9h9.6l-4.7-13.5h-.1l-4.8 13.5zM363.3 257.4h5.5v26.7h16v4.8h-21.5v-31.5zM410.6 257.4h5.5v31.4h-5.5v-31.4zM442.1 257.4h6.6l7.1 11.1 7.4-11.1h6.2L459 272.5l11.1 16.3h-6.7l-7.8-12-8 12h-6.3l11.1-16.3-10.3-15.1z"/></svg>