<svg xmlns="http://www.w3.org/2000/svg" xmlns:xlink="http://www.w3.org/1999/xlink" width="52.135" height="43.221" viewBox="0 0 52.135 43.221">
  <defs>
    <linearGradient id="linear-gradient" x1="-0.024" y1="0.993" x2="0.905" y2="0.393" gradientUnits="objectBoundingBox">
      <stop offset="0" stop-color="#de5a21"/>
      <stop offset="1" stop-color="#f191ac"/>
    </linearGradient>
    <linearGradient id="linear-gradient-2" x1="0.662" y1="1.305" x2="0.249" y2="0.394" xlink:href="#linear-gradient"/>
  </defs>
  <g id="Group_696" data-name="Group 696" transform="translate(-168.929 -572.943)">
    <g id="Group_298" data-name="Group 298">
      <path id="Path_330" data-name="Path 330" d="M208.015,605.417l-10.965-4.123a5.824,5.824,0,0,0-4.1,0l-10.965,4.123-4.375,10.747,15.136-6.351a5.835,5.835,0,0,1,4.512,0l15.136,6.351Z" fill="url(#linear-gradient)"/>
      <path id="Path_331" data-name="Path 331" d="M221.033,615.454l-21.2-42.275a.5.5,0,0,0-.415-.236H190.54a.6.6,0,0,0-.414.236L168.99,615.454a.484.484,0,0,0,.414.71h8.111c.178,0,.3-.118.414-.3l2.886-5.771L185.858,600a.31.31,0,0,1,.005-.062l3.465-6.886,0-.008h0l5.529-10.988a.171.171,0,0,1,.3,0l5.493,10.988h0l7.875,15.7c0,.005.009.008.011.012l3.553,7.1a.445.445,0,0,0,.414.3h8.112A.539.539,0,0,0,221.033,615.454Z" fill="url(#linear-gradient-2)"/>
    </g>
  </g>
</svg>
