<svg id="icons8-calendar_1_" data-name="icons8-calendar (1)" xmlns="http://www.w3.org/2000/svg" xmlns:xlink="http://www.w3.org/1999/xlink" width="43.808" height="36.947" viewBox="0 0 43.808 36.947">
  <defs>
    <linearGradient id="linear-gradient" x1="0.012" y1="0.055" x2="0.994" y2="0.916" gradientUnits="objectBoundingBox">
      <stop offset="0" stop-color="#28afea"/>
      <stop offset="1" stop-color="#047ed6"/>
    </linearGradient>
    <linearGradient id="linear-gradient-2" x1="0.012" y1="0.076" x2="0.978" y2="0.96" gradientUnits="objectBoundingBox">
      <stop offset="0" stop-color="#0077d2"/>
      <stop offset="1" stop-color="#0b59a2"/>
    </linearGradient>
  </defs>
  <path id="Path_1398" data-name="Path 1398" d="M6,40.966V12H49.808V40.966a2.281,2.281,0,0,1-2.434,2.069H8.434A2.281,2.281,0,0,1,6,40.966Z" transform="translate(-6 -6.088)" fill="url(#linear-gradient)"/>
  <path id="Path_1399" data-name="Path 1399" d="M49.808,7.478v4.434H6V7.478C6,6.665,7.1,6,8.434,6H47.375C48.713,6,49.808,6.665,49.808,7.478Z" transform="translate(-6 -4.522)" fill="url(#linear-gradient-2)"/>
  <path id="Path_1400" data-name="Path 1400" d="M35.129,10.8h0A2.449,2.449,0,0,1,32.5,8.586V6h5.257V8.586A2.449,2.449,0,0,1,35.129,10.8Z" transform="translate(2.985 -4.522)" opacity="0.05"/>
  <path id="Path_1401" data-name="Path 1401" d="M35.221,10.249h0A1.836,1.836,0,0,1,33.25,8.586V6h3.943V8.586A1.836,1.836,0,0,1,35.221,10.249Z" transform="translate(2.892 -4.522)" opacity="0.07"/>
  <path id="Path_1402" data-name="Path 1402" d="M12.129,10.8h0A2.449,2.449,0,0,1,9.5,8.586V6h5.257V8.586A2.449,2.449,0,0,1,12.129,10.8Z" transform="translate(-6.433 -4.522)" opacity="0.05"/>
  <path id="Path_1403" data-name="Path 1403" d="M12.221,10.249h0A1.836,1.836,0,0,1,10.25,8.586V6h3.943V8.586A1.836,1.836,0,0,1,12.221,10.249Z" transform="translate(-6.526 -4.522)" opacity="0.07"/>
  <path id="Path_1404" data-name="Path 1404" d="M12.314,9.173h0A1.225,1.225,0,0,1,11,8.064V5.108A1.225,1.225,0,0,1,12.314,4h0a1.225,1.225,0,0,1,1.314,1.108V8.064A1.225,1.225,0,0,1,12.314,9.173Z" transform="translate(-6.619 -4)" fill="#3ccbf4"/>
  <path id="Path_1405" data-name="Path 1405" d="M35.523,19.369v2.217a.408.408,0,0,1-.438.369H32.457a.408.408,0,0,1-.438-.369V19.369A.408.408,0,0,1,32.457,19h2.629A.408.408,0,0,1,35.523,19.369Zm-7.009,0v2.217a.408.408,0,0,1-.438.369H25.447a.408.408,0,0,1-.438-.369V19.369A.408.408,0,0,1,25.447,19h2.629A.408.408,0,0,1,28.514,19.369Zm-7.009,0v2.217a.408.408,0,0,1-.438.369H18.438A.408.408,0,0,1,18,21.586V19.369A.408.408,0,0,1,18.438,19h2.629A.408.408,0,0,1,21.5,19.369Z" transform="translate(4.78 -4.004)" fill="#fff"/>
  <path id="Path_1406" data-name="Path 1406" d="M46.8,26.369v2.217c0,.2-.294.369-.657.369H42.2c-.363,0-.657-.166-.657-.369V26.369c0-.2.294-.369.657-.369h3.943C46.5,26,46.8,26.166,46.8,26.369Zm-10.514,0v2.217c0,.2-.294.369-.657.369H31.685c-.363,0-.657-.166-.657-.369V26.369c0-.2.294-.369.657-.369h3.943C35.991,26,36.285,26.166,36.285,26.369Zm-10.514,0v2.217c0,.2-.294.369-.657.369H21.171c-.363,0-.657-.166-.657-.369V26.369c0-.2.294-.369.657-.369h3.943C25.477,26,25.771,26.166,25.771,26.369Zm-10.514,0v2.217c0,.2-.294.369-.657.369H10.657c-.363,0-.657-.166-.657-.369V26.369c0-.2.294-.369.657-.369H14.6C14.963,26,15.257,26.166,15.257,26.369Z" transform="translate(-6.495 -4.006)" fill="#fff"/>
  <path id="Path_1407" data-name="Path 1407" d="M27.523,33.369v2.217a.408.408,0,0,1-.438.369H24.457a.408.408,0,0,1-.438-.369V33.369A.408.408,0,0,1,24.457,33h2.629A.408.408,0,0,1,27.523,33.369Zm-7.009,0v2.217a.408.408,0,0,1-.438.369H17.447a.408.408,0,0,1-.438-.369V33.369A.408.408,0,0,1,17.447,33h2.629A.408.408,0,0,1,20.514,33.369Zm-7.009,0v2.217a.408.408,0,0,1-.438.369H10.438A.408.408,0,0,1,10,35.586V33.369A.408.408,0,0,1,10.438,33h2.629A.408.408,0,0,1,13.5,33.369Z" transform="translate(-6.495 -2.704)" fill="#fff"/>
  <path id="Path_1408" data-name="Path 1408" d="M35.314,9.173h0A1.225,1.225,0,0,1,34,8.064V5.108A1.225,1.225,0,0,1,35.314,4h0a1.225,1.225,0,0,1,1.314,1.108V8.064A1.225,1.225,0,0,1,35.314,9.173Z" transform="translate(2.799 -4)" fill="#3ccbf4"/>
</svg>
