<?xml version="1.0" encoding="iso-8859-1"?>
<!-- Generator: Adobe Illustrator 19.0.0, SVG Export Plug-In . SVG Version: 6.00 Build 0)  -->
<svg version="1.1" id="Layer_1" xmlns="http://www.w3.org/2000/svg" xmlns:xlink="http://www.w3.org/1999/xlink" x="0px" y="0px"
	 viewBox="0 0 512.001 512.001" style="enable-background:new 0 0 512.001 512.001;" xml:space="preserve">
<circle style="fill:#FF5B62;" cx="256" cy="255.999" r="255.999"/>
<path style="fill:#F0BA7D;" d="M228.547,238.628l-6.956,34.956l-23.307,8.017l13.793,217.594l88.681-0.503l4.143-221.201
	l-14.885-4.683l-7.587-35.659l-53.88,1.482L228.547,238.628z"/>
<path style="fill:#21D0C3;" d="M192.994,342.309c38.801,18.812,78.715,22.76,120.731,1.065l-1.433,162.402
	c-18.115,4.063-36.951,6.224-56.292,6.224c-22.255,0-43.845-2.844-64.432-8.182l1.424-161.507L192.994,342.309z"/>
<path style="fill:#EEF3F7;" d="M297.499,275.471l67.592,18.435c17.527,5.41,33.187,15.776,33.688,34.4l3.707,137.649
	c-15.403,10.769-32.047,19.877-49.673,27.084l-4.313-76.124l-11.838,82.104c-25.358,8.421-52.477,12.983-80.662,12.983
	c-0.737,0-1.466-0.022-2.201-0.029l-0.029-69.787l43.726-166.713L297.499,275.471L297.499,275.471z"/>
<path style="fill:#FFFFFF;" d="M218.424,274.774l-67.907,17.239c-17.622,5.102-33.461,15.189-34.292,33.8l-6.262,140.453
	c15.268,10.625,31.75,19.624,49.193,26.761l5.779-77.732l10.576,83.78c24.646,8.162,50.956,12.664,78.288,12.896l-0.029-69.787
	l-35.348-167.409H218.424z"/>
<path style="fill:#FED298;" d="M182.578,154.8c-1.136,11.455,1.16,36.892,15.055,35.924c0,0,20.002,58.296,58.509,64.897
	c33.245-6.074,53.469-58.874,55.004-63.896c4.579,1.563,17.396-19.755,7.571-37.198c-2.817-5.003-10.795-0.952-10.795-0.952
	c7.534-99.845-125.579-91.316-112.897,1.039c0,0-3.76-2.334-7.935-2.425C185.835,152.161,184.221,153.254,182.578,154.8z"/>
<path style="fill:#FEFEFE;" d="M348.527,418.911c-9.99-1.725-16.69-11.223-14.967-21.211c1.725-9.988,11.223-16.693,21.211-14.969
	c9.99,1.725,16.69,11.225,14.967,21.215c-1.725,9.987-11.223,16.69-21.212,14.965L348.527,418.911L348.527,418.911z"/>
<path style="fill:#0F7986;" d="M348.709,417.86c-9.408-1.625-15.72-10.565-14.093-19.976c1.625-9.408,10.568-15.72,19.978-14.097
	c9.408,1.625,15.718,10.57,14.093,19.978c-1.625,9.411-10.568,15.718-19.978,14.093V417.86z"/>
<path style="fill:#EBECEC;" d="M350.022,410.251c-5.204-0.897-8.696-5.85-7.799-11.055c0.897-5.206,5.85-8.696,11.053-7.799
	c5.206,0.899,8.698,5.846,7.799,11.053c-0.897,5.204-5.848,8.696-11.052,7.799v0.002H350.022z"/>
<path style="fill:#FEFEFE;" d="M351.147,392.423l4.203,0.726l2.26-13.09l-4.203-0.726L351.147,392.423z"/>
<path style="fill:#21D0C3;" d="M210.373,422.545l7.876-1.563c3.347-0.666,6.118-2.635,7.887-5.279
	c1.764-2.644,2.531-5.957,1.865-9.305l-9.263-46.668c-3.497-17.611-17.273-26.59-33.015-28.581
	c-6.032-0.763-12.356-0.485-18.483,0.728c-6.132,1.213-12.076,3.369-17.357,6.377c-13.754,7.834-23.023,21.378-19.522,39.017
	l9.263,46.67c0.666,3.347,2.639,6.116,5.281,7.885l0.007-0.002c2.644,1.769,5.953,2.531,9.3,1.867l7.872-1.563l-0.644-3.246
	l-7.874,1.563c-2.454,0.487-4.885-0.075-6.822-1.367l0.002-0.002c-1.938-1.298-3.386-3.329-3.873-5.781l-9.263-46.67
	c-3.177-16.005,5.316-28.342,17.901-35.505c4.974-2.835,10.583-4.868,16.373-6.017c5.79-1.147,11.752-1.406,17.434-0.688
	c14.409,1.821,27.009,9.981,30.178,25.955l9.265,46.67c0.485,2.452-0.077,4.881-1.371,6.822c-1.298,1.936-3.329,3.384-5.784,3.869
	l-7.876,1.563l0.644,3.246L210.373,422.545L210.373,422.545z"/>
<path style="fill:#4D4D4D;" d="M221.236,366.645l-1.415-7.128c-3.603-18.156-17.777-27.41-33.962-29.459
	c-6.149-0.777-12.589-0.498-18.831,0.741c-6.242,1.235-12.301,3.435-17.682,6.497c-14.146,8.056-23.674,22.002-20.064,40.19
	l1.417,7.128l5.406-1.076l-1.415-7.128c-3.067-15.458,5.168-27.393,17.361-34.336c4.874-2.774,10.37-4.765,16.047-5.891
	c5.675-1.127,11.52-1.38,17.088-0.677c13.961,1.764,26.167,9.65,29.232,25.082l1.415,7.128l5.408-1.074L221.236,366.645z"/>
<g>
	<path style="fill:#076673;" d="M155.836,434.08l4.214-0.837c1.058,1.187,2.695,1.796,4.363,1.466
		c2.507-0.498,4.136-2.932,3.638-5.441c-0.496-2.505-2.932-4.134-5.439-3.636c-1.672,0.33-2.95,1.521-3.472,3.021l-4.211,0.835
		l0.91,4.59L155.836,434.08z"/>
	<path style="fill:#076673;" d="M213.719,422.592l-4.209,0.837c-0.523,1.499-1.801,2.688-3.47,3.021
		c-2.507,0.496-4.941-1.131-5.439-3.64c-0.496-2.505,1.131-4.941,3.636-5.437c1.669-0.33,3.308,0.282,4.361,1.466l4.211-0.837
		L213.719,422.592z"/>
</g>
<path style="fill:#666666;" d="M169.59,330.378l-1.607-8.096l-3.195,0.635l-3.191,0.633l1.625,8.176
	c1.217-0.355,2.449-0.657,3.693-0.904C167.801,330.645,168.692,330.499,169.59,330.378z"/>
<g>
	<path style="fill:#0F7986;" d="M162.697,429.576c0.758-0.15,1.251-0.89,1.1-1.645c-0.15-0.759-0.884-1.253-1.645-1.103
		c-0.759,0.15-1.251,0.888-1.1,1.645c0.15,0.757,0.886,1.253,1.645,1.1V429.576z"/>
	<path style="fill:#0F7986;" d="M204.351,421.293c0.757-0.15,1.248-0.888,1.098-1.643c-0.15-0.76-0.884-1.253-1.645-1.103
		c-0.758,0.15-1.251,0.888-1.1,1.647C202.852,420.951,203.59,421.443,204.351,421.293z"/>
</g>
<path style="fill:#FEFEFE;" d="M349.511,410.163c-4.923-0.849-8.224-5.53-7.376-10.456c0.849-4.921,5.527-8.224,10.451-7.373
	c4.923,0.849,8.226,5.53,7.376,10.451c-0.851,4.923-5.532,8.226-10.454,7.378H349.511z"/>
<g>
	<path style="fill:#4D4D4D;" d="M208.562,278.562c-0.141,0.002-49.86,0.414-41.462,43.912l-4.624,0.884
		c-9.467-49.038,45.874-49.49,46.031-49.492L208.562,278.562z"/>
	<path style="fill:#4D4D4D;" d="M307.776,274.091c8.112,0.219,23.792,2.429,35.862,17.111c11.811,14.367,20.091,40.752,13.9,89.129
		l-4.661-0.589c5.992-46.822-1.751-72.032-12.865-85.555c-10.859-13.211-25.018-15.202-32.343-15.399l0.11-4.697L307.776,274.091z"
		/>
</g>
<path style="fill:#FEFEFE;" d="M256.001,256c-24.097-3.784-44.545-35.972-44.701-38.752l-1.422-25.288l36.385-1.577
	c4.78-2.708,8.308-2.708,13.09,0l36.385,1.577l0.688,29.834c-6.395,9.373-15.776,27.34-40.422,34.206H256.001z"/>
<path style="fill:#EEF3F7;" d="M252.807,188.45l2.948,9.781l-1.565,6.829l3.228,16.459l-3.393,15.74l1.978,18.739
	c18.049-5.347,27.514-13.736,40.424-34.113l-0.69-29.926l-36.385-1.577c0,0-4.331-2.449-6.546-1.933L252.807,188.45z"/>
<g>
	<path style="fill:#21D0C3;" d="M194.921,151.065l17.649,41.788l-2.073,0.752l-17.649-41.788L194.921,151.065z"/>
	<path style="fill:#21D0C3;" d="M312.084,152.412l-16.613,41.804l-2.141-0.571l16.615-41.804l2.141,0.571H312.084z"/>
	<path style="fill:#21D0C3;" d="M214.987,140.32c-22.664,8.667-24.987,29.492-21.442,39.961c3.548,10.467,7.939,18.045,7.939,18.045
		l6.943,15.665c0,0-24.628-4.863-27.355-11.488c-12.914-31.373-18.433-74.603,5.051-103.056c36.81-44.602,104.055-45.451,138.781,0
		c22.399,29.314,14.104,71.684,1.193,103.056c-2.728,6.623-27.355,11.488-27.355,11.488l6.943-15.665c0,0,4.809-9.232,8.355-19.698
		c3.548-10.467-5.879-33.435-19.127-38.501c-32.074-12.263-57.258-8.471-79.922,0.194H214.987z"/>
</g>
<g>
	<path style="fill:#666666;" d="M216.175,236.823c-13.74,15.011-7.626,40.459-7.626,40.459l13.041-3.7l6.69-33.608
		c0,0-13.813-14.845-16.737-20.718c-2.921-5.874-4.416-8.747-4.416-8.747C204.861,228.825,215.99,225.973,216.175,236.823z"/>
	<path style="fill:#666666;" d="M295.12,236.823c13.74,15.011,7.626,40.459,7.626,40.459l-13.041-3.7l-6.69-33.608
		c0,0,13.813-14.845,16.737-20.718c2.921-5.874,4.416-8.747,4.416-8.747C306.435,228.825,295.306,225.973,295.12,236.823z"/>
</g>
<path style="fill:#15BDB2;" d="M258.133,65.693c0.904,0.26,41.83,15.291,55.725,28.978c13.895,13.687,13.255,22.221,16.373,27.483
	c3.12,5.263,6.242,37.231-0.386,53.214s-3.433,21.674-14.814,27.68c-11.382,6.006-16.296,10.941-16.296,10.941
	s24.631-4.863,27.355-11.488c12.914-31.371,21.206-73.741-1.193-103.056c-16.949-22.186-41.646-33.335-66.767-33.754L258.133,65.693
	z"/>
<g>
</g>
<g>
</g>
<g>
</g>
<g>
</g>
<g>
</g>
<g>
</g>
<g>
</g>
<g>
</g>
<g>
</g>
<g>
</g>
<g>
</g>
<g>
</g>
<g>
</g>
<g>
</g>
<g>
</g>
</svg>
