<svg xmlns="http://www.w3.org/2000/svg" xmlns:xlink="http://www.w3.org/1999/xlink" viewBox="0,0,255.99431,255.99431" width="50px" height="50px" fill-rule="nonzero"><g fill="#ff3860" fill-rule="nonzero" stroke="none" stroke-width="1" stroke-linecap="butt" stroke-linejoin="miter" stroke-miterlimit="10" stroke-dasharray="" stroke-dashoffset="0" font-family="none" font-weight="none" font-size="none" text-anchor="none" style="mix-blend-mode: normal"><g transform="scale(5.12,5.12)"><path d="M49.77734,45.34766l-23.91016,-41.41797c-0.35937,-0.61719 -1.375,-0.61719 -1.73437,0l-24,41.57031c-0.17578,0.30859 -0.17578,0.69141 0,1c0.17969,0.30859 0.51172,0.5 0.86719,0.5h48c0.00781,0 0.01563,0 0.01953,0c0.55469,0 1,-0.44531 1,-1c0,-0.25 -0.08984,-0.47656 -0.24219,-0.65234zM23.49219,19.26563c0,-0.21484 0.14453,-0.35937 0.35938,-0.35937h2.29688c0.21484,0 0.35547,0.14453 0.35547,0.35938v14.46094c0,0.21484 -0.14062,0.35938 -0.35547,0.35938h-2.29687c-0.21484,0 -0.35937,-0.14453 -0.35937,-0.35937zM26.57813,39.9375c0,0.21484 -0.14453,0.35547 -0.35547,0.35547h-2.44141c-0.21484,0 -0.35547,-0.14453 -0.35547,-0.35547v-2.62109c0,-0.21484 0.14453,-0.35547 0.35547,-0.35547h2.44141c0.21484,0 0.35547,0.14063 0.35547,0.35547z"></path></g></g></svg>