<svg xmlns="http://www.w3.org/2000/svg" version="1.1" xmlns:xlink="http://www.w3.org/1999/xlink" xmlns:svgjs="http://svgjs.dev/svgjs" width="2000" height="560" preserveAspectRatio="none" viewBox="0 0 1440 560"><g mask="url(&quot;#SvgjsMask1113&quot;)" fill="none"><rect width="1440" height="560" x="0" y="0" fill="rgba(255, 255, 255, 1)"></rect><path d="M80.842,178.292C115.388,176.799,146.103,158.438,164.07,128.894C182.839,98.031,188.745,60.208,172.174,28.111C154.226,-6.653,119.954,-31.334,80.842,-32.31C40.097,-33.327,1.5,-12.029,-18.743,23.347C-38.857,58.498,-37.749,102.599,-15.852,136.668C4.483,168.307,43.267,179.916,80.842,178.292" fill="rgba(28, 83, 142, 0.4)" class="triangle-float2"></path><path d="M28.037,93.406C50.502,93.984,69.554,77.938,80.084,58.086C89.951,39.484,88.525,17.429,78.012,-0.816C67.482,-19.089,49.12,-32.789,28.037,-32.237C7.728,-31.705,-7.916,-16.171,-17.603,1.687C-26.781,18.605,-28.145,38.291,-19.571,55.523C-9.888,74.983,6.308,92.847,28.037,93.406" fill="rgba(28, 83, 142, 0.4)" class="triangle-float1"></path><path d="M-60.09 -14.58 a45.51 45.51 0 1 0 91.02 0 a45.51 45.51 0 1 0 -91.02 0z" fill="rgba(28, 83, 142, 0.4)" class="triangle-float1"></path><path d="M1383.25,134.092C1410.081,134.309,1430.006,113.196,1444.48,90.602C1460.628,65.395,1478.713,34.699,1463.402,8.975C1448.25,-16.481,1412.823,-13.999,1383.25,-12.267C1357.627,-10.766,1330.814,-4.661,1317.864,17.5C1304.821,39.821,1311.063,67.078,1323.709,89.627C1336.695,112.783,1356.702,133.878,1383.25,134.092" fill="rgba(28, 83, 142, 0.4)" class="triangle-float2"></path><path d="M1342.687,65.262C1358.985,64.079,1368.192,48.276,1375.999,33.92C1383.324,20.45,1390.108,5.007,1382.777,-8.46C1375.212,-22.356,1358.507,-27.03,1342.687,-27.276C1326.327,-27.53,1309.229,-23.503,1300.381,-9.739C1290.877,5.045,1291.157,24.144,1299.792,39.452C1308.579,55.03,1324.849,66.557,1342.687,65.262" fill="rgba(28, 83, 142, 0.4)" class="triangle-float2"></path><path d="M1466.824,312.428C1523.457,311.435,1558.936,257.371,1585.572,207.383C1610.177,161.207,1627.683,106.35,1600.43,61.686C1573.954,18.295,1517.646,13.74,1466.824,12.772C1413.513,11.757,1352.668,11.399,1324.104,56.424C1294.223,103.525,1313.476,162.958,1340.637,211.678C1368.728,262.066,1409.144,313.439,1466.824,312.428" fill="rgba(28, 83, 142, 0.4)" class="triangle-float1"></path><path d="M125.722,692.228C169.917,691.139,212.631,674.861,236.901,637.911C263.834,596.906,273.142,545.162,251.109,501.329C226.839,453.046,179.752,417.75,125.722,416.726C70.064,415.671,18.035,447.304,-8.175,496.416C-33.032,542.993,-25.176,600.057,4.624,643.637C30.937,682.118,79.119,693.377,125.722,692.228" fill="rgba(28, 83, 142, 0.4)" class="triangle-float2"></path><path d="M60.095,602.898C92.877,604.291,122.142,581.736,136.789,552.374C150.068,525.754,142.515,494.826,126.517,469.746C111.852,446.756,87.36,432.632,60.095,432.145C31.903,431.642,3.575,442.905,-10.567,467.298C-24.747,491.757,-19.153,521.233,-6.088,546.305C8.289,573.895,29.012,601.578,60.095,602.898" fill="rgba(28, 83, 142, 0.4)" class="triangle-float2"></path><path d="M-122.69 496.03 a170.72 170.72 0 1 0 341.44 0 a170.72 170.72 0 1 0 -341.44 0z" fill="rgba(28, 83, 142, 0.4)" class="triangle-float2"></path><path d="M1205.3 496.03 a170.73 170.73 0 1 0 341.46 0 a170.73 170.73 0 1 0 -341.46 0z" fill="rgba(28, 83, 142, 0.4)" class="triangle-float3"></path><path d="M1280.63 420.7 a20.07 20.07 0 1 0 40.14 0 a20.07 20.07 0 1 0 -40.14 0z" fill="rgba(28, 83, 142, 0.4)" class="triangle-float3"></path><path d="M1401.103,621.844C1438.066,622.175,1474.641,606.242,1492.889,574.096C1510.936,542.304,1506.404,502.436,1486.167,471.991C1467.9,444.51,1434.101,435.984,1401.103,436.008C1368.159,436.032,1334.246,444.519,1316.253,472.115C1296.653,502.175,1294.432,541.255,1312.124,572.475C1330.047,604.104,1364.75,621.518,1401.103,621.844" fill="rgba(28, 83, 142, 0.4)" class="triangle-float2"></path></g><defs><mask id="SvgjsMask1113"><rect width="1440" height="560" fill="#ffffff"></rect></mask><style>
                @keyframes float1 {
                    0%{transform: translate(0, 0)}
                    50%{transform: translate(-10px, 0)}
                    100%{transform: translate(0, 0)}
                }

                .triangle-float1 {
                    animation: float1 5s infinite;
                }

                @keyframes float2 {
                    0%{transform: translate(0, 0)}
                    50%{transform: translate(-5px, -5px)}
                    100%{transform: translate(0, 0)}
                }

                .triangle-float2 {
                    animation: float2 4s infinite;
                }

                @keyframes float3 {
                    0%{transform: translate(0, 0)}
                    50%{transform: translate(0, -10px)}
                    100%{transform: translate(0, 0)}
                }

                .triangle-float3 {
                    animation: float3 6s infinite;
                }
            </style></defs></svg>
