<svg xmlns="http://www.w3.org/2000/svg" xmlns:xlink="http://www.w3.org/1999/xlink" viewBox="0,0,255.99431,255.99431" width="50px" height="50px" fill-rule="nonzero"><g fill="#48c774" fill-rule="nonzero" stroke="none" stroke-width="1" stroke-linecap="butt" stroke-linejoin="miter" stroke-miterlimit="10" stroke-dasharray="" stroke-dashoffset="0" font-family="none" font-weight="none" font-size="none" text-anchor="none" style="mix-blend-mode: normal"><g transform="scale(5.12,5.12)"><path d="M12,0c-1.09375,0 -2,0.90625 -2,2v2h-6c-1.16016,0 -2,0.83984 -2,2v7h46v-7c0,-1.16016 -0.83984,-2 -2,-2h-6v-2c0,-1.09375 -0.90625,-2 -2,-2h-2c-1.09375,0 -2,0.90625 -2,2v2h-18v-2c0,-1.09375 -0.90625,-2 -2,-2zM12,2h2v6h-2zM36,2h2v6h-2zM2,15v31c0,1.16016 0.83984,2 2,2h42c1.16016,0 2,-0.83984 2,-2v-31zM12,21h5v5h-5zM19,21h5v5h-5zM26,21h5v5h-5zM33,21h5v5h-5zM12,28h5v5h-5zM19,28h5v5h-5zM26,28h5v5h-5zM33,28h5v5h-5zM12,35h5v5h-5zM19,35h5v5h-5zM26,35h5v5h-5zM33,35h5v5h-5z"></path></g></g></svg>