<svg id="icons" height="512" viewBox="0 0 60 60" width="512" xmlns="http://www.w3.org/2000/svg"><path d="m47 35.13v-29.13a2.006 2.006 0 0 0 -2-2h-42a2.006 2.006 0 0 0 -2 2v49a2.006 2.006 0 0 0 2 2h26.77z" fill="#eab065"/><path d="m29.27 53h-23.27a1 1 0 0 1 -1-1v-43a1 1 0 0 1 1-1h36a1 1 0 0 1 1 1v25.12z" fill="#f4f9f9"/><rect fill="#6ac579" height="9" rx="2" width="9" x="9" y="14"/><rect fill="#6ac579" height="9" rx="2" width="9" x="9" y="27"/><rect fill="#6ac579" height="9" rx="2" width="9" x="9" y="40"/><path d="m47.791 36.045 10.472 16.016a4.491 4.491 0 0 1 -3.791 6.939h-20.944a4.491 4.491 0 0 1 -3.791-6.939l10.472-16.016a4.536 4.536 0 0 1 7.582 0z" fill="#d8415e"/><path d="m31 4v4a1 1 0 0 1 -1 1h-12a1 1 0 0 1 -1-1v-4a1 1 0 0 1 1-1h1.49a5.45 5.45 0 0 1 4.51-2 5.45 5.45 0 0 1 4.51 2h1.49a1 1 0 0 1 1 1z" fill="#d4e6e7"/><path d="m14 20a1 1 0 0 1 -.707-.293l-1-1a1 1 0 0 1 1.414-1.414l.293.293 4.293-4.293a1 1 0 0 1 1.414 1.414l-5 5a1 1 0 0 1 -.707.293z" fill="#55a060"/><path d="m14 33a1 1 0 0 1 -.707-.293l-1-1a1 1 0 0 1 1.414-1.414l.293.293 4.293-4.293a1 1 0 0 1 1.414 1.414l-5 5a1 1 0 0 1 -.707.293z" fill="#55a060"/><path d="m14 46a1 1 0 0 1 -.707-.293l-1-1a1 1 0 0 1 1.414-1.414l.293.293 4.293-4.293a1 1 0 0 1 1.414 1.414l-5 5a1 1 0 0 1 -.707.293z" fill="#55a060"/><g fill="#aac7c8"><path d="m29 17h-6a1 1 0 0 1 0-2h6a1 1 0 0 1 0 2z"/><path d="m38 22h-15a1 1 0 0 1 0-2h15a1 1 0 0 1 0 2z"/><path d="m29 30h-6a1 1 0 0 1 0-2h6a1 1 0 0 1 0 2z"/><path d="m36 35h-13a1 1 0 0 1 0-2h13a1 1 0 0 1 0 2z"/><path d="m29 43h-6a1 1 0 0 1 0-2h6a1 1 0 0 1 0 2z"/><path d="m28 48h-5a1 1 0 0 1 0-2h5a1 1 0 0 1 0 2z"/></g><path d="m44 50a1 1 0 0 1 -1-1v-10a1 1 0 0 1 2 0v10a1 1 0 0 1 -1 1z" fill="#fff"/><path d="m44 55a1 1 0 0 1 -1-1v-1a1 1 0 0 1 2 0v1a1 1 0 0 1 -1 1z" fill="#fff"/></svg>