<svg id="Layer_1" enable-background="new 0 0 512 512" height="512" viewBox="0 0 512 512" width="512" xmlns="http://www.w3.org/2000/svg"><g clip-rule="evenodd" fill-rule="evenodd"><g><path d="m295.522 348.813h190.478c5.508 0 10 4.492 10 10v127.186c0 5.508-4.492 10-10 10h-190.478c-5.508 0-10-4.492-10-10v-127.186c0-5.508 4.492-10 10-10z" fill="#ffe177"/><path d="m465.999 348.813h20.001c5.508 0 10 4.492 10 10v127.186c0 5.508-4.492 10-10 10h-20.001c5.508 0 10-4.492 10-10v-127.186c0-5.508-4.492-10-10-10z" fill="#ffd064"/><path d="m26 495.999h162.441c5.508 0 10-4.492 10-10v-186.072c0-5.508-4.492-10-10-10h-162.441c-5.508 0-10 4.492-10 10v186.072c0 5.508 4.492 10 10 10z" fill="#8ac9fe"/><path d="m186.001 289.927h-40.001c5.508 0 10 4.492 10 10v196.072h40v-196.072c0-5.508-4.493-10-9.999-10z" fill="#60b7ff"/><path d="m326 211.041h-140c-5.508 0-10 4.492-10 10v274.958h160v-274.958c0-5.508-4.492-10-10-10z" fill="#6cf5c2"/><path d="m326 211.041h-20.001c5.508 0 10 4.492 10 10v274.958h20.001v-274.958c0-5.508-4.492-10-10-10z" fill="#00e499"/></g><g><path d="m418.474 207.048 12.704 33.46c.382 1.006 1.271 1.652 2.345 1.704l35.748 1.743c1.119.055 2.042.759 2.388 1.826.346 1.066.015 2.178-.859 2.88l-27.897 22.422c-.839.674-1.178 1.719-.896 2.757l9.39 34.537c.294 1.082-.091 2.176-.998 2.836-.907.659-2.067.687-3.005.073l-29.945-19.603c-.9-.589-1.999-.589-2.899 0l-29.945 19.603c-.938.614-2.098.586-3.005-.073s-1.292-1.754-.998-2.835l9.389-34.537c.282-1.038-.057-2.083-.896-2.757l-27.897-22.422c-.874-.702-1.205-1.815-.859-2.88.346-1.066 1.269-1.771 2.388-1.826l35.749-1.743c1.075-.052 1.964-.698 2.345-1.704l12.704-33.46c.398-1.048 1.353-1.707 2.474-1.707 1.122-.001 2.077.658 2.475 1.706z" fill="#ffe177"/><path d="m418.474 207.048 12.704 33.46c.379.998 1.257 1.641 2.32 1.702l-11.35-.553c-1.075-.052-1.964-.698-2.345-1.704l-9.385-24.72 3.108-8.186c.398-1.048 1.353-1.707 2.474-1.707 1.121.001 2.076.66 2.474 1.708zm39.441 36.354 11.357.554c1.119.055 2.042.759 2.388 1.826.346 1.066.015 2.178-.859 2.88l-27.897 22.422c-.839.674-1.178 1.719-.896 2.757l9.39 34.537c.294 1.082-.091 2.176-.998 2.836-.907.659-2.067.687-3.005.073l-7.822-5.12-8.939-32.88c-.282-1.038.057-2.083.896-2.757l27.897-22.422c.874-.702 1.205-1.815.859-2.881-.346-1.061-1.26-1.764-2.371-1.825zm-43.365 48.282-29.945 19.603c-.938.614-2.098.586-3.005-.073s-1.292-1.754-.998-2.835l.818-3.007 25.57-16.739c.9-.589 1.999-.589 2.899 0z" fill="#ffd064"/></g><g><path d="m132.253 182.39-34.606 14.038 27.259 58.551c.212.455.63.735 1.132.758s.943-.218 1.195-.652l10.156-17.478 19.913 3.479c.495.086.964-.097 1.269-.495.305-.399.36-.899.148-1.354z" fill="#fe646f"/><path d="m132.253 182.39-4.079 1.655 25.267 54.27c.212.455.157.955-.148 1.354-.305.397-.772.58-1.265.495l5.275.922c.495.086.964-.096 1.269-.495s.36-.899.148-1.354zm-8.871 69.316 8.729-15.021 5.278.922-10.156 17.478c-.252.434-.694.675-1.196.652-.501-.023-.92-.303-1.132-.758z" fill="#fd4755"/><path d="m60.203 181.849 34.606 14.038-27.259 58.551c-.212.455-.63.735-1.132.758-.501.023-.943-.218-1.195-.652l-10.156-17.478-19.913 3.479c-.495.086-.964-.096-1.269-.495-.305-.398-.36-.898-.148-1.354z" fill="#fe646f"/><path d="m94.017 197.591-3.892-2.056-25.267 54.271c-.212.455-.63.735-1.132.758-.5.023-.941-.217-1.193-.649l2.69 4.63c.252.434.694.675 1.195.653.501-.023.92-.303 1.132-.758zm-58.755 37.831-1.524 3.273c-.212.455-.157.955.148 1.354s.775.581 1.269.495l19.913-3.478-2.692-4.633z" fill="#fd4755"/><path d="m104.844 84.888 8.892 6.656c2.432 1.82 4.992 2.752 8.025 2.921l11.089.617c6.64.369 12.033 4.895 13.55 11.37l2.533 10.814c.693 2.957 2.055 5.316 4.27 7.395l8.099 7.601c4.849 4.551 6.072 11.484 3.071 17.42l-5.01 9.912c-1.37 2.711-1.843 5.393-1.483 8.41l1.318 11.028c.789 6.603-2.731 12.7-8.844 15.318l-10.21 4.373c-2.792 1.196-4.879 2.947-6.541 5.489l-6.079 9.296c-3.64 5.566-10.256 7.973-16.622 6.05l-10.632-3.213c-2.907-.879-5.632-.879-8.539 0l-10.632 3.213c-6.366 1.924-12.981-.484-16.621-6.05l-6.079-9.296c-1.662-2.542-3.749-4.293-6.541-5.489l-10.21-4.373c-6.113-2.618-9.634-8.715-8.844-15.318l1.318-11.028c.36-3.016-.112-5.699-1.483-8.41l-5.011-9.912c-3-5.936-1.778-12.868 3.072-17.42l8.099-7.601c2.215-2.079 3.577-4.438 4.27-7.395l2.533-10.814c1.517-6.475 6.91-11 13.55-11.37l11.089-.617c3.033-.169 5.593-1.1 8.025-2.921l8.892-6.656c5.322-3.985 12.362-3.985 17.686 0z" fill="#ffe177"/><path d="m104.844 84.888 8.892 6.656c2.432 1.82 4.992 2.752 8.025 2.921l11.089.617c6.64.369 12.033 4.895 13.55 11.37l2.533 10.814c.693 2.957 2.055 5.316 4.27 7.395l8.098 7.601c4.849 4.551 6.072 11.484 3.071 17.42l-5.01 9.912c-1.37 2.711-1.843 5.394-1.483 8.41l1.318 11.028c.789 6.603-2.731 12.7-8.844 15.318l-10.21 4.373c-2.792 1.196-4.879 2.947-6.541 5.489l-6.079 9.295c-3.536 5.407-9.88 7.833-16.076 6.204 3.384-.913 6.399-3.052 8.46-6.204l6.079-9.295c1.662-2.542 3.749-4.293 6.542-5.489l10.21-4.373c6.114-2.618 9.634-8.715 8.844-15.318l-1.318-11.028c-.36-3.016.113-5.699 1.483-8.41l5.011-9.912c3-5.936 1.778-12.869-3.072-17.42l-8.099-7.601c-2.215-2.079-3.577-4.438-4.27-7.395l-2.533-10.814c-1.517-6.476-6.91-11.001-13.55-11.37l-11.089-.617c-3.033-.169-5.593-1.1-8.025-2.921l-8.892-6.656c-1.56-1.168-3.268-1.993-5.036-2.476 4.266-1.166 8.888-.341 12.652 2.476zm-12.652 131.324c-2.736-.743-5.324-.7-8.077.133l-10.632 3.213c-.182.055-.364.106-.546.154 2.592.7 5.4.681 8.161-.154l10.632-3.213c.155-.047.309-.092.462-.133z" fill="#ffd064"/><ellipse cx="96" cy="151.056" fill="#eceff1" rx="34.43" ry="34.43" transform="matrix(.38 -.925 .925 .38 -80.205 182.45)"/><path d="m96 116.625c.752 0 1.498.027 2.238.074-17.972 1.153-32.192 16.093-32.192 34.356s14.22 33.202 32.192 34.356c-.74.047-1.486.074-2.238.074-19.015 0-34.43-15.415-34.43-34.43s15.415-34.43 34.43-34.43z" fill="#d1d1d6"/></g><g><path d="m174.03 26.976h163.938c4.418 0 8 3.582 8 8v24.272c0 16.596-6.555 29.19-17.243 37.894-11.29 9.193-27.057 13.695-44.284 13.695h-56.883c-17.227 0-32.995-4.502-44.284-13.695-10.689-8.704-17.243-21.299-17.243-37.894v-24.272c0-4.418 3.581-8 7.999-8zm155.939 16h-147.939v16.272c0 11.349 4.298 19.812 11.306 25.519 8.301 6.76 20.514 10.07 34.222 10.07h56.883c13.708 0 25.921-3.31 34.222-10.07 7.008-5.707 11.306-14.17 11.306-25.519z" fill="#a79ba7"/><path d="m213.451 178.175v-7.655c0-1.54 1.091-2.829 2.61-3.084 7.846-1.312 30.671-6.907 30.671-33.136v-8.888l9.268-11.815 9.267 11.815v8.888c0 17.403 13.432 31.819 30.441 33.398 1.613.15 2.838 1.492 2.838 3.112l.002 7.364c0 1.722-1.404 3.127-3.127 3.127h-78.843c-1.722 0-3.127-1.404-3.127-3.126z" fill="#a79ba7"/><path d="m213.494 169.997c.215-1.301 1.224-2.335 2.567-2.56 2.924-.489 7.929-1.574 13.058-4.099-5.416 3.889-11.457 5.749-15.625 6.659zm38.751-51.613 3.755-4.787 9.267 11.815v8.888c0 17.403 13.432 31.819 30.441 33.398 1.613.15 2.838 1.492 2.838 3.112l.002 7.364c0 1.722-1.404 3.127-3.127 3.127h-1.99l.001-.076-.002-7.364c0-1.62-1.225-2.963-2.838-3.112-17.009-1.578-30.441-15.994-30.441-33.397v-8.888z" fill="#837683"/><path d="m212.145 16.001h87.71c3.444 0 6.253 2.809 6.253 6.254v49.732c0 27.56-22.548 61.898-50.109 61.898-27.56 0-50.109-34.338-50.109-61.898v-49.732c.001-3.444 2.81-6.254 6.255-6.254z" fill="#ffe177"/><path d="m290.763 16.001h9.092c3.444 0 6.254 2.809 6.254 6.254v49.732c0 27.56-22.549 61.898-50.109 61.898-1.532 0-3.048-.112-4.546-.317 25.45-3.485 45.563-35.553 45.563-61.581v-49.732c0-3.444-2.809-6.254-6.254-6.254z" fill="#ffd064"/></g></g></svg>