<svg xmlns="http://www.w3.org/2000/svg"  viewBox="0 0 48 48" width="48px" height="48px"><path fill="#FFA726" d="M18.748,20.39c-1.534,0.499-2.368,2.196-1.856,3.774c0.513,1.579,2.185,2.462,3.719,1.964l6.861-2.227c1.532-0.497,2.366-2.194,1.854-3.773s-2.185-2.463-3.716-1.966L18.748,20.39z"/><path fill="#FFA726" d="M19.654 26.438c-1.534.499-2.368 2.196-1.855 3.775s2.185 2.462 3.718 1.964l6.861-2.228c1.533-.498 2.366-2.193 1.854-3.772-.513-1.579-2.184-2.463-3.717-1.966L19.654 26.438zM20.561 32.488c-1.534.498-2.368 2.195-1.856 3.774.513 1.579 2.185 2.462 3.719 1.964L29.285 36c1.532-.498 2.366-2.194 1.854-3.773s-2.184-2.463-3.717-1.966L20.561 32.488z"/><path fill="#FFA726" d="M25.836,19.146c-0.172-0.528,0.117-1.097,0.646-1.267l12.444-4.04c1.058-0.344,2.548-1.885,1.928-3.798c-0.622-1.913-2.834-2.252-3.791-1.941c-0.523,0.17-7.332,2.38-13.401,4.351c-5.032,1.635-9.557,3.103-9.557,3.103c-1.101,0.357-1.772,0.576-1.772,0.576c-4.384,1.423-6.905,5.808-6.222,10.223l0.344,1.483l1.696,5.226l0.594,1.403c2.04,3.974,6.655,6.042,11.04,4.618c0,0,2.874-0.933,1.772-0.575c-1.277,0.415-2.374,0.771,4.774-1.55L25.836,19.146z"/><path fill="#FFCDD2" d="M37.267,9.092c1.125-0.353,2.305,0.219,2.637,1.282c0.33,1.059-0.314,2.206-1.436,2.556C37.343,13.282,36.144,9.444,37.267,9.092"/><path fill="#F44336" d="M36,23c0-1.656,3-6,3-6s3,4.344,3,6s-1.343,3-3,3S36,24.656,36,23z"/></svg>