<svg xmlns="http://www.w3.org/2000/svg" version="1.1" xmlns:xlink="http://www.w3.org/1999/xlink" xmlns:svgjs="http://svgjs.com/svgjs" width="512" height="512" x="0" y="0" viewBox="0 0 64 64" style="enable-background:new 0 0 512 512" xml:space="preserve" class=""><g><path d="M14.4 21.3H57.6c.7 0 1.4.2 2.1.5v-4.6c0-4.5-3.6-8.2-8.1-8.4v4.6c0 1.1-.9 2-2 2s-2-1-2-2V8.8H22.9v4.4c0 1.1-.9 2-2 2s-2-1-2-2V8.8c-4.6 0-8.4 3.8-8.4 8.4v6.7c.6-1.6 2.1-2.6 3.9-2.6zM55.7 47.9c-1.4 2.8-4.2 4.5-7.2 4.5H11c1.2 3.3 4.3 5.6 7.9 5.6h32.4c4.6 0 8.4-3.8 8.4-8.4V37.5c-.3 1.1-.7 2.3-1.1 3.4-.8 2.3-1.8 4.7-2.9 7z" fill="#3273dc" data-original="#000000" opacity="1" class=""></path><path d="M57.6 25.3H14.4c-.2 0-.3.1-.3.3-.6 4.9-1.8 9.7-3.4 14.3C9.9 42 9 44.2 8 46.3c-.4.9.2 2.1 1.3 2.1h39.3c1.5 0 2.9-.9 3.6-2.2 1-2.1 1.9-4.4 2.7-6.6 1.6-4.5 2.6-9.2 3.1-13.9 0-.1 0-.2-.1-.3s-.2-.1-.3-.1zm-15.2 8.1-8.2 8.2c-.8.8-2.1.8-2.8 0l-5.7-5.7c-1.8-1.8 1-4.7 2.8-2.8l4.3 4.3 6.8-6.8c1.8-1.8 4.6 1 2.8 2.8z" fill="#3273dc" data-original="#000000" opacity="1" class=""></path></g></svg>
