<?xml version="1.0" encoding="iso-8859-1"?>
<!-- Generator: Adobe Illustrator 19.0.0, SVG Export Plug-In . SVG Version: 6.00 Build 0)  -->
<svg version="1.1" id="Capa_1" xmlns="http://www.w3.org/2000/svg" xmlns:xlink="http://www.w3.org/1999/xlink" x="0px" y="0px"
	 viewBox="0 0 493.209 493.209" style="enable-background:new 0 0 493.209 493.209;" xml:space="preserve">
<path style="fill:#EF3A47;" d="M416.323,308.177c-4.273-24.843-8.309-48.307-6.933-65.872c4.514-57.586-20.662-88.824-42.577-104.89
	c-1.553-1.138-3.498-1.61-5.397-1.307c-11.12,1.764-39.206,7.168-59.771,19.214c-3.164,1.853-4.435,5.784-2.956,9.138
	c1.601,3.63,3.03,7.367,4.25,11.104c2.57,7.877,4.461,16.337,5.619,25.142c0.834,6.344-1.196,12.687-5.571,17.401
	c-4.429,4.773-10.695,7.295-17.224,6.937c-10.392-0.582-18.944-8.573-20.334-19.002c-0.963-7.226-2.333-13.437-4.072-18.462
	c-2.484-7.18-5.763-13.399-9.742-18.488c-0.035-0.043-0.069-0.088-0.105-0.131c-0.103-0.126-0.202-0.256-0.301-0.384l-0.076-0.099
	c-0.036-0.046-0.072-0.092-0.11-0.138c-9.184-11.296-20.048-14.725-27.42-16.322c-6.047-1.31-14.298-2.385-24.524-3.197
	c-3.223-0.252-6.227,1.667-7.344,4.704c-6.918,18.818-9.263,35.367-9.292,35.571c-1.423,10.681-10.615,18.736-21.383,18.736
	c-0.963,0-1.94-0.064-2.902-0.193c-11.819-1.574-20.15-12.486-18.574-24.32c0.064-0.474,1.604-11.79,5.947-27.271
	c0.019-0.067,0.037-0.136,0.053-0.199c0.144-0.576,0.206-1.153,0.209-1.722c0.318-0.517,0.594-1.067,0.777-1.672v-0.001
	c0.003-0.009,0.005-0.016,0.008-0.025l0.108-0.361c0.204-0.686,0.301-1.38,0.302-2.061c0.001-3.11-2.025-5.982-5.158-6.916
	c-3.464-1.032-7.081,0.663-8.576,3.833c-0.309,0.001-0.623,0.002-0.929,0.004c-1.838,0.009-3.602,0.719-4.935,1.984
	c-26.464,25.139-42.286,66.981-41.291,109.193c0.011,0.432,0.029,0.865,0.049,1.3c0.02,0.444,0.043,0.888,0.042,1.334
	c-0.038,28.333,9.315,60.228,27.048,92.239c16.983,30.655,40.425,59.411,67.792,83.156c22.774,19.761,47.698,35.302,72.078,44.946
	c20.407,8.072,40.299,12.129,59.365,12.129c6.236,0,12.384-0.434,18.433-1.304c35.565-5.114,60.395-17.968,75.907-39.297
	C434.596,414.413,424.888,357.973,416.323,308.177z"/>
<g>
	<path style="fill:#CE3043;" d="M102.512,183.322c-1.576,11.834,6.756,22.746,18.574,24.32c0.962,0.129,1.939,0.193,2.902,0.193
		c7.762,0,14.687-4.197,18.491-10.535c-2.432-4.059-3.567-8.933-2.894-13.979c0.063-0.474,1.604-11.79,5.947-27.271
		c0.019-0.067,0.037-0.136,0.053-0.199c0.144-0.576,0.206-1.153,0.209-1.722c0.318-0.517,0.594-1.067,0.777-1.672v-0.001
		c0.003-0.009,0.005-0.016,0.008-0.025l0.108-0.361c0.204-0.686,0.301-1.38,0.302-2.061c0.001-3.11-2.025-5.982-5.158-6.916
		c-3.464-1.032-7.081,0.663-8.576,3.833c-0.309,0.001-0.623,0.002-0.929,0.004c-1.838,0.009-3.602,0.719-4.935,1.984
		c-9.878,9.383-18.27,21.094-24.862,34.282C102.521,183.254,102.514,183.302,102.512,183.322z"/>
	<path style="fill:#CE3043;" d="M213.95,168.343c0.037,0.045,0.074,0.091,0.11,0.138l0.076,0.099
		c0.099,0.128,0.198,0.258,0.301,0.384c0.036,0.043,0.07,0.087,0.105,0.131c3.98,5.088,7.257,11.308,9.742,18.488
		c1.739,5.025,3.109,11.236,4.072,18.462c1.39,10.429,9.942,18.42,20.334,19.002c6.529,0.358,12.795-2.164,17.224-6.937
		c0.989-1.065,1.851-2.218,2.594-3.431c-1.578-2.567-2.66-5.486-3.079-8.634c-0.963-7.226-2.333-13.437-4.072-18.462
		c-2.484-7.18-5.763-13.399-9.742-18.488c-0.035-0.043-0.069-0.088-0.105-0.131c-0.103-0.126-0.202-0.256-0.301-0.384l-0.076-0.099
		c-0.036-0.046-0.072-0.092-0.11-0.138c-9.184-11.296-20.048-14.725-27.42-16.322c-6.047-1.31-14.298-2.385-24.524-3.197
		c-3.174-0.248-6.127,1.616-7.283,4.572C198.561,155.494,206.765,159.507,213.95,168.343z"/>
	<path style="fill:#CE3043;" d="M416.323,308.177c-4.273-24.843-8.309-48.307-6.933-65.872
		c4.514-57.586-20.662-88.824-42.577-104.89c-1.553-1.138-3.498-1.61-5.397-1.307c-5.52,0.876-15.224,2.65-26.111,5.688
		c20.365,17.121,41.147,47.754,37.012,100.509c-1.377,17.565,2.66,41.03,6.933,65.872c8.565,49.796,18.273,106.236-9.507,144.432
		c-15.513,21.329-40.343,34.183-75.907,39.297c-0.05,0.008-0.101,0.012-0.152,0.019c6.343,0.852,12.611,1.285,18.793,1.285
		c6.236,0,12.384-0.434,18.433-1.304c35.565-5.114,60.395-17.968,75.907-39.297C434.596,414.413,424.888,357.973,416.323,308.177z"
		/>
</g>
<g>
	<path style="fill:#F2CA5A;" d="M249.088,386.997c-20.874-14.234-36.021-30.328-46.989-45.767h18.392
		c3.985,0,7.216-3.231,7.216-7.216c0-3.985-3.231-7.216-7.216-7.216h-27.623c-4.718-8.228-8.299-16.007-10.991-22.894
		c-9.876-25.263-10.447-44.478-10.451-44.669c-0.088-3.979-3.378-7.131-7.362-7.055c-3.984,0.082-7.149,3.377-7.067,7.363
		c0.016,0.793,0.476,18.23,8.778,42.36c-5.213,14.991-8.576,41.863-8.725,43.069c-0.489,3.956,2.322,7.558,6.276,8.047
		c0.301,0.038,0.599,0.056,0.894,0.056c3.591,0,6.702-2.678,7.153-6.332c0.557-4.508,1.883-13.657,3.661-22.697
		c2.094,4.216,4.468,8.593,7.152,13.073c0.204,0.426,0.447,0.828,0.727,1.204c6.299,10.343,14.257,21.2,24.313,31.882
		c-0.623,6.995-1.66,22.656,0.462,32.068c0.756,3.354,3.733,5.632,7.034,5.632c0.525,0,1.059-0.058,1.593-0.178
		c3.888-0.877,6.329-4.739,5.453-8.626c-0.872-3.868-1.012-9.882-0.854-15.703c6.073,5.328,12.726,10.536,20.044,15.526
		c1.243,0.849,2.659,1.255,4.059,1.255c2.305,0,4.571-1.103,5.968-3.151C253.23,393.731,252.382,389.242,249.088,386.997z"/>
	<path style="fill:#F2CA5A;" d="M388.487,266.007c-3.891-5.448-14.797-13.189-20.137-16.802c-2.538-12.653-6.776-25.01-12.66-36.881
		c-0.141-0.348-0.305-0.683-0.496-1.002c-3.56-7.056-7.7-13.936-12.416-20.6c-15.9-22.466-32.581-34.538-33.283-35.04
		c-3.24-2.319-7.748-1.575-10.068,1.667c-2.321,3.241-1.575,7.749,1.666,10.068c0.384,0.275,24.271,17.744,40.624,49.353
		c-1.115,9.04-13.68,23.477-22.824,31.325c-3.025,2.592-3.377,7.145-0.787,10.171c1.427,1.667,3.45,2.525,5.486,2.525
		c1.66,0,3.328-0.57,4.689-1.734c0.283-0.242,6.997-6.013,13.712-13.954c2.98-3.523,5.491-6.923,7.54-10.195
		c5.379,15.465,8.421,33.367,6.77,53.477c-0.326,3.972,2.629,7.457,6.602,7.782c0.201,0.017,0.4,0.025,0.598,0.025
		c3.718,0,6.875-2.855,7.185-6.627c0.567-6.901,0.634-13.776,0.226-20.597c2.774,2.227,4.952,4.198,5.83,5.427
		c1.409,1.972,3.627,3.022,5.878,3.022c1.452,0,2.917-0.437,4.188-1.344C390.052,273.757,390.803,269.25,388.487,266.007z"/>
</g>
<path style="fill:#F77474;" d="M170.628,93.388c-1.21-2.353-3.61-3.855-6.256-3.913c-29.659-0.665-56.39,0.1-61.449,0.261
	c-19.869,0.63-35.523,17.308-34.894,37.178c0.305,9.628,4.336,18.559,11.351,25.149c6.732,6.324,15.442,9.767,24.639,9.767
	c0.395,0,0.791-0.007,1.187-0.019c9.221-0.291,21.695-0.465,33.369-0.465c3.235,0,6.074-2.153,6.949-5.268
	c3.311-11.808,7.343-22.858,11.987-32.843c3.787-8.145,8.048-15.71,12.663-22.482C171.664,98.567,171.839,95.741,170.628,93.388z"/>
<path style="fill:#E55555;" d="M170.175,100.753c1.489-2.186,1.665-5.013,0.454-7.365c-1.21-2.353-3.61-3.855-6.256-3.913
	c-11.148-0.25-21.881-0.298-31.206-0.252c-10.558,14.535-23.09,47.276-25.01,72.503c8.835-0.239,19.945-0.379,30.419-0.379
	c3.235,0,6.074-2.153,6.949-5.268c3.311-11.808,7.343-22.858,11.987-32.843C161.298,115.09,165.559,107.526,170.175,100.753z"/>
<path style="fill:#9B3E2C;" d="M339.504,85.397c-5.949-7.227-12.605-13.659-19.835-19.172l8.581-28.494
	c1.959-6.504,1.267-13.382-1.947-19.366c-3.215-5.985-8.566-10.359-15.07-12.317c-6.505-1.961-13.383-1.268-19.368,1.946
	c-5.984,3.214-10.358,8.566-12.316,15.071l-6.63,22.019c-0.237-0.048-0.472-0.096-0.709-0.143V25.431
	C272.211,11.408,260.803,0,246.78,0c-14.022,0-25.431,11.408-25.431,25.431v20.295c-0.16,0.041-0.319,0.084-0.478,0.126
	l-6.861-22.786C209.966,9.64,195.752,2.007,182.326,6.048c-6.504,1.959-11.857,6.333-15.072,12.317
	c-3.214,5.985-3.906,12.863-1.947,19.366l10.275,34.12c-12.191,11.805-22.661,27.021-31.159,45.298
	c-14.65,31.507-18.968,62.937-19.145,64.262c-2.628,19.726,11.267,37.911,30.973,40.536c1.591,0.213,3.209,0.32,4.809,0.32
	c17.972,0,33.315-13.44,35.683-31.214c0.021-0.151,2.21-15.308,8.513-32.475c0.01-0.025,0.019-0.051,0.029-0.077
	c0.325-0.884,0.664-1.774,1.011-2.666l0.201-0.517c0.358-0.909,0.724-1.823,1.085-2.692c0.011-0.025,0.024-0.056,0.037-0.088
	c0.362-0.868,0.738-1.738,1.123-2.61l0.292-0.658c0.397-0.888,0.801-1.776,1.222-2.661c15.215-32.023,31.253-32.023,36.523-32.023
	c9.17,0,16.842,1.698,23.456,5.191c2.259,1.193,4.979,1.102,7.153-0.237c15.768-9.709,35.336-17.286,58.158-22.523
	c2.437-0.559,4.411-2.34,5.217-4.707C341.57,89.944,341.094,87.329,339.504,85.397z"/>
<path style="fill:#7A232E;" d="M296.34,101.855c-12.645-10.338-29.342-17.624-51.317-17.624
	c-75.792,0-87.816,130.565-87.816,130.565s-0.142,3.034-0.301,7.218c1.381,0.159,2.774,0.255,4.156,0.255
	c17.972,0,33.315-13.44,35.683-31.215c0.021-0.151,2.21-15.308,8.513-32.475c0.01-0.025,0.019-0.051,0.029-0.077
	c0.325-0.884,0.664-1.774,1.011-2.666l0.201-0.517c0.358-0.909,0.724-1.823,1.085-2.692c0.011-0.025,0.024-0.056,0.037-0.088
	c0.362-0.868,0.738-1.738,1.123-2.61l0.293-0.658c0.397-0.888,0.801-1.776,1.222-2.661c15.215-32.023,31.253-32.023,36.523-32.023
	c9.17,0,16.842,1.698,23.456,5.191c2.259,1.193,4.979,1.102,7.153-0.237c7.43-4.574,15.714-8.669,24.774-12.276
	C300.455,105.496,298.521,103.689,296.34,101.855z"/>
<path style="fill:#F77474;" d="M407.431,110.246L407.431,110.246c-1.558-19.815-18.944-34.675-38.771-33.121
	c-6.157,0.484-59.746,5.369-100.434,31.119c-4.884-2.884-10.095-5.405-15.545-7.521c-0.732-0.285-1.507-0.447-2.292-0.482
	c-1.353-0.061-2.501-0.088-3.61-0.088c-20.476,0-36.687,13.17-49.56,40.262c-1.946,4.096-3.791,8.508-5.484,13.113
	c-0.779,2.119-0.522,4.481,0.696,6.382c1.218,1.901,3.255,3.123,5.507,3.302c9.585,0.761,17.193,1.742,22.612,2.915
	c5.675,1.229,12.983,3.62,19.223,11.254l0.014,0.017c0.165,0.215,0.332,0.429,0.503,0.641c2.977,3.82,5.476,8.618,7.429,14.262
	c1.423,4.113,2.569,9.378,3.405,15.649c2.304,17.287,16.534,30.537,33.864,31.507c0.684,0.038,1.365,0.058,2.047,0.058
	c10.062-0.001,19.639-4.159,26.534-11.591c7.307-7.876,10.697-18.482,9.301-29.101c-1.274-9.684-3.363-19.017-6.208-27.737
	c-0.681-2.09-1.422-4.179-2.216-6.253c19.324-9.471,46.257-14.696,59.913-15.821C394.149,147.432,408.986,130.041,407.431,110.246z"
	/>
<g>
	<path style="fill:#E55555;" d="M400.197,110.349c-0.004-0.003-0.006-0.005-0.009-0.008c-52.211,4.954-88.919,19.807-108.501,29.798
		c-9.484,4.84-14.238,15.714-11.38,25.972c4.503,16.168,12.033,50.529,15.958,72.21c6.559-1.728,12.564-5.289,17.303-10.396
		c7.307-7.876,10.697-18.482,9.301-29.101c-1.274-9.684-3.363-19.017-6.208-27.737c-0.681-2.09-1.422-4.179-2.216-6.253
		c19.324-9.471,46.257-14.696,59.913-15.821c19.792-1.581,34.629-18.971,33.073-38.766v-0.001c-0.005-0.067-0.015-0.133-0.021-0.199
		C405.168,110.014,402.772,110.106,400.197,110.349z"/>
	<path style="fill:#E55555;" d="M223.62,166.892c8.003-19.94,31.447-51.924,44.607-58.648c-4.884-2.884-10.095-5.405-15.545-7.521
		c-0.732-0.285-1.507-0.447-2.292-0.482c-1.353-0.061-2.501-0.088-3.61-0.088c-20.476,0-36.687,13.17-49.56,40.262
		c-1.946,4.096-3.791,8.508-5.484,13.113c-0.779,2.119-0.522,4.481,0.696,6.382c1.218,1.901,3.255,3.123,5.507,3.302
		c9.585,0.761,17.193,1.742,22.612,2.915C221.527,166.34,222.558,166.59,223.62,166.892z"/>
</g>
<g>
</g>
<g>
</g>
<g>
</g>
<g>
</g>
<g>
</g>
<g>
</g>
<g>
</g>
<g>
</g>
<g>
</g>
<g>
</g>
<g>
</g>
<g>
</g>
<g>
</g>
<g>
</g>
<g>
</g>
</svg>
