<svg height="512" viewBox="0 0 32 32" width="512" xmlns="http://www.w3.org/2000/svg"><g id="Layer_46" data-name="Layer 46"><path d="m26.8 18-8.47 8.46a2.22 2.22 0 0 1 -3.12 0l-7.28-7.29a.5.5 0 0 1 0-.71.51.51 0 0 1 .71 0l7.27 7.28a1.23 1.23 0 0 0 1.72 0l8.46-8.46c3.48-3.49 2.75-7.39.59-9.55s-6.07-2.9-9.56.59a.51.51 0 0 1 -.7 0c-3.19-3.2-6.58-2.78-8.68-1.32a6.17 6.17 0 0 0 -2.19 7.5h3.25l1.46-6a.79.79 0 0 1 .79-.57.78.78 0 0 1 .71.64l1.88 9.16 1.36-6.1a.75.75 0 0 1 1.46 0l.71 2.81h7a.5.5 0 0 1 0 1h-7a1 1 0 0 1 -1-.78l-.45-1.78-1.34 6.12a.76.76 0 0 1 -.75.59.75.75 0 0 1 -.73-.64l-1.9-9.18-1.2 4.94a1 1 0 0 1 -1 .79h-5.8a.5.5 0 0 1 -.5-.5.5.5 0 0 1 .5-.5h1.47a7.13 7.13 0 0 1 2.7-8.32c2.25-1.56 6.07-2.18 9.6 1.09 3.88-3.57 8.23-2.68 10.61-.27s3.39 7-.58 11z"/></g></svg>