<?xml version="1.0" encoding="iso-8859-1"?>
<!-- Generator: Adobe Illustrator 19.0.0, SVG Export Plug-In . SVG Version: 6.00 Build 0)  -->
<svg version="1.1" id="Capa_1" xmlns="http://www.w3.org/2000/svg" xmlns:xlink="http://www.w3.org/1999/xlink" x="0px" y="0px"
	 viewBox="0 0 511.999 511.999" style="enable-background:new 0 0 511.999 511.999;" xml:space="preserve">
<g>
	<path style="fill:#F0A479;" d="M91.046,338.898c0,16.597-13.456,30.051-30.05,30.051c-16.599,0-30.051-13.454-30.051-30.051
		s13.453-30.05,30.051-30.05C77.59,308.848,91.046,322.302,91.046,338.898z"/>
	<path style="fill:#F0A479;" d="M263.486,294.466c0,20.864-16.914,37.777-37.774,37.777c-20.865,0-37.777-16.913-37.777-37.777
		c0-20.862,16.912-37.775,37.777-37.775C246.572,256.691,263.486,273.603,263.486,294.466z"/>
	<path style="fill:#F0A479;" d="M466.138,247.086c0,24.597-19.941,44.535-44.534,44.535c-24.597,0-44.537-19.938-44.537-44.535
		c0-24.597,19.94-44.535,44.537-44.535C446.197,202.551,466.138,222.489,466.138,247.086z"/>
	<path style="fill:#F0A479;" d="M100.458,392.942H21.532C9.64,392.942,0,402.583,0,414.474c0,5.563,0,44.409,0,49.349
		c0,6.205,5.03,11.236,11.237,11.236h99.517c6.207,0,11.238-5.031,11.238-11.236c0-5.31,0-43.651,0-49.349
		C121.992,402.583,112.35,392.942,100.458,392.942z"/>
	<path style="fill:#F0A479;" d="M275.317,362.404h-99.215c-14.949,0-27.067,12.119-27.067,27.069c0,8.237,0,62.205,0,71.459
		c0,7.803,6.321,14.126,14.124,14.126H288.26c7.8,0,14.126-6.323,14.126-14.126c0-8.242,0-62.206,0-71.459
		C302.387,374.523,290.267,362.404,275.317,362.404z"/>
	<path style="fill:#F0A479;" d="M480.086,327.18H363.117c-17.623,0-31.911,14.287-31.911,31.913c0,10.002,0,88.586,0,99.313
		c0,9.196,7.453,16.653,16.653,16.653h147.486c9.196,0,16.654-7.457,16.654-16.653c0-37.549,0-61.614,0-99.313
		C512,341.467,497.712,327.18,480.086,327.18z"/>
</g>
<g>
	<path style="fill:#EA976E;" d="M71.303,310.663c-19.554-7.138-40.358,7.357-40.358,28.236c0,20.904,20.822,35.367,40.358,28.236
		C45.029,357.54,45.066,320.243,71.303,310.663z"/>
	<path style="fill:#EA976E;" d="M208.55,294.466c0-17.287,11.617-31.852,27.469-36.34c-24.18-6.847-48.083,11.353-48.083,36.34
		c0,25.001,23.91,43.187,48.083,36.342C220.167,326.32,208.55,311.755,208.55,294.466z"/>
	<path style="fill:#EA976E;" d="M397.681,247.086c0-21.047,14.604-38.671,34.229-43.323c-28.041-6.644-54.844,14.613-54.844,43.323
		c0,28.728,26.813,49.966,54.844,43.323C412.286,285.757,397.681,268.133,397.681,247.086z"/>
	<path style="fill:#EA976E;" d="M20.615,463.823c0-43.243,0-41.67,0-49.349c0-11.892,9.64-21.533,21.532-21.533H21.532
		C9.64,392.942,0,402.583,0,414.474c0,5.662,0,44.041,0,49.349c0,6.205,5.03,11.236,11.237,11.236h20.615
		C25.645,475.059,20.615,470.028,20.615,463.823z"/>
	<path style="fill:#EA976E;" d="M169.65,460.932c0-16.612,0-56.228,0-71.459c0-14.95,12.118-27.069,27.067-27.069h-20.615
		c-14.949,0-27.067,12.119-27.067,27.069c0,8.237,0,62.205,0,71.459c0,7.803,6.321,14.126,14.124,14.126h20.615
		C175.972,475.059,169.65,468.735,169.65,460.932z"/>
	<path style="fill:#EA976E;" d="M351.822,458.406c0-33.322,0-66.381,0-99.313c0-17.625,14.287-31.913,31.911-31.913h-20.615
		c-17.623,0-31.911,14.287-31.911,31.913c0,10.002,0,88.586,0,99.313c0,9.196,7.453,16.653,16.653,16.653h20.615
		C359.274,475.059,351.822,467.602,351.822,458.406z"/>
</g>
<g>
	<path style="fill:#E28F6A;" d="M99.157,432.474c0-4.27-3.461-7.731-7.731-7.731c-4.269,0-7.731,3.461-7.731,7.731v42.585h15.461
		v-42.585H99.157z"/>
	<path style="fill:#E28F6A;" d="M20.6,475.059h15.461v-42.585c0-4.27-3.461-7.731-7.731-7.731c-4.269,0-7.731,3.461-7.731,7.731
		L20.6,475.059L20.6,475.059z"/>
	<path style="fill:#E28F6A;" d="M193.042,475.059V408.61c0-4.27-3.461-7.731-7.731-7.731s-7.731,3.461-7.731,7.731v66.449H193.042z"
		/>
	<path style="fill:#E28F6A;" d="M273.838,408.61c0-4.27-3.461-7.731-7.731-7.731c-4.269,0-7.731,3.461-7.731,7.731v66.449h15.461
		L273.838,408.61L273.838,408.61z"/>
	<path style="fill:#E28F6A;" d="M381.707,475.059V377.59c0-4.27-3.461-7.731-7.731-7.731c-4.269,0-7.731,3.461-7.731,7.731v97.469
		H381.707z"/>
	<path style="fill:#E28F6A;" d="M476.958,377.589c0-4.27-3.461-7.731-7.731-7.731c-4.269,0-7.731,3.461-7.731,7.731v97.469h15.461
		L476.958,377.589L476.958,377.589z"/>
</g>
<path style="fill:#EA473B;" d="M470.981,104.745l-7.064-46.134c-1.201-7.848-7.423-13.979-15.305-15.088l-45.61-6.406
	c-9.847-1.378-18.97,5.462-20.359,15.296c-1.389,9.83,5.478,18.923,15.334,20.308l7.057,0.991L290.246,181.087l-125.919-65.395
	c-6.746-3.602-15.039-2.556-20.68,2.601L33.061,220.424c-12.146,11.108-4.116,31.226,12.186,31.226
	c4.351,0,8.715-1.561,12.174-4.725l101.169-93.516l126.035,65.453c6.804,3.629,15.171,2.538,20.807-2.717L433.269,96.599
	l2.078,13.574c1.525,9.964,10.878,16.554,20.537,15.056C465.724,123.73,472.484,114.56,470.981,104.745z"/>
<g>
	<path style="fill:#DB302C;" d="M51.493,227.317l110.585-102.129c3.159-2.888,7.152-4.484,11.237-4.699l-8.988-4.796
		c-6.746-3.602-15.039-2.556-20.68,2.601L33.061,220.424c-13.437,12.289-2.011,34.762,16.089,30.784
		C43.761,243.906,44.643,233.582,51.493,227.317z"/>
	<path style="fill:#DB302C;" d="M413.534,78.948c-0.23-0.071-0.464-0.129-0.688-0.208l0,0c-10.417-3.705-15.175-15.989-9.59-25.792
		l-0.011-0.005c0,0,5.193-10.751,22.464-12.637l-22.708-3.189c-9.847-1.378-18.97,5.462-20.359,15.296
		c-1.389,9.83,5.478,18.923,15.334,20.308l7.057,0.991L290.246,181.087l4.485,1.678c5.732,1.781,15.681,3.594,22.075-2.363
		l98.133-91.845C419.254,84.962,419.192,80.87,413.534,78.948z"/>
</g>
<g>
</g>
<g>
</g>
<g>
</g>
<g>
</g>
<g>
</g>
<g>
</g>
<g>
</g>
<g>
</g>
<g>
</g>
<g>
</g>
<g>
</g>
<g>
</g>
<g>
</g>
<g>
</g>
<g>
</g>
</svg>
