<svg xmlns="http://www.w3.org/2000/svg"  viewBox="0 0 48 48" width="48px" height="48px"><path fill="#ad1457" d="M21.9 41c-.3 0-.5-.1-.7-.3l-14-14c-.4-.4-.4-1 0-1.4s1-.4 1.4 0l14 14c.4.4.4 1 0 1.4C22.4 40.9 22.2 41 21.9 41zM23.9 38c-.3 0-.5-.1-.7-.3l-13-13c-.4-.4-.4-1 0-1.4s1-.4 1.4 0l13 13c.4.4.4 1 0 1.4C24.4 37.9 24.2 38 23.9 38zM24.4 33.5c-.3 0-.5-.1-.7-.3l-9.8-9.8c-.4-.4-.4-1 0-1.4s1-.4 1.4 0l9.8 9.8c.4.4.4 1 0 1.4C24.9 33.4 24.6 33.5 24.4 33.5z"/><path fill="#ad1457" d="M21.9 41c-.3 0-.5-.1-.7-.3l-14-14c-.4-.4-.4-1 0-1.4s1-.4 1.4 0l14 14c.4.4.4 1 0 1.4C22.4 40.9 22.2 41 21.9 41zM23.9 38c-.3 0-.5-.1-.7-.3l-13-13c-.4-.4-.4-1 0-1.4s1-.4 1.4 0l13 13c.4.4.4 1 0 1.4C24.4 37.9 24.2 38 23.9 38zM24.4 33.5c-.3 0-.5-.1-.7-.3l-9.8-9.8c-.4-.4-.4-1 0-1.4s1-.4 1.4 0l9.8 9.8c.4.4.4 1 0 1.4C24.9 33.4 24.6 33.5 24.4 33.5zM23.3 27.6c-.3 0-.5-.1-.7-.3l-4.4-4.4c-.4-.4-.4-1 0-1.4s1-.4 1.4 0l4.4 4.4c.4.4.4 1 0 1.4C23.8 27.5 23.6 27.6 23.3 27.6z"/><path fill="#ad1457" d="M6.8,28.4L4,25.8c5.7-5.8,12.9-5.2,18.8-4c0.6,0.1,1.1,0.2,1.7,0.4c5.8,1.3,11.4,2.4,16.7-2.9 l2.8,2.6c-6.9,6.9-14.3,5.3-20.3,4c-0.5-0.1-1.1-0.2-1.6-0.3C15.5,24.2,11,24.2,6.8,28.4z"/><path fill="#e91e63" d="M35.2 22.9c.7-.2 1.4-.4 2.1-.7L24.6 9.5c-.4-.4-1-.4-1.4 0-.4.4-.4 1 0 1.4L35.2 22.9zM38.6 21.3c.5-.3 1.1-.7 1.6-1.2L26.6 6.5c-.4-.4-1-.4-1.4 0-.4.4-.4 1 0 1.4L38.6 21.3zM30.6 23.2c.9.1 1.9.1 2.8 0L24.2 14c-.4-.4-1-.4-1.4 0s-.4 1 0 1.4L30.6 23.2zM23.8 19.9c-.4.4-.4 1 0 1.4l.9.9c1.2.3 2.4.5 3.5.7l-3-3C24.9 19.5 24.2 19.5 23.8 19.9z"/><path fill="#e91e63" d="M21.9,44l-2.6-2.8c5.4-5.4,4.2-10.9,2.9-16.7c-0.1-0.6-0.2-1.1-0.4-1.7c-1.2-6-2-12.8,4-18.8 l2.6,2.8c-4.2,4.2-4.2,8.8-2.9,15.2c0.1,0.5,0.2,1.1,0.3,1.6C27.2,29.7,28.5,38,21.9,44z"/></svg>