<svg xmlns="http://www.w3.org/2000/svg"  viewBox="0 0 64 64" width="48px" height="48px"><path d="M14 17c3.309 0 6 2.916 6 6.5S17.309 30 14 30s-6-2.916-6-6.5S10.691 17 14 17zM23.246 36.071c-3.464 1.535-6.377 3.921-8.34 6.929H5.585c-1.344 0-2.754-1.135-2.57-2.812C3.521 35.521 8.244 32 14 32 17.876 32 21.278 33.602 23.246 36.071zM60.985 40.181C61.168 41.858 59.749 43 58.409 43c-2.079 0-8.315 0-8.315 0-2.101-3.219-5.288-5.732-9.074-7.245C43.019 33.467 46.291 32 50 32 55.751 32 60.479 35.516 60.985 40.181zM50 17c3.309 0 6 2.916 6 6.5S53.309 30 50 30s-6-2.916-6-6.5S46.691 17 50 17zM47.565 46.613C49.05 49.695 46.597 53 43.431 53c-5.465 0-16.396 0-21.861 0-3.006 0-5.691-3.156-4.135-6.387 2.48-5.15 8.394-8.477 15.065-8.477S45.085 41.463 47.565 46.613zM32 19c4.411 0 8 3.813 8 8.5S36.411 36 32 36s-8-3.813-8-8.5S27.589 19 32 19z"/></svg>
