<svg id="Layer_1" height="512" viewBox="0 0 478.53 512.1" width="512" xmlns="http://www.w3.org/2000/svg" data-name="Layer 1"><g><path d="m478.53 63.41v140.2h-478.53v-140.2c0-16.47 13.36-29.84 29.84-29.84h418.85c16.47 0 29.84 13.36 29.84 29.84z" fill="#ff4343"/><path d="m478.53 203.61v278.65c0 16.47-13.36 29.84-29.84 29.84h-418.85c-16.47 0-29.84-13.36-29.84-29.84v-278.65z" fill="#b8bfc4"/><path d="m0 186.33h478.53v17.29h-478.53z" fill="#db4040"/><g><circle cx="63.82" cy="55.85" fill="#931919" r="11.3"/><path d="m63.82 0c4.41 0 7.98 3.57 7.98 7.98v46.54c0 4.41-3.57 7.98-7.98 7.98-4.41 0-7.98-3.57-7.98-7.98v-46.54c0-4.41 3.57-7.98 7.98-7.98z" fill="#e1efff"/><path d="m63.82 0c4.4 0 7.98 3.58 7.98 7.98v46.54c0 4.4-3.58 7.98-7.98 7.98z" fill="#c1d1d3"/><circle cx="122.33" cy="55.85" fill="#931919" r="11.3"/><path d="m122.33 0c4.41 0 7.98 3.57 7.98 7.98v46.54c0 4.41-3.57 7.98-7.98 7.98-4.41 0-7.98-3.57-7.98-7.98v-46.54c0-4.41 3.57-7.98 7.98-7.98z" fill="#e1efff"/><path d="m122.33 0c4.4 0 7.98 3.58 7.98 7.98v46.54c0 4.4-3.58 7.98-7.98 7.98z" fill="#c1d1d3"/><circle cx="180.84" cy="55.85" fill="#931919" r="11.3"/><path d="m180.84 0c4.41 0 7.98 3.57 7.98 7.98v46.54c0 4.41-3.57 7.98-7.98 7.98-4.41 0-7.98-3.57-7.98-7.98v-46.54c0-4.41 3.57-7.98 7.98-7.98z" fill="#e1efff"/><path d="m180.84 0c4.4 0 7.98 3.58 7.98 7.98v46.54c0 4.4-3.58 7.98-7.98 7.98z" fill="#c1d1d3"/><circle cx="239.34" cy="55.85" fill="#931919" r="11.3"/><path d="m239.34 0c4.41 0 7.98 3.57 7.98 7.98v46.54c0 4.41-3.57 7.98-7.98 7.98-4.41 0-7.98-3.57-7.98-7.98v-46.54c0-4.41 3.57-7.98 7.98-7.98z" fill="#e1efff"/><path d="m239.34 0c4.4 0 7.98 3.58 7.98 7.98v46.54c0 4.4-3.58 7.98-7.98 7.98z" fill="#c1d1d3"/><circle cx="297.85" cy="55.85" fill="#931919" r="11.3"/><path d="m297.85 0c4.41 0 7.98 3.57 7.98 7.98v46.54c0 4.41-3.57 7.98-7.98 7.98-4.41 0-7.98-3.57-7.98-7.98v-46.54c0-4.41 3.57-7.98 7.98-7.98z" fill="#e1efff"/><path d="m297.85 0c4.4 0 7.98 3.58 7.98 7.98v46.54c0 4.4-3.58 7.98-7.98 7.98z" fill="#c1d1d3"/><circle cx="356.35" cy="55.85" fill="#931919" r="11.3"/><path d="m356.35 0c4.41 0 7.98 3.57 7.98 7.98v46.54c0 4.41-3.57 7.98-7.98 7.98-4.41 0-7.98-3.57-7.98-7.98v-46.54c0-4.41 3.57-7.98 7.98-7.98z" fill="#e1efff"/><path d="m356.35 0c4.4 0 7.98 3.58 7.98 7.98v46.54c0 4.4-3.58 7.98-7.98 7.98z" fill="#c1d1d3"/><circle cx="414.86" cy="55.85" fill="#931919" r="11.3"/><path d="m414.86 0c4.41 0 7.98 3.57 7.98 7.98v46.54c0 4.41-3.57 7.98-7.98 7.98-4.41 0-7.98-3.57-7.98-7.98v-46.54c0-4.41 3.57-7.98 7.98-7.98z" fill="#e1efff"/><path d="m414.86 0c4.4 0 7.98 3.58 7.98 7.98v46.54c0 4.4-3.58 7.98-7.98 7.98z" fill="#c1d1d3"/></g><path d="m478.53 203.61v185.9c-11.13 38.44-38.4 66.3-63.67 80.92-44.93 26.01-84.43 33.68-153.33 41.66h-231.69c-16.47 0-29.84-13.36-29.84-29.84v-278.64z" fill="#dce9f4"/><path d="m478.53 203.61v185.9c-14.89 49.89-55.69-7.5-55.69-7.5s-73.8 122.77-161.3 130.08h-231.7c-16.47 0-29.84-13.36-29.84-29.84v-278.64z" fill="#f9f9f9"/><g fill="#fff"><path d="m129.23 163.17c-2.57 0-4.94-.52-7.12-1.57s-3.95-2.52-5.31-4.42l5.59-4.02c.62 1.09 1.53 1.94 2.71 2.55 1.18.6 2.56.9 4.12.9 2.66 0 4.72-.83 6.18-2.48s2.19-3.98 2.19-6.97v-33.2h6.83v33.23c0 5.07-1.32 9-3.97 11.79s-6.39 4.19-11.24 4.19z"/><path d="m166.95 163.17c-4.27 0-7.47-.88-9.6-2.65-2.13-1.76-3.2-4.47-3.2-8.11s.98-6.05 2.93-7.76 4.89-2.56 8.79-2.56h9.88l.47 5.49h-10.32c-1.76 0-3.09.4-3.99 1.19-.89.79-1.34 2-1.34 3.63 0 1.76.59 3.07 1.78 3.92 1.18.85 2.96 1.27 5.33 1.27 2.59 0 4.53-.28 5.83-.84 1.29-.56 1.94-1.43 1.94-2.61l.7 4.89c-.6.94-1.35 1.71-2.24 2.31s-1.92 1.06-3.07 1.36-2.45.45-3.9.45zm8.51-.5v-22.04c0-2.28-.61-4.05-1.83-5.31s-2.94-1.89-5.18-1.89c-1.36 0-2.71.21-4.04.62s-2.52 1.01-3.57 1.79l-4.99-3.42c1.32-1.59 3.05-2.82 5.21-3.7s4.55-1.32 7.19-1.32c4.35 0 7.73 1.13 10.12 3.38 2.39 2.26 3.58 5.44 3.58 9.55v22.35h-6.5z"/><path d="m192.34 162.67v-34.77h6.83v34.77zm21.11 0v-21.07c0-2.46-.63-4.36-1.89-5.7s-3.05-2.01-5.38-2.01-3.96.59-5.18 1.78c-1.22 1.18-1.83 2.85-1.83 4.99l-.7-6.7c1.07-2.1 2.47-3.72 4.2-4.86s3.65-1.71 5.75-1.71c3.77 0 6.69 1.23 8.76 3.7s3.1 5.96 3.1 10.47v21.11z"/><path d="m237.5 127.89v21.14c0 2.43.62 4.32 1.86 5.65s2.99 1.99 5.24 1.99 3.99-.6 5.21-1.79 1.83-2.88 1.83-5.04l.47 7.27c-.63 1.56-1.72 2.96-3.28 4.2s-3.61 1.86-6.13 1.86c-3.84 0-6.81-1.23-8.89-3.7-2.09-2.47-3.13-5.95-3.13-10.44v-21.14h6.83zm14.14 34.77v-34.77h6.8v34.77z"/><path d="m279.95 163.17c-4.27 0-7.47-.88-9.6-2.65-2.13-1.76-3.2-4.47-3.2-8.11s.98-6.05 2.93-7.76 4.88-2.56 8.79-2.56h9.88l.47 5.49h-10.32c-1.76 0-3.09.4-3.99 1.19-.89.79-1.34 2-1.34 3.63 0 1.76.59 3.07 1.78 3.92 1.18.85 2.96 1.27 5.33 1.27 2.59 0 4.53-.28 5.83-.84 1.29-.56 1.94-1.43 1.94-2.61l.7 4.89c-.6.94-1.35 1.71-2.25 2.31s-1.92 1.06-3.07 1.36-2.45.45-3.9.45zm8.51-.5v-22.04c0-2.28-.61-4.05-1.83-5.31s-2.94-1.89-5.18-1.89c-1.36 0-2.71.21-4.04.62s-2.52 1.01-3.57 1.79l-4.99-3.42c1.32-1.59 3.05-2.82 5.21-3.7s4.55-1.32 7.19-1.32c4.35 0 7.73 1.13 10.12 3.38 2.39 2.26 3.58 5.44 3.58 9.55v22.35h-6.5z"/><path d="m305.35 162.67v-34.77h6.83v34.77zm19.13-26.53c-.6-.74-1.36-1.29-2.28-1.68-.92-.38-1.98-.57-3.18-.57-2.17 0-3.85.6-5.04 1.79s-1.79 2.85-1.79 4.97l-.7-6.7c1.05-2.05 2.43-3.66 4.14-4.82s3.59-1.74 5.65-1.74c1.58 0 3.02.23 4.3.69s2.41 1.13 3.37 2.03l-4.46 6.03z"/><path d="m344.81 165.51-13.87-37.62h6.97l10.69 30.22zm9.95-37.62h6.97l-14.81 42.92c-.83 2.39-2.02 4.05-3.58 4.97s-3.71 1.39-6.43 1.39h-1.37v-6.57h1.37c1.27 0 2.28-.26 3.03-.77s1.4-1.4 1.96-2.65l12.86-39.3z"/></g></g><g fill="#182238"><path d="m122.14 431.94v-22.86l65.49-87.32c3.79-4.99 6.74-10.16 8.85-15.5s3.17-10.38 3.17-15.11v-.26c0-7.49-2.2-13.3-6.59-17.44-4.39-4.13-10.64-6.2-18.73-6.2-7.58 0-13.76 2.26-18.54 6.78s-7.69 10.92-8.72 19.18v.13h-27.26v-.13c2.33-16.19 8.22-28.74 17.7-37.65 9.47-8.91 21.66-13.37 36.56-13.37 16.88 0 29.92 4.26 39.14 12.79 9.21 8.53 13.82 20.58 13.82 36.17v.13c0 6.63-1.38 13.58-4.13 20.86-2.76 7.28-6.59 14.23-11.5 20.86l-54.38 73.89h71.05v25.06h-105.93z"/><path d="m251.31 403.14v-22.86l63.04-136.02h27.13l-61.49 134.47h92.1v24.41zm80.99 28.93v-110.57h25.71v110.57z"/></g></svg>