<svg xmlns="http://www.w3.org/2000/svg"  viewBox="0 0 48 48" width="48px" height="48px"><path fill="#E57373" d="M20,27c0,0-6,0.3-6,5c0,3.4,0,9.6,0,13h-3c0-7.4-1-13.3-1-18.2C10,16.2,19,15,19,15h4L20,27z"/><path fill="#D50000" d="M23.4,3C29.5,3,38,7.7,38,22s-6.3,19-12.2,19c-2.3,0-7.8-1.1-7.8-7.6c0-4,2-5.4,2-5.4s-2-2.9-2-6c0-3.9,1.9-4.9,1.9-4.9S17,12.8,17,9.5C17,6,20,3,23.4,3z"/><path fill="#B71C1C" d="M21,34c0-3.7,4-6,4-6s-3-2.3-3-6s3-5,3-5s-5-2.7-5-7c0-3.3,1.1-6.6,2.8-7C19.6,3.4,17,6.2,17,9.5c0,4.9,2.9,7.6,2.9,7.6S18,18.1,18,22c0,3.2,2,6,2,6s-2,1.4-2,5.4c0,6.5,5.5,7.6,7.8,7.6c0.1,0,0.1,0,0.2,0C24.1,40.9,21,38,21,34z"/></svg>