<svg xmlns="http://www.w3.org/2000/svg" version="1.1" xmlns:xlink="http://www.w3.org/1999/xlink" xmlns:svgjs="http://svgjs.dev/svgjs" width="1440" height="560" preserveAspectRatio="none" viewBox="0 0 1440 560"><g mask="url(&quot;#SvgjsMask1696&quot;)" fill="none"><rect width="1440" height="560" x="0" y="0" fill="url(&quot;#SvgjsLinearGradient1697&quot;)"></rect><path d="M-111.58 359.06L-111.58 359.06" stroke="rgba(7, 101, 169, 1)" stroke-width="1.5"></path><path d="M-111.58 359.06L-89.04 502.21" stroke="rgba(7, 101, 169, 1)" stroke-width="1.5"></path><path d="M-111.58 359.06L84.4 365.79" stroke="rgba(7, 101, 169, 1)" stroke-width="1.5"></path><path d="M-111.58 359.06L76.29 524.98" stroke="rgba(7, 101, 169, 1)" stroke-width="1.5"></path><path d="M-111.58 359.06L213.82 382.95" stroke="rgba(7, 101, 169, 1)" stroke-width="1.5"></path><path d="M-111.58 359.06L-98.36 702.02" stroke="rgba(7, 101, 169, 1)" stroke-width="1.5"></path><path d="M-89.04 502.21L-89.04 502.21" stroke="rgba(7, 101, 169, 1)" stroke-width="1.5"></path><path d="M-89.04 502.21L76.29 524.98" stroke="rgba(7, 101, 169, 1)" stroke-width="1.5"></path><path d="M-89.04 502.21L-98.36 702.02" stroke="rgba(7, 101, 169, 1)" stroke-width="1.5"></path><path d="M-89.04 502.21L84.4 365.79" stroke="rgba(7, 101, 169, 1)" stroke-width="1.5"></path><path d="M-89.04 502.21L41.12 683.74" stroke="rgba(7, 101, 169, 1)" stroke-width="1.5"></path><path d="M-89.04 502.21L225.1 533.57" stroke="rgba(7, 101, 169, 1)" stroke-width="1.5"></path><path d="M-98.36 702.02L-98.36 702.02" stroke="rgba(7, 101, 169, 1)" stroke-width="1.5"></path><path d="M-98.36 702.02L41.12 683.74" stroke="rgba(7, 101, 169, 1)" stroke-width="1.5"></path><path d="M-98.36 702.02L76.29 524.98" stroke="rgba(7, 101, 169, 1)" stroke-width="1.5"></path><path d="M-98.36 702.02L247.56 681.55" stroke="rgba(7, 101, 169, 1)" stroke-width="1.5"></path><path d="M-98.36 702.02L225.1 533.57" stroke="rgba(7, 101, 169, 1)" stroke-width="1.5"></path><path d="M84.4 365.79L84.4 365.79" stroke="rgba(7, 101, 169, 1)" stroke-width="1.5"></path><path d="M84.4 365.79L213.82 382.95" stroke="rgba(7, 101, 169, 1)" stroke-width="1.5"></path><path d="M84.4 365.79L76.29 524.98" stroke="rgba(7, 101, 169, 1)" stroke-width="1.5"></path><path d="M76.29 524.98L76.29 524.98" stroke="rgba(7, 101, 169, 1)" stroke-width="1.5"></path><path d="M76.29 524.98L225.1 533.57" stroke="rgba(7, 101, 169, 1)" stroke-width="1.5"></path><path d="M76.29 524.98L41.12 683.74" stroke="rgba(7, 101, 169, 1)" stroke-width="1.5"></path><path d="M41.12 683.74L41.12 683.74" stroke="rgba(7, 101, 169, 1)" stroke-width="1.5"></path><path d="M213.82 382.95L213.82 382.95" stroke="rgba(7, 101, 169, 1)" stroke-width="1.5"></path><path d="M213.82 382.95L340.5 397.82" stroke="rgba(7, 101, 169, 1)" stroke-width="1.5"></path><path d="M213.82 382.95L225.1 533.57" stroke="rgba(7, 101, 169, 1)" stroke-width="1.5"></path><path d="M213.82 382.95L76.29 524.98" stroke="rgba(7, 101, 169, 1)" stroke-width="1.5"></path><path d="M213.82 382.95L388.59 515.44" stroke="rgba(7, 101, 169, 1)" stroke-width="1.5"></path><path d="M225.1 533.57L225.1 533.57" stroke="rgba(7, 101, 169, 1)" stroke-width="1.5"></path><path d="M225.1 533.57L247.56 681.55" stroke="rgba(7, 101, 169, 1)" stroke-width="1.5"></path><path d="M225.1 533.57L388.59 515.44" stroke="rgba(7, 101, 169, 1)" stroke-width="1.5"></path><path d="M225.1 533.57L349.36 645.18" stroke="rgba(7, 101, 169, 1)" stroke-width="1.5"></path><path d="M225.1 533.57L340.5 397.82" stroke="rgba(7, 101, 169, 1)" stroke-width="1.5"></path><path d="M247.56 681.55L247.56 681.55" stroke="rgba(7, 101, 169, 1)" stroke-width="1.5"></path><path d="M247.56 681.55L349.36 645.18" stroke="rgba(7, 101, 169, 1)" stroke-width="1.5"></path><path d="M247.56 681.55L41.12 683.74" stroke="rgba(7, 101, 169, 1)" stroke-width="1.5"></path><path d="M340.5 397.82L340.5 397.82" stroke="rgba(7, 101, 169, 1)" stroke-width="1.5"></path><path d="M340.5 397.82L388.59 515.44" stroke="rgba(7, 101, 169, 1)" stroke-width="1.5"></path><path d="M340.5 397.82L507.75 347.26" stroke="rgba(7, 101, 169, 1)" stroke-width="1.5"></path><path d="M388.59 515.44L388.59 515.44" stroke="rgba(7, 101, 169, 1)" stroke-width="1.5"></path><path d="M388.59 515.44L349.36 645.18" stroke="rgba(7, 101, 169, 1)" stroke-width="1.5"></path><path d="M388.59 515.44L551.26 497.53" stroke="rgba(7, 101, 169, 1)" stroke-width="1.5"></path><path d="M388.59 515.44L507.75 347.26" stroke="rgba(7, 101, 169, 1)" stroke-width="1.5"></path><path d="M388.59 515.44L247.56 681.55" stroke="rgba(7, 101, 169, 1)" stroke-width="1.5"></path><path d="M349.36 645.18L349.36 645.18" stroke="rgba(7, 101, 169, 1)" stroke-width="1.5"></path><path d="M507.75 347.26L507.75 347.26" stroke="rgba(7, 101, 169, 1)" stroke-width="1.5"></path><path d="M507.75 347.26L551.26 497.53" stroke="rgba(7, 101, 169, 1)" stroke-width="1.5"></path><path d="M507.75 347.26L669.18 372.74" stroke="rgba(7, 101, 169, 1)" stroke-width="1.5"></path><path d="M551.26 497.53L551.26 497.53" stroke="rgba(7, 101, 169, 1)" stroke-width="1.5"></path><path d="M551.26 497.53L675.76 537.98" stroke="rgba(7, 101, 169, 1)" stroke-width="1.5"></path><path d="M551.26 497.53L669.18 372.74" stroke="rgba(7, 101, 169, 1)" stroke-width="1.5"></path><path d="M517.85 704.9L517.85 704.9" stroke="rgba(7, 101, 169, 1)" stroke-width="1.5"></path><path d="M517.85 704.9L675.83 709.3" stroke="rgba(7, 101, 169, 1)" stroke-width="1.5"></path><path d="M517.85 704.9L349.36 645.18" stroke="rgba(7, 101, 169, 1)" stroke-width="1.5"></path><path d="M704.39 253.3L704.39 253.3" stroke="rgba(7, 101, 169, 1)" stroke-width="1.5"></path><path d="M704.39 253.3L795.03 250.61" stroke="rgba(7, 101, 169, 1)" stroke-width="1.5"></path><path d="M704.39 253.3L669.18 372.74" stroke="rgba(7, 101, 169, 1)" stroke-width="1.5"></path><path d="M704.39 253.3L792.59 369.76" stroke="rgba(7, 101, 169, 1)" stroke-width="1.5"></path><path d="M704.39 253.3L507.75 347.26" stroke="rgba(7, 101, 169, 1)" stroke-width="1.5"></path><path d="M669.18 372.74L669.18 372.74" stroke="rgba(7, 101, 169, 1)" stroke-width="1.5"></path><path d="M669.18 372.74L792.59 369.76" stroke="rgba(7, 101, 169, 1)" stroke-width="1.5"></path><path d="M669.18 372.74L675.76 537.98" stroke="rgba(7, 101, 169, 1)" stroke-width="1.5"></path><path d="M669.18 372.74L795.03 250.61" stroke="rgba(7, 101, 169, 1)" stroke-width="1.5"></path><path d="M675.76 537.98L675.76 537.98" stroke="rgba(7, 101, 169, 1)" stroke-width="1.5"></path><path d="M675.76 537.98L795.32 547.91" stroke="rgba(7, 101, 169, 1)" stroke-width="1.5"></path><path d="M675.76 537.98L675.83 709.3" stroke="rgba(7, 101, 169, 1)" stroke-width="1.5"></path><path d="M675.76 537.98L811.06 647.85" stroke="rgba(7, 101, 169, 1)" stroke-width="1.5"></path><path d="M675.83 709.3L675.83 709.3" stroke="rgba(7, 101, 169, 1)" stroke-width="1.5"></path><path d="M675.83 709.3L811.06 647.85" stroke="rgba(7, 101, 169, 1)" stroke-width="1.5"></path><path d="M795.03 250.61L795.03 250.61" stroke="rgba(7, 101, 169, 1)" stroke-width="1.5"></path><path d="M795.03 250.61L792.59 369.76" stroke="rgba(7, 101, 169, 1)" stroke-width="1.5"></path><path d="M795.03 250.61L938.4 189.62" stroke="rgba(7, 101, 169, 1)" stroke-width="1.5"></path><path d="M792.59 369.76L792.59 369.76" stroke="rgba(7, 101, 169, 1)" stroke-width="1.5"></path><path d="M795.32 547.91L795.32 547.91" stroke="rgba(7, 101, 169, 1)" stroke-width="1.5"></path><path d="M795.32 547.91L811.06 647.85" stroke="rgba(7, 101, 169, 1)" stroke-width="1.5"></path><path d="M795.32 547.91L792.59 369.76" stroke="rgba(7, 101, 169, 1)" stroke-width="1.5"></path><path d="M795.32 547.91L975.34 559.88" stroke="rgba(7, 101, 169, 1)" stroke-width="1.5"></path><path d="M795.32 547.91L675.83 709.3" stroke="rgba(7, 101, 169, 1)" stroke-width="1.5"></path><path d="M811.06 647.85L811.06 647.85" stroke="rgba(7, 101, 169, 1)" stroke-width="1.5"></path><path d="M811.06 647.85L975.34 559.88" stroke="rgba(7, 101, 169, 1)" stroke-width="1.5"></path><path d="M1006.75 72.64L1006.75 72.64" stroke="rgba(7, 101, 169, 1)" stroke-width="1.5"></path><path d="M1006.75 72.64L1116.84 91.29" stroke="rgba(7, 101, 169, 1)" stroke-width="1.5"></path><path d="M1006.75 72.64L938.4 189.62" stroke="rgba(7, 101, 169, 1)" stroke-width="1.5"></path><path d="M1006.75 72.64L1125.67 -75.31" stroke="rgba(7, 101, 169, 1)" stroke-width="1.5"></path><path d="M1006.75 72.64L1149.14 213.22" stroke="rgba(7, 101, 169, 1)" stroke-width="1.5"></path><path d="M938.4 189.62L938.4 189.62" stroke="rgba(7, 101, 169, 1)" stroke-width="1.5"></path><path d="M938.4 189.62L1116.84 91.29" stroke="rgba(7, 101, 169, 1)" stroke-width="1.5"></path><path d="M944.04 407.65L944.04 407.65" stroke="rgba(7, 101, 169, 1)" stroke-width="1.5"></path><path d="M944.04 407.65L975.34 559.88" stroke="rgba(7, 101, 169, 1)" stroke-width="1.5"></path><path d="M944.04 407.65L792.59 369.76" stroke="rgba(7, 101, 169, 1)" stroke-width="1.5"></path><path d="M944.04 407.65L1112.07 392.8" stroke="rgba(7, 101, 169, 1)" stroke-width="1.5"></path><path d="M944.04 407.65L1102.96 530.81" stroke="rgba(7, 101, 169, 1)" stroke-width="1.5"></path><path d="M975.34 559.88L975.34 559.88" stroke="rgba(7, 101, 169, 1)" stroke-width="1.5"></path><path d="M975.34 559.88L1102.96 530.81" stroke="rgba(7, 101, 169, 1)" stroke-width="1.5"></path><path d="M1125.67 -75.31L1125.67 -75.31" stroke="rgba(7, 101, 169, 1)" stroke-width="1.5"></path><path d="M1125.67 -75.31L1266.79 -89.09" stroke="rgba(7, 101, 169, 1)" stroke-width="1.5"></path><path d="M1125.67 -75.31L1116.84 91.29" stroke="rgba(7, 101, 169, 1)" stroke-width="1.5"></path><path d="M1125.67 -75.31L1287.79 99.96" stroke="rgba(7, 101, 169, 1)" stroke-width="1.5"></path><path d="M1116.84 91.29L1116.84 91.29" stroke="rgba(7, 101, 169, 1)" stroke-width="1.5"></path><path d="M1116.84 91.29L1149.14 213.22" stroke="rgba(7, 101, 169, 1)" stroke-width="1.5"></path><path d="M1116.84 91.29L1287.79 99.96" stroke="rgba(7, 101, 169, 1)" stroke-width="1.5"></path><path d="M1149.14 213.22L1149.14 213.22" stroke="rgba(7, 101, 169, 1)" stroke-width="1.5"></path><path d="M1149.14 213.22L1305.32 188.44" stroke="rgba(7, 101, 169, 1)" stroke-width="1.5"></path><path d="M1149.14 213.22L1243.49 364.91" stroke="rgba(7, 101, 169, 1)" stroke-width="1.5"></path><path d="M1112.07 392.8L1112.07 392.8" stroke="rgba(7, 101, 169, 1)" stroke-width="1.5"></path><path d="M1112.07 392.8L1243.49 364.91" stroke="rgba(7, 101, 169, 1)" stroke-width="1.5"></path><path d="M1112.07 392.8L1102.96 530.81" stroke="rgba(7, 101, 169, 1)" stroke-width="1.5"></path><path d="M1112.07 392.8L1240.8 517.45" stroke="rgba(7, 101, 169, 1)" stroke-width="1.5"></path><path d="M1112.07 392.8L1149.14 213.22" stroke="rgba(7, 101, 169, 1)" stroke-width="1.5"></path><path d="M1102.96 530.81L1102.96 530.81" stroke="rgba(7, 101, 169, 1)" stroke-width="1.5"></path><path d="M1154.59 698.82L1154.59 698.82" stroke="rgba(7, 101, 169, 1)" stroke-width="1.5"></path><path d="M1154.59 698.82L1276.79 702.6" stroke="rgba(7, 101, 169, 1)" stroke-width="1.5"></path><path d="M1154.59 698.82L1102.96 530.81" stroke="rgba(7, 101, 169, 1)" stroke-width="1.5"></path><path d="M1154.59 698.82L1240.8 517.45" stroke="rgba(7, 101, 169, 1)" stroke-width="1.5"></path><path d="M1154.59 698.82L975.34 559.88" stroke="rgba(7, 101, 169, 1)" stroke-width="1.5"></path><path d="M1154.59 698.82L1424.62 700.65" stroke="rgba(7, 101, 169, 1)" stroke-width="1.5"></path><path d="M1266.79 -89.09L1266.79 -89.09" stroke="rgba(7, 101, 169, 1)" stroke-width="1.5"></path><path d="M1266.79 -89.09L1394.06 -108.16" stroke="rgba(7, 101, 169, 1)" stroke-width="1.5"></path><path d="M1287.79 99.96L1287.79 99.96" stroke="rgba(7, 101, 169, 1)" stroke-width="1.5"></path><path d="M1287.79 99.96L1305.32 188.44" stroke="rgba(7, 101, 169, 1)" stroke-width="1.5"></path><path d="M1287.79 99.96L1445.26 70.22" stroke="rgba(7, 101, 169, 1)" stroke-width="1.5"></path><path d="M1287.79 99.96L1149.14 213.22" stroke="rgba(7, 101, 169, 1)" stroke-width="1.5"></path><path d="M1287.79 99.96L1266.79 -89.09" stroke="rgba(7, 101, 169, 1)" stroke-width="1.5"></path><path d="M1287.79 99.96L1457.87 216.58" stroke="rgba(7, 101, 169, 1)" stroke-width="1.5"></path><path d="M1305.32 188.44L1305.32 188.44" stroke="rgba(7, 101, 169, 1)" stroke-width="1.5"></path><path d="M1305.32 188.44L1457.87 216.58" stroke="rgba(7, 101, 169, 1)" stroke-width="1.5"></path><path d="M1305.32 188.44L1445.26 70.22" stroke="rgba(7, 101, 169, 1)" stroke-width="1.5"></path><path d="M1305.32 188.44L1243.49 364.91" stroke="rgba(7, 101, 169, 1)" stroke-width="1.5"></path><path d="M1243.49 364.91L1243.49 364.91" stroke="rgba(7, 101, 169, 1)" stroke-width="1.5"></path><path d="M1243.49 364.91L1240.8 517.45" stroke="rgba(7, 101, 169, 1)" stroke-width="1.5"></path><path d="M1243.49 364.91L1419.15 360.38" stroke="rgba(7, 101, 169, 1)" stroke-width="1.5"></path><path d="M1243.49 364.91L1102.96 530.81" stroke="rgba(7, 101, 169, 1)" stroke-width="1.5"></path><path d="M1240.8 517.45L1240.8 517.45" stroke="rgba(7, 101, 169, 1)" stroke-width="1.5"></path><path d="M1240.8 517.45L1102.96 530.81" stroke="rgba(7, 101, 169, 1)" stroke-width="1.5"></path><path d="M1240.8 517.45L1402.89 514.75" stroke="rgba(7, 101, 169, 1)" stroke-width="1.5"></path><path d="M1240.8 517.45L1276.79 702.6" stroke="rgba(7, 101, 169, 1)" stroke-width="1.5"></path><path d="M1276.79 702.6L1276.79 702.6" stroke="rgba(7, 101, 169, 1)" stroke-width="1.5"></path><path d="M1276.79 702.6L1424.62 700.65" stroke="rgba(7, 101, 169, 1)" stroke-width="1.5"></path><path d="M1276.79 702.6L1402.89 514.75" stroke="rgba(7, 101, 169, 1)" stroke-width="1.5"></path><path d="M1276.79 702.6L1102.96 530.81" stroke="rgba(7, 101, 169, 1)" stroke-width="1.5"></path><path d="M1276.79 702.6L1583.74 704.92" stroke="rgba(7, 101, 169, 1)" stroke-width="1.5"></path><path d="M1394.06 -108.16L1394.06 -108.16" stroke="rgba(7, 101, 169, 1)" stroke-width="1.5"></path><path d="M1394.06 -108.16L1445.26 70.22" stroke="rgba(7, 101, 169, 1)" stroke-width="1.5"></path><path d="M1394.06 -108.16L1611.17 -59.83" stroke="rgba(7, 101, 169, 1)" stroke-width="1.5"></path><path d="M1394.06 -108.16L1559.8 49.46" stroke="rgba(7, 101, 169, 1)" stroke-width="1.5"></path><path d="M1394.06 -108.16L1287.79 99.96" stroke="rgba(7, 101, 169, 1)" stroke-width="1.5"></path><path d="M1394.06 -108.16L1125.67 -75.31" stroke="rgba(7, 101, 169, 1)" stroke-width="1.5"></path><path d="M1445.26 70.22L1445.26 70.22" stroke="rgba(7, 101, 169, 1)" stroke-width="1.5"></path><path d="M1445.26 70.22L1559.8 49.46" stroke="rgba(7, 101, 169, 1)" stroke-width="1.5"></path><path d="M1445.26 70.22L1457.87 216.58" stroke="rgba(7, 101, 169, 1)" stroke-width="1.5"></path><path d="M1457.87 216.58L1457.87 216.58" stroke="rgba(7, 101, 169, 1)" stroke-width="1.5"></path><path d="M1457.87 216.58L1548.48 251.73" stroke="rgba(7, 101, 169, 1)" stroke-width="1.5"></path><path d="M1419.15 360.38L1419.15 360.38" stroke="rgba(7, 101, 169, 1)" stroke-width="1.5"></path><path d="M1419.15 360.38L1457.87 216.58" stroke="rgba(7, 101, 169, 1)" stroke-width="1.5"></path><path d="M1419.15 360.38L1402.89 514.75" stroke="rgba(7, 101, 169, 1)" stroke-width="1.5"></path><path d="M1402.89 514.75L1402.89 514.75" stroke="rgba(7, 101, 169, 1)" stroke-width="1.5"></path><path d="M1402.89 514.75L1561.23 496.24" stroke="rgba(7, 101, 169, 1)" stroke-width="1.5"></path><path d="M1402.89 514.75L1424.62 700.65" stroke="rgba(7, 101, 169, 1)" stroke-width="1.5"></path><path d="M1402.89 514.75L1576.2 401.69" stroke="rgba(7, 101, 169, 1)" stroke-width="1.5"></path><path d="M1424.62 700.65L1424.62 700.65" stroke="rgba(7, 101, 169, 1)" stroke-width="1.5"></path><path d="M1611.17 -59.83L1611.17 -59.83" stroke="rgba(7, 101, 169, 1)" stroke-width="1.5"></path><path d="M1611.17 -59.83L1559.8 49.46" stroke="rgba(7, 101, 169, 1)" stroke-width="1.5"></path><path d="M1611.17 -59.83L1445.26 70.22" stroke="rgba(7, 101, 169, 1)" stroke-width="1.5"></path><path d="M1559.8 49.46L1559.8 49.46" stroke="rgba(7, 101, 169, 1)" stroke-width="1.5"></path><path d="M1548.48 251.73L1548.48 251.73" stroke="rgba(7, 101, 169, 1)" stroke-width="1.5"></path><path d="M1548.48 251.73L1576.2 401.69" stroke="rgba(7, 101, 169, 1)" stroke-width="1.5"></path><path d="M1548.48 251.73L1419.15 360.38" stroke="rgba(7, 101, 169, 1)" stroke-width="1.5"></path><path d="M1548.48 251.73L1559.8 49.46" stroke="rgba(7, 101, 169, 1)" stroke-width="1.5"></path><path d="M1548.48 251.73L1445.26 70.22" stroke="rgba(7, 101, 169, 1)" stroke-width="1.5"></path><path d="M1576.2 401.69L1576.2 401.69" stroke="rgba(7, 101, 169, 1)" stroke-width="1.5"></path><path d="M1576.2 401.69L1561.23 496.24" stroke="rgba(7, 101, 169, 1)" stroke-width="1.5"></path><path d="M1576.2 401.69L1419.15 360.38" stroke="rgba(7, 101, 169, 1)" stroke-width="1.5"></path><path d="M1561.23 496.24L1561.23 496.24" stroke="rgba(7, 101, 169, 1)" stroke-width="1.5"></path><path d="M1583.74 704.92L1583.74 704.92" stroke="rgba(7, 101, 169, 1)" stroke-width="1.5"></path><path d="M1583.74 704.92L1424.62 700.65" stroke="rgba(7, 101, 169, 1)" stroke-width="1.5"></path><path d="M1583.74 704.92L1561.23 496.24" stroke="rgba(7, 101, 169, 1)" stroke-width="1.5"></path><path d="M1583.74 704.92L1402.89 514.75" stroke="rgba(7, 101, 169, 1)" stroke-width="1.5"></path><circle r="5" cx="-111.58" cy="359.06" fill="rgba(7, 101, 169, 1)"></circle><circle r="5" cx="-89.04" cy="502.21" fill="rgba(7, 101, 169, 1)"></circle><circle r="5" cx="-98.36" cy="702.02" fill="rgba(7, 101, 169, 1)"></circle><circle r="5" cx="84.4" cy="365.79" fill="rgba(7, 101, 169, 1)"></circle><circle r="5" cx="76.29" cy="524.98" fill="rgba(7, 101, 169, 1)"></circle><circle r="5" cx="41.12" cy="683.74" fill="rgba(7, 101, 169, 1)"></circle><circle r="5" cx="213.82" cy="382.95" fill="rgba(7, 101, 169, 1)"></circle><circle r="5" cx="225.1" cy="533.57" fill="rgba(7, 101, 169, 1)"></circle><circle r="5" cx="247.56" cy="681.55" fill="rgba(7, 101, 169, 1)"></circle><circle r="5" cx="340.5" cy="397.82" fill="rgba(7, 101, 169, 1)"></circle><circle r="5" cx="388.59" cy="515.44" fill="rgba(7, 101, 169, 1)"></circle><circle r="5" cx="349.36" cy="645.18" fill="rgba(7, 101, 169, 1)"></circle><circle r="5" cx="507.75" cy="347.26" fill="rgba(7, 101, 169, 1)"></circle><circle r="5" cx="551.26" cy="497.53" fill="rgba(7, 101, 169, 1)"></circle><circle r="5" cx="517.85" cy="704.9" fill="rgba(7, 101, 169, 1)"></circle><circle r="5" cx="704.39" cy="253.3" fill="rgba(7, 101, 169, 1)"></circle><circle r="5" cx="669.18" cy="372.74" fill="rgba(7, 101, 169, 1)"></circle><circle r="5" cx="675.76" cy="537.98" fill="rgba(7, 101, 169, 1)"></circle><circle r="5" cx="675.83" cy="709.3" fill="rgba(7, 101, 169, 1)"></circle><circle r="5" cx="795.03" cy="250.61" fill="rgba(7, 101, 169, 1)"></circle><circle r="5" cx="792.59" cy="369.76" fill="rgba(7, 101, 169, 1)"></circle><circle r="5" cx="795.32" cy="547.91" fill="rgba(7, 101, 169, 1)"></circle><circle r="5" cx="811.06" cy="647.85" fill="rgba(7, 101, 169, 1)"></circle><circle r="5" cx="1006.75" cy="72.64" fill="rgba(7, 101, 169, 1)"></circle><circle r="5" cx="938.4" cy="189.62" fill="rgba(7, 101, 169, 1)"></circle><circle r="5" cx="944.04" cy="407.65" fill="rgba(7, 101, 169, 1)"></circle><circle r="5" cx="975.34" cy="559.88" fill="rgba(7, 101, 169, 1)"></circle><circle r="5" cx="1125.67" cy="-75.31" fill="rgba(7, 101, 169, 1)"></circle><circle r="5" cx="1116.84" cy="91.29" fill="rgba(7, 101, 169, 1)"></circle><circle r="5" cx="1149.14" cy="213.22" fill="rgba(7, 101, 169, 1)"></circle><circle r="5" cx="1112.07" cy="392.8" fill="rgba(7, 101, 169, 1)"></circle><circle r="5" cx="1102.96" cy="530.81" fill="rgba(7, 101, 169, 1)"></circle><circle r="5" cx="1154.59" cy="698.82" fill="rgba(7, 101, 169, 1)"></circle><circle r="5" cx="1266.79" cy="-89.09" fill="rgba(7, 101, 169, 1)"></circle><circle r="5" cx="1287.79" cy="99.96" fill="rgba(7, 101, 169, 1)"></circle><circle r="5" cx="1305.32" cy="188.44" fill="rgba(7, 101, 169, 1)"></circle><circle r="5" cx="1243.49" cy="364.91" fill="rgba(7, 101, 169, 1)"></circle><circle r="5" cx="1240.8" cy="517.45" fill="rgba(7, 101, 169, 1)"></circle><circle r="5" cx="1276.79" cy="702.6" fill="rgba(7, 101, 169, 1)"></circle><circle r="5" cx="1394.06" cy="-108.16" fill="rgba(7, 101, 169, 1)"></circle><circle r="5" cx="1445.26" cy="70.22" fill="rgba(7, 101, 169, 1)"></circle><circle r="5" cx="1457.87" cy="216.58" fill="rgba(7, 101, 169, 1)"></circle><circle r="5" cx="1419.15" cy="360.38" fill="rgba(7, 101, 169, 1)"></circle><circle r="5" cx="1402.89" cy="514.75" fill="rgba(7, 101, 169, 1)"></circle><circle r="5" cx="1424.62" cy="700.65" fill="rgba(7, 101, 169, 1)"></circle><circle r="5" cx="1611.17" cy="-59.83" fill="rgba(7, 101, 169, 1)"></circle><circle r="5" cx="1559.8" cy="49.46" fill="rgba(7, 101, 169, 1)"></circle><circle r="5" cx="1548.48" cy="251.73" fill="rgba(7, 101, 169, 1)"></circle><circle r="5" cx="1576.2" cy="401.69" fill="rgba(7, 101, 169, 1)"></circle><circle r="5" cx="1561.23" cy="496.24" fill="rgba(7, 101, 169, 1)"></circle><circle r="5" cx="1583.74" cy="704.92" fill="rgba(7, 101, 169, 1)"></circle><path d="M347.02 664.51L347.02 664.51" stroke="hsl(300, 0.7%, 35.4%)" stroke-width="1.5"></path><path d="M347.02 664.51L260.23 657.77" stroke="hsl(300, 0.7%, 35.4%)" stroke-width="1.5"></path><path d="M347.02 664.51L377.63 508.64" stroke="hsl(300, 0.7%, 35.4%)" stroke-width="1.5"></path><path d="M347.02 664.51L188.18 543.65" stroke="hsl(300, 0.7%, 35.4%)" stroke-width="1.5"></path><path d="M347.02 664.51L560.6 691.88" stroke="hsl(300, 0.7%, 35.4%)" stroke-width="1.5"></path><path d="M347.02 664.51L540.06 549.74" stroke="hsl(300, 0.7%, 35.4%)" stroke-width="1.5"></path><path d="M347.02 664.51L88.88 705.93" stroke="hsl(300, 0.7%, 35.4%)" stroke-width="1.5"></path><path d="M860.94 361.79L860.94 361.79" stroke="hsl(300, 0.7%, 35.4%)" stroke-width="1.5"></path><path d="M860.94 361.79L982.34 380.6" stroke="hsl(300, 0.7%, 35.4%)" stroke-width="1.5"></path><path d="M860.94 361.79L697.67 359.98" stroke="hsl(300, 0.7%, 35.4%)" stroke-width="1.5"></path><path d="M860.94 361.79L1002.04 247.37" stroke="hsl(300, 0.7%, 35.4%)" stroke-width="1.5"></path><path d="M1090.89 555.08L1090.89 555.08" stroke="hsl(300, 0.7%, 35.4%)" stroke-width="1.5"></path><path d="M1090.89 555.08L1002.77 558.49" stroke="hsl(300, 0.7%, 35.4%)" stroke-width="1.5"></path><path d="M1090.89 555.08L1121.56 660.04" stroke="hsl(300, 0.7%, 35.4%)" stroke-width="1.5"></path><path d="M1298.09 -100.45L1298.09 -100.45" stroke="hsl(300, 0.7%, 35.4%)" stroke-width="1.5"></path><path d="M1298.09 -100.45L1410.12 -81.85" stroke="hsl(300, 0.7%, 35.4%)" stroke-width="1.5"></path><path d="M1298.09 -100.45L1264.26 64.36" stroke="hsl(300, 0.7%, 35.4%)" stroke-width="1.5"></path><path d="M1298.09 -100.45L1389.58 71.97" stroke="hsl(300, 0.7%, 35.4%)" stroke-width="1.5"></path><path d="M1298.09 -100.45L1158.12 94.14" stroke="hsl(300, 0.7%, 35.4%)" stroke-width="1.5"></path><path d="M1410.12 -81.85L1410.12 -81.85" stroke="hsl(300, 0.7%, 35.4%)" stroke-width="1.5"></path><path d="M1410.12 -81.85L1389.58 71.97" stroke="hsl(300, 0.7%, 35.4%)" stroke-width="1.5"></path><path d="M1410.12 -81.85L1591.02 -77.07" stroke="hsl(300, 0.7%, 35.4%)" stroke-width="1.5"></path><path d="M1410.12 -81.85L1264.26 64.36" stroke="hsl(300, 0.7%, 35.4%)" stroke-width="1.5"></path><path d="M1389.58 71.97L1389.58 71.97" stroke="hsl(300, 0.7%, 35.4%)" stroke-width="1.5"></path><path d="M1389.58 71.97L1264.26 64.36" stroke="hsl(300, 0.7%, 35.4%)" stroke-width="1.5"></path><path d="M1389.58 71.97L1458.75 209.63" stroke="hsl(300, 0.7%, 35.4%)" stroke-width="1.5"></path><path d="M1398.01 493.94L1398.01 493.94" stroke="hsl(300, 0.7%, 35.4%)" stroke-width="1.5"></path><path d="M1398.01 493.94L1298.57 507.14" stroke="hsl(300, 0.7%, 35.4%)" stroke-width="1.5"></path><path d="M1398.01 493.94L1399.48 366.12" stroke="hsl(300, 0.7%, 35.4%)" stroke-width="1.5"></path><path d="M1398.01 493.94L1546.79 394.22" stroke="hsl(300, 0.7%, 35.4%)" stroke-width="1.5"></path><path d="M1446.28 670.44L1446.28 670.44" stroke="hsl(300, 0.7%, 35.4%)" stroke-width="1.5"></path><path d="M1446.28 670.44L1557.03 709.51" stroke="hsl(300, 0.7%, 35.4%)" stroke-width="1.5"></path><path d="M1446.28 670.44L1398.01 493.94" stroke="hsl(300, 0.7%, 35.4%)" stroke-width="1.5"></path><path d="M1446.28 670.44L1253.12 665.95" stroke="hsl(300, 0.7%, 35.4%)" stroke-width="1.5"></path><path d="M1567.25 96.56L1567.25 96.56" stroke="hsl(300, 0.7%, 35.4%)" stroke-width="1.5"></path><path d="M1567.25 96.56L1604.83 229.45" stroke="hsl(300, 0.7%, 35.4%)" stroke-width="1.5"></path><path d="M1567.25 96.56L1458.75 209.63" stroke="hsl(300, 0.7%, 35.4%)" stroke-width="1.5"></path><path d="M1567.25 96.56L1591.02 -77.07" stroke="hsl(300, 0.7%, 35.4%)" stroke-width="1.5"></path><path d="M1546.79 394.22L1546.79 394.22" stroke="hsl(300, 0.7%, 35.4%)" stroke-width="1.5"></path><path d="M1546.79 394.22L1399.48 366.12" stroke="hsl(300, 0.7%, 35.4%)" stroke-width="1.5"></path><path d="M1546.79 394.22L1598.22 546.28" stroke="hsl(300, 0.7%, 35.4%)" stroke-width="1.5"></path><path d="M1546.79 394.22L1604.83 229.45" stroke="hsl(300, 0.7%, 35.4%)" stroke-width="1.5"></path><path d="M1546.79 394.22L1458.75 209.63" stroke="hsl(300, 0.7%, 35.4%)" stroke-width="1.5"></path><path d="M1546.79 394.22L1298.57 507.14" stroke="hsl(300, 0.7%, 35.4%)" stroke-width="1.5"></path><path d="M-69.41 527.86L-69.41 527.86" stroke="hsl(300, 0.7%, 35.4%)" stroke-width="1.5"></path><path d="M-69.41 527.86L88.88 705.93" stroke="hsl(300, 0.7%, 35.4%)" stroke-width="1.5"></path><path d="M-69.41 527.86L188.18 543.65" stroke="hsl(300, 0.7%, 35.4%)" stroke-width="1.5"></path><path d="M-69.41 527.86L260.23 657.77" stroke="hsl(300, 0.7%, 35.4%)" stroke-width="1.5"></path><path d="M-69.41 527.86L347.02 664.51" stroke="hsl(300, 0.7%, 35.4%)" stroke-width="1.5"></path><path d="M-69.41 527.86L377.63 508.64" stroke="hsl(300, 0.7%, 35.4%)" stroke-width="1.5"></path><path d="M88.88 705.93L88.88 705.93" stroke="hsl(300, 0.7%, 35.4%)" stroke-width="1.5"></path><path d="M88.88 705.93L260.23 657.77" stroke="hsl(300, 0.7%, 35.4%)" stroke-width="1.5"></path><path d="M88.88 705.93L188.18 543.65" stroke="hsl(300, 0.7%, 35.4%)" stroke-width="1.5"></path><path d="M88.88 705.93L377.63 508.64" stroke="hsl(300, 0.7%, 35.4%)" stroke-width="1.5"></path><path d="M88.88 705.93L560.6 691.88" stroke="hsl(300, 0.7%, 35.4%)" stroke-width="1.5"></path><path d="M188.18 543.65L188.18 543.65" stroke="hsl(300, 0.7%, 35.4%)" stroke-width="1.5"></path><path d="M188.18 543.65L260.23 657.77" stroke="hsl(300, 0.7%, 35.4%)" stroke-width="1.5"></path><path d="M188.18 543.65L377.63 508.64" stroke="hsl(300, 0.7%, 35.4%)" stroke-width="1.5"></path><path d="M260.23 657.77L260.23 657.77" stroke="hsl(300, 0.7%, 35.4%)" stroke-width="1.5"></path><path d="M377.63 508.64L377.63 508.64" stroke="hsl(300, 0.7%, 35.4%)" stroke-width="1.5"></path><path d="M377.63 508.64L540.06 549.74" stroke="hsl(300, 0.7%, 35.4%)" stroke-width="1.5"></path><path d="M377.63 508.64L535.73 412.46" stroke="hsl(300, 0.7%, 35.4%)" stroke-width="1.5"></path><path d="M377.63 508.64L260.23 657.77" stroke="hsl(300, 0.7%, 35.4%)" stroke-width="1.5"></path><path d="M377.63 508.64L560.6 691.88" stroke="hsl(300, 0.7%, 35.4%)" stroke-width="1.5"></path><path d="M535.73 412.46L535.73 412.46" stroke="hsl(300, 0.7%, 35.4%)" stroke-width="1.5"></path><path d="M535.73 412.46L540.06 549.74" stroke="hsl(300, 0.7%, 35.4%)" stroke-width="1.5"></path><path d="M535.73 412.46L697.67 359.98" stroke="hsl(300, 0.7%, 35.4%)" stroke-width="1.5"></path><path d="M535.73 412.46L695.81 514.65" stroke="hsl(300, 0.7%, 35.4%)" stroke-width="1.5"></path><path d="M535.73 412.46L560.6 691.88" stroke="hsl(300, 0.7%, 35.4%)" stroke-width="1.5"></path><path d="M540.06 549.74L540.06 549.74" stroke="hsl(300, 0.7%, 35.4%)" stroke-width="1.5"></path><path d="M540.06 549.74L560.6 691.88" stroke="hsl(300, 0.7%, 35.4%)" stroke-width="1.5"></path><path d="M540.06 549.74L695.81 514.65" stroke="hsl(300, 0.7%, 35.4%)" stroke-width="1.5"></path><path d="M540.06 549.74L680.4 669.84" stroke="hsl(300, 0.7%, 35.4%)" stroke-width="1.5"></path><path d="M560.6 691.88L560.6 691.88" stroke="hsl(300, 0.7%, 35.4%)" stroke-width="1.5"></path><path d="M560.6 691.88L680.4 669.84" stroke="hsl(300, 0.7%, 35.4%)" stroke-width="1.5"></path><path d="M560.6 691.88L695.81 514.65" stroke="hsl(300, 0.7%, 35.4%)" stroke-width="1.5"></path><path d="M697.67 359.98L697.67 359.98" stroke="hsl(300, 0.7%, 35.4%)" stroke-width="1.5"></path><path d="M697.67 359.98L695.81 514.65" stroke="hsl(300, 0.7%, 35.4%)" stroke-width="1.5"></path><path d="M695.81 514.65L695.81 514.65" stroke="hsl(300, 0.7%, 35.4%)" stroke-width="1.5"></path><path d="M695.81 514.65L791.83 562.45" stroke="hsl(300, 0.7%, 35.4%)" stroke-width="1.5"></path><path d="M695.81 514.65L680.4 669.84" stroke="hsl(300, 0.7%, 35.4%)" stroke-width="1.5"></path><path d="M680.4 669.84L680.4 669.84" stroke="hsl(300, 0.7%, 35.4%)" stroke-width="1.5"></path><path d="M680.4 669.84L791.83 562.45" stroke="hsl(300, 0.7%, 35.4%)" stroke-width="1.5"></path><path d="M791.83 562.45L791.83 562.45" stroke="hsl(300, 0.7%, 35.4%)" stroke-width="1.5"></path><path d="M791.83 562.45L837.37 649.69" stroke="hsl(300, 0.7%, 35.4%)" stroke-width="1.5"></path><path d="M837.37 649.69L837.37 649.69" stroke="hsl(300, 0.7%, 35.4%)" stroke-width="1.5"></path><path d="M837.37 649.69L974.87 638.29" stroke="hsl(300, 0.7%, 35.4%)" stroke-width="1.5"></path><path d="M837.37 649.69L680.4 669.84" stroke="hsl(300, 0.7%, 35.4%)" stroke-width="1.5"></path><path d="M837.37 649.69L1002.77 558.49" stroke="hsl(300, 0.7%, 35.4%)" stroke-width="1.5"></path><path d="M837.37 649.69L695.81 514.65" stroke="hsl(300, 0.7%, 35.4%)" stroke-width="1.5"></path><path d="M1002.04 247.37L1002.04 247.37" stroke="hsl(300, 0.7%, 35.4%)" stroke-width="1.5"></path><path d="M1002.04 247.37L1106.31 256.01" stroke="hsl(300, 0.7%, 35.4%)" stroke-width="1.5"></path><path d="M1002.04 247.37L982.34 380.6" stroke="hsl(300, 0.7%, 35.4%)" stroke-width="1.5"></path><path d="M1002.04 247.37L1158.12 94.14" stroke="hsl(300, 0.7%, 35.4%)" stroke-width="1.5"></path><path d="M1002.04 247.37L1238.03 352.86" stroke="hsl(300, 0.7%, 35.4%)" stroke-width="1.5"></path><path d="M1002.04 247.37L1309.6 253.3" stroke="hsl(300, 0.7%, 35.4%)" stroke-width="1.5"></path><path d="M982.34 380.6L982.34 380.6" stroke="hsl(300, 0.7%, 35.4%)" stroke-width="1.5"></path><path d="M982.34 380.6L1106.31 256.01" stroke="hsl(300, 0.7%, 35.4%)" stroke-width="1.5"></path><path d="M982.34 380.6L1002.77 558.49" stroke="hsl(300, 0.7%, 35.4%)" stroke-width="1.5"></path><path d="M1002.77 558.49L1002.77 558.49" stroke="hsl(300, 0.7%, 35.4%)" stroke-width="1.5"></path><path d="M1002.77 558.49L974.87 638.29" stroke="hsl(300, 0.7%, 35.4%)" stroke-width="1.5"></path><path d="M1002.77 558.49L1121.56 660.04" stroke="hsl(300, 0.7%, 35.4%)" stroke-width="1.5"></path><path d="M1002.77 558.49L791.83 562.45" stroke="hsl(300, 0.7%, 35.4%)" stroke-width="1.5"></path><path d="M974.87 638.29L974.87 638.29" stroke="hsl(300, 0.7%, 35.4%)" stroke-width="1.5"></path><path d="M974.87 638.29L1090.89 555.08" stroke="hsl(300, 0.7%, 35.4%)" stroke-width="1.5"></path><path d="M974.87 638.29L1121.56 660.04" stroke="hsl(300, 0.7%, 35.4%)" stroke-width="1.5"></path><path d="M974.87 638.29L791.83 562.45" stroke="hsl(300, 0.7%, 35.4%)" stroke-width="1.5"></path><path d="M974.87 638.29L982.34 380.6" stroke="hsl(300, 0.7%, 35.4%)" stroke-width="1.5"></path><path d="M1158.12 94.14L1158.12 94.14" stroke="hsl(300, 0.7%, 35.4%)" stroke-width="1.5"></path><path d="M1158.12 94.14L1264.26 64.36" stroke="hsl(300, 0.7%, 35.4%)" stroke-width="1.5"></path><path d="M1158.12 94.14L1106.31 256.01" stroke="hsl(300, 0.7%, 35.4%)" stroke-width="1.5"></path><path d="M1158.12 94.14L1309.6 253.3" stroke="hsl(300, 0.7%, 35.4%)" stroke-width="1.5"></path><path d="M1106.31 256.01L1106.31 256.01" stroke="hsl(300, 0.7%, 35.4%)" stroke-width="1.5"></path><path d="M1106.31 256.01L1238.03 352.86" stroke="hsl(300, 0.7%, 35.4%)" stroke-width="1.5"></path><path d="M1106.31 256.01L1309.6 253.3" stroke="hsl(300, 0.7%, 35.4%)" stroke-width="1.5"></path><path d="M1121.56 660.04L1121.56 660.04" stroke="hsl(300, 0.7%, 35.4%)" stroke-width="1.5"></path><path d="M1121.56 660.04L1253.12 665.95" stroke="hsl(300, 0.7%, 35.4%)" stroke-width="1.5"></path><path d="M1264.26 64.36L1264.26 64.36" stroke="hsl(300, 0.7%, 35.4%)" stroke-width="1.5"></path><path d="M1264.26 64.36L1309.6 253.3" stroke="hsl(300, 0.7%, 35.4%)" stroke-width="1.5"></path><path d="M1309.6 253.3L1309.6 253.3" stroke="hsl(300, 0.7%, 35.4%)" stroke-width="1.5"></path><path d="M1309.6 253.3L1238.03 352.86" stroke="hsl(300, 0.7%, 35.4%)" stroke-width="1.5"></path><path d="M1309.6 253.3L1399.48 366.12" stroke="hsl(300, 0.7%, 35.4%)" stroke-width="1.5"></path><path d="M1238.03 352.86L1238.03 352.86" stroke="hsl(300, 0.7%, 35.4%)" stroke-width="1.5"></path><path d="M1238.03 352.86L1399.48 366.12" stroke="hsl(300, 0.7%, 35.4%)" stroke-width="1.5"></path><path d="M1298.57 507.14L1298.57 507.14" stroke="hsl(300, 0.7%, 35.4%)" stroke-width="1.5"></path><path d="M1298.57 507.14L1253.12 665.95" stroke="hsl(300, 0.7%, 35.4%)" stroke-width="1.5"></path><path d="M1298.57 507.14L1238.03 352.86" stroke="hsl(300, 0.7%, 35.4%)" stroke-width="1.5"></path><path d="M1298.57 507.14L1399.48 366.12" stroke="hsl(300, 0.7%, 35.4%)" stroke-width="1.5"></path><path d="M1298.57 507.14L1090.89 555.08" stroke="hsl(300, 0.7%, 35.4%)" stroke-width="1.5"></path><path d="M1298.57 507.14L1446.28 670.44" stroke="hsl(300, 0.7%, 35.4%)" stroke-width="1.5"></path><path d="M1253.12 665.95L1253.12 665.95" stroke="hsl(300, 0.7%, 35.4%)" stroke-width="1.5"></path><path d="M1253.12 665.95L1090.89 555.08" stroke="hsl(300, 0.7%, 35.4%)" stroke-width="1.5"></path><path d="M1253.12 665.95L1398.01 493.94" stroke="hsl(300, 0.7%, 35.4%)" stroke-width="1.5"></path><path d="M1458.75 209.63L1458.75 209.63" stroke="hsl(300, 0.7%, 35.4%)" stroke-width="1.5"></path><path d="M1458.75 209.63L1604.83 229.45" stroke="hsl(300, 0.7%, 35.4%)" stroke-width="1.5"></path><path d="M1458.75 209.63L1309.6 253.3" stroke="hsl(300, 0.7%, 35.4%)" stroke-width="1.5"></path><path d="M1399.48 366.12L1399.48 366.12" stroke="hsl(300, 0.7%, 35.4%)" stroke-width="1.5"></path><path d="M1399.48 366.12L1458.75 209.63" stroke="hsl(300, 0.7%, 35.4%)" stroke-width="1.5"></path><path d="M1591.02 -77.07L1591.02 -77.07" stroke="hsl(300, 0.7%, 35.4%)" stroke-width="1.5"></path><path d="M1591.02 -77.07L1389.58 71.97" stroke="hsl(300, 0.7%, 35.4%)" stroke-width="1.5"></path><path d="M1604.83 229.45L1604.83 229.45" stroke="hsl(300, 0.7%, 35.4%)" stroke-width="1.5"></path><path d="M1598.22 546.28L1598.22 546.28" stroke="hsl(300, 0.7%, 35.4%)" stroke-width="1.5"></path><path d="M1598.22 546.28L1557.03 709.51" stroke="hsl(300, 0.7%, 35.4%)" stroke-width="1.5"></path><path d="M1598.22 546.28L1446.28 670.44" stroke="hsl(300, 0.7%, 35.4%)" stroke-width="1.5"></path><path d="M1598.22 546.28L1398.01 493.94" stroke="hsl(300, 0.7%, 35.4%)" stroke-width="1.5"></path><path d="M1598.22 546.28L1399.48 366.12" stroke="hsl(300, 0.7%, 35.4%)" stroke-width="1.5"></path><path d="M1557.03 709.51L1557.03 709.51" stroke="hsl(300, 0.7%, 35.4%)" stroke-width="1.5"></path><circle r="25" cx="347.02" cy="664.51" fill="url(&quot;#SvgjsRadialGradient1698&quot;)"></circle><circle r="25" cx="860.94" cy="361.79" fill="url(&quot;#SvgjsRadialGradient1698&quot;)"></circle><circle r="25" cx="1090.89" cy="555.08" fill="url(&quot;#SvgjsRadialGradient1698&quot;)"></circle><circle r="25" cx="1298.09" cy="-100.45" fill="url(&quot;#SvgjsRadialGradient1698&quot;)"></circle><circle r="25" cx="1410.12" cy="-81.85" fill="url(&quot;#SvgjsRadialGradient1698&quot;)"></circle><circle r="25" cx="1389.58" cy="71.97" fill="url(&quot;#SvgjsRadialGradient1698&quot;)"></circle><circle r="25" cx="1398.01" cy="493.94" fill="url(&quot;#SvgjsRadialGradient1698&quot;)"></circle><circle r="25" cx="1446.28" cy="670.44" fill="url(&quot;#SvgjsRadialGradient1698&quot;)"></circle><circle r="25" cx="1567.25" cy="96.56" fill="url(&quot;#SvgjsRadialGradient1698&quot;)"></circle><circle r="25" cx="1546.79" cy="394.22" fill="url(&quot;#SvgjsRadialGradient1698&quot;)"></circle><circle r="5" cx="-69.41" cy="527.86" fill="#a3a2a3"></circle><circle r="5" cx="88.88" cy="705.93" fill="#a3a2a3"></circle><circle r="5" cx="188.18" cy="543.65" fill="#a3a2a3"></circle><circle r="5" cx="260.23" cy="657.77" fill="#a3a2a3"></circle><circle r="5" cx="377.63" cy="508.64" fill="#a3a2a3"></circle><circle r="5" cx="535.73" cy="412.46" fill="#a3a2a3"></circle><circle r="5" cx="540.06" cy="549.74" fill="#a3a2a3"></circle><circle r="5" cx="560.6" cy="691.88" fill="#a3a2a3"></circle><circle r="5" cx="697.67" cy="359.98" fill="#a3a2a3"></circle><circle r="5" cx="695.81" cy="514.65" fill="#a3a2a3"></circle><circle r="5" cx="680.4" cy="669.84" fill="#a3a2a3"></circle><circle r="5" cx="791.83" cy="562.45" fill="#a3a2a3"></circle><circle r="5" cx="837.37" cy="649.69" fill="#a3a2a3"></circle><circle r="5" cx="1002.04" cy="247.37" fill="#a3a2a3"></circle><circle r="5" cx="982.34" cy="380.6" fill="#a3a2a3"></circle><circle r="5" cx="1002.77" cy="558.49" fill="#a3a2a3"></circle><circle r="5" cx="974.87" cy="638.29" fill="#a3a2a3"></circle><circle r="5" cx="1158.12" cy="94.14" fill="#a3a2a3"></circle><circle r="5" cx="1106.31" cy="256.01" fill="#a3a2a3"></circle><circle r="5" cx="1121.56" cy="660.04" fill="#a3a2a3"></circle><circle r="5" cx="1264.26" cy="64.36" fill="#a3a2a3"></circle><circle r="5" cx="1309.6" cy="253.3" fill="#a3a2a3"></circle><circle r="5" cx="1238.03" cy="352.86" fill="#a3a2a3"></circle><circle r="5" cx="1298.57" cy="507.14" fill="#a3a2a3"></circle><circle r="5" cx="1253.12" cy="665.95" fill="#a3a2a3"></circle><circle r="5" cx="1458.75" cy="209.63" fill="#a3a2a3"></circle><circle r="5" cx="1399.48" cy="366.12" fill="#a3a2a3"></circle><circle r="5" cx="1591.02" cy="-77.07" fill="#a3a2a3"></circle><circle r="5" cx="1604.83" cy="229.45" fill="#a3a2a3"></circle><circle r="5" cx="1598.22" cy="546.28" fill="#a3a2a3"></circle><circle r="5" cx="1557.03" cy="709.51" fill="#a3a2a3"></circle></g><defs><mask id="SvgjsMask1696"><rect width="1440" height="560" fill="#ffffff"></rect></mask><linearGradient x1="0%" y1="50%" x2="100%" y2="50%" gradientUnits="userSpaceOnUse" id="SvgjsLinearGradient1697"><stop stop-color="rgba(14, 42, 71, 1)" offset="0"></stop><stop stop-color="rgba(255, 255, 255, 0)" offset="0"></stop></linearGradient><radialGradient id="SvgjsRadialGradient1698"><stop stop-color="#ffffff" offset="0.1"></stop><stop stop-color="rgba(70, 69, 70, 1)" offset="0.2"></stop><stop stop-color="rgba(70, 69, 70, 0)" offset="1"></stop></radialGradient></defs></svg>