<svg id="line_fill" viewBox="0 0 64 64" xmlns="http://www.w3.org/2000/svg" data-name="line fill"><path d="m43.63965 46.6416a1 1 0 1 0 -.5 1.93653c4.85644 1.25244 6.58008 2.97607 6.58008 4.07177 0 2.23389-6.74121 5.3501-17.71973 5.3501s-17.71973-3.11621-17.71973-5.3501c0-1.08886 1.72364-2.80859 6.582-4.07226a1 1 0 1 0 -.5039-1.93555c-5.209 1.355-8.07813 3.48877-8.07813 6.00781.00003 4.77393 10.16019 7.3501 19.71976 7.3501s19.71973-2.57617 19.71973-7.3501c0-2.53125-2.87012-4.66504-8.08008-6.0083z"/><path d="m29.4 55.18a3.11138 3.11138 0 0 0 5.21 0c.1-.17 11.01-16.95 12.73-19.07a19.71215 19.71215 0 0 0 -2.2-27.09 19.52118 19.52118 0 0 0 -15.4-4.89c-8.58.95-16.53 9.02-17.36 17.62a19.66553 19.66553 0 0 0 4.18 14.23c2.06 2.59 12.74 19.03 12.84 19.2zm-10.72-31.46a13.32 13.32 0 1 1 13.32 13.32 13.32829 13.32829 0 0 1 -13.32-13.32z"/><path d="m26.49 32.09h14.8a1.00288 1.00288 0 0 0 1-1v-3.68442l.00006-.00031-.00006-.00027v-2.685a2.00588 2.00588 0 0 0 -2-2h-1.77v-4.38a3.00886 3.00886 0 0 0 -3-3h-7.03a3.00241 3.00241 0 0 0 -3 3v4.38h-1.78a2.00588 2.00588 0 0 0 -2 2v2.685l-.00006.0003.00006.00031v3.68439a1.00288 1.00288 0 0 0 1 1zm-2.78-3.6847h1.78v1.6847h-1.78zm14.81 1.6847v-1.6847h1.77v1.6847zm1.77-5.37v1.6853h-1.77v-1.6853zm-12.8-6.38a.99654.99654 0 0 1 1-1h7.03a1.003 1.003 0 0 1 1 1v9.06286l-.00049.00244.00049.00244v2.68226h-1.88v-1.35a2.635 2.635 0 1 0 -5.27 0v1.35h-1.88v-2.68351l.00024-.00122-.00024-.00122zm-2 6.38v1.6853h-1.78v-1.6853z"/><path d="m30.1582 21.79346h.8428v.84277a1 1 0 0 0 2 0v-.84277h.84277a1 1 0 0 0 0-2h-.84277v-.84278a1 1 0 0 0 -2 0v.84278h-.8428a1 1 0 0 0 0 2z"/></svg>