<svg xmlns="http://www.w3.org/2000/svg"  viewBox="0 0 48 48" width="48px" height="48px"><path fill="#E91E63" d="M45.918 35.958c0 2.755-2.238 5.016-4.999 5.016 0 0-11.919.971-11.919-8.962V17.001c0-2.754.418-3.99 2.918-3.99-1.209 0 4.624-.751 10 9.977C46.918 32.965 45.918 35.958 45.918 35.958zM2.082 35.979c0 2.758 2.238 4.993 4.999 4.993 0 0 11.919.998 11.919-8.942V17.006c0-2.757-.418-3.994-2.918-3.994 1.209 0-4.624-.752-10 9.986C1.082 32.984 2.082 35.979 2.082 35.979z"/><path fill="#F48FB1" d="M8.648 36.178c.65-.461 1.343-.841 1.897-1.297.276-.228.517-.471.685-.732.097-.143.142-.244.204-.393.058-.139.114-.332.17-.494.207-.684.327-1.396.432-2.15.106-.756.207-1.558.405-2.396.057-.215.1-.411.176-.643l.203-.609c.184-.49.417-.912.662-1.307 0 0 1.331-1.945 2.998-2.82C23 19.961 21.999 17.025 22 16.95c.006-1.1.899-1.989 2-1.989 1.104 0 2 .896 2 2 0 .255-1 7-7 8.789-.009.003-.016.005-.023.009-1.11.604-2.274 1.39-3.106 2.214-.22.223-.419.449-.562.661l-.27.452c-.077.121-.156.293-.233.442-.304.626-.558 1.331-.831 2.076s-.584 1.524-.997 2.261c-.112.186-.2.354-.337.551-.128.187-.305.405-.466.551-.336.327-.715.563-1.088.754-.751.381-1.496.594-2.193.893-.692.293-1.363.683-1.788 1.348C7.373 37.219 7.999 36.63 8.648 36.178zM22 7H26V10H22z"/><path fill="#F48FB1" d="M22 12H26V15H22z"/><path fill="#F48FB1" d="M39.352,36.178c-0.65-0.461-1.343-0.841-1.897-1.297c-0.276-0.228-0.517-0.471-0.685-0.732c-0.097-0.143-0.142-0.244-0.204-0.393c-0.058-0.139-0.114-0.332-0.17-0.494c-0.207-0.684-0.327-1.396-0.432-2.15c-0.106-0.756-0.207-1.558-0.405-2.396c-0.057-0.215-0.1-0.411-0.176-0.643l-0.203-0.609c-0.184-0.49-0.417-0.912-0.662-1.307c0,0-1.331-1.945-2.998-2.82C26,20.961,26.001,17.025,26,16.95c-0.006-1.1-0.899-1.989-2-1.989c-1.104,0-2,0.896-2,2c0,0.255,1,6,7,8.789c0.008,0.004,0.016,0.005,0.023,0.009c1.11,0.604,2.274,1.39,3.106,2.214c0.22,0.223,0.419,0.449,0.562,0.661l0.27,0.452c0.077,0.121,0.156,0.293,0.233,0.442c0.304,0.626,0.558,1.331,0.831,2.076s0.584,1.524,0.997,2.261c0.112,0.186,0.2,0.354,0.337,0.551c0.128,0.187,0.305,0.405,0.466,0.551c0.336,0.327,0.715,0.563,1.088,0.754c0.751,0.381,1.496,0.594,2.193,0.893c0.692,0.293,1.363,0.683,1.788,1.348C40.627,37.219,40.001,36.63,39.352,36.178z"/><path fill="#F48FB1" d="M32.851 24.461c.234.139.864.027 1.292-.2.451-.233.813-.592.981-1.12.147-.623.257-1.348.201-2.033-.047-.706-.218-1.432-.431-2.146.439.604.855 1.236 1.171 1.959.323.74.49 1.504.577 2.348.061.949-.348 1.971-1.01 2.695-.685.717-1.451 1.302-2.694 1.498L32.851 24.461zM34.959 30.018c-.525.371-1.106.939-1.525 1.492-.213.283-.396.578-.53.879-.139.316-.208.559-.24 1.001-.074.718.014 1.543.212 2.321.207.783.523 1.562 1.02 2.25-.679-.516-1.244-1.201-1.709-1.953-.457-.766-.824-1.58-1.021-2.54-.098-.394-.155-1.001-.089-1.503.057-.518.187-1.008.352-1.473.35-.941.772-1.742 1.402-2.588L34.959 30.018zM34.43 27.535c.628-.125 1.096-.129 1.637-.113.523.021 1.047.098 1.559.235 1.021.269 1.999.845 2.657 1.639.594.745 1.061 1.483 1.503 2.265.432.779.815 1.576 1.109 2.4-.514-.705-1.097-1.346-1.706-1.945-.607-.591-1.272-1.164-1.924-1.617-.605-.393-1.284-.541-1.97-.516-.659.02-1.447.23-1.936.504L34.43 27.535z"/><path fill="#F48FB1" d="M34.898,23.961c0.621,0.094,1.156,0.232,1.715,0.396c0.55,0.166,1.088,0.365,1.607,0.602c1.031,0.473,2.021,1.117,2.674,2.002c-0.888-0.641-1.927-0.912-2.952-1.041c-0.516-0.063-1.034-0.086-1.55-0.078c-0.507,0.009-1.046,0.043-1.502,0.119L34.898,23.961z"/><g><path fill="#F48FB1" d="M15.062,27.461c-1.243-0.196-2.01-0.781-2.694-1.498c-0.662-0.725-1.07-1.746-1.01-2.695c0.087-0.844,0.254-1.607,0.577-2.348c0.315-0.723,0.731-1.355,1.171-1.959c-0.213,0.715-0.384,1.44-0.431,2.146c-0.056,0.686,0.054,1.41,0.201,2.033c0.168,0.528,0.53,0.887,0.981,1.12c0.428,0.228,1.058,0.339,1.292,0.2L15.062,27.461z"/></g><g><path fill="#F48FB1" d="M15.17,27.904c0.63,0.846,1.053,1.646,1.402,2.588c0.165,0.465,0.295,0.955,0.352,1.473c0.066,0.502,0.009,1.109-0.089,1.503c-0.196,0.96-0.563,1.774-1.021,2.54c-0.465,0.752-1.03,1.438-1.709,1.953c0.496-0.688,0.813-1.467,1.02-2.25c0.198-0.778,0.286-1.604,0.212-2.321c-0.032-0.442-0.102-0.685-0.24-1.001c-0.134-0.301-0.317-0.596-0.53-0.879c-0.419-0.553-1-1.121-1.525-1.492L15.17,27.904z"/></g><g><path fill="#F48FB1" d="M12.641,30.387c-0.488-0.273-1.276-0.484-1.936-0.504c-0.686-0.025-1.364,0.123-1.97,0.516c-0.651,0.453-1.316,1.026-1.924,1.617c-0.609,0.6-1.192,1.24-1.706,1.945c0.294-0.824,0.678-1.621,1.109-2.4c0.442-0.781,0.909-1.52,1.503-2.265c0.658-0.794,1.636-1.37,2.657-1.639c0.512-0.138,1.035-0.214,1.559-0.235c0.541-0.016,1.009-0.012,1.637,0.113L12.641,30.387z"/></g><g><path fill="#F48FB1" d="M13.109,25.961c-0.456-0.076-0.995-0.11-1.502-0.119c-0.516-0.008-1.034,0.016-1.55,0.078c-1.025,0.129-2.064,0.4-2.952,1.041c0.652-0.885,1.643-1.529,2.674-2.002c0.52-0.236,1.058-0.436,1.607-0.602c0.559-0.164,1.094-0.303,1.715-0.396L13.109,25.961z"/></g><g><path fill="#EC407A" d="M22 10H26V12H22zM22 5H26V7H22zM22 15H26V17H22z"/></g></svg>