<svg xmlns="http://www.w3.org/2000/svg" xmlns:xlink="http://www.w3.org/1999/xlink" viewBox="0,0,255.99431,255.99431" width="50px" height="50px" fill-rule="nonzero"><g fill="#ffdd57" fill-rule="nonzero" stroke="none" stroke-width="1" stroke-linecap="butt" stroke-linejoin="miter" stroke-miterlimit="10" stroke-dasharray="" stroke-dashoffset="0" font-family="none" font-weight="none" font-size="none" text-anchor="none" style="mix-blend-mode: normal"><g transform="scale(5.12,5.12)"><path d="M33.65625,-0.0625c-1.86328,0 -3.28125,1.98047 -3.28125,3.40625c0,2.19141 0.75,2.85938 0.75,3.1875c-0.41797,0.51172 -1.40625,0.75781 -2.40625,0.90625l-0.03125,2.6875c0.14453,-0.01172 0.25391,-0.03125 0.40625,-0.03125c2.14844,0 4.46094,1.39453 5.125,3.71875c0.48438,-0.6875 0.82813,-1.35937 0.96875,-1.6875c0.76563,0.4375 1.96875,0.54688 2.625,0c1.20703,0.54688 2.98438,-0.10937 3.3125,-0.4375c1.31641,0.4375 3.26563,0.00391 3.59375,-0.875c3.94922,0.10938 5.15625,-2.54297 5.375,-3.3125c-6.90625,0.65625 -9.53125,-7.5625 -16.4375,-7.5625zM16.375,0c-6.87891,0 -9.49609,8.1875 -16.375,7.53125c0.21875,0.76563 1.41406,3.39063 5.34375,3.28125c0.21875,0.76563 2.30078,1.20313 3.5,0.875c0.32813,0.32813 2.08203,0.98438 3.28125,0.4375c0.65625,0.54688 1.85938,0.4375 2.625,0c0.14453,0.33984 0.51953,1.07031 1.03125,1.78125c0.63672,-2.375 2.94922,-3.8125 5.125,-3.8125c0.125,0 0.22656,0.02344 0.34375,0.03125l-0.09375,-2.65625c-0.94922,-0.15234 -1.88281,-0.42187 -2.28125,-0.90625c0,-0.32812 0.78125,-0.97266 0.78125,-3.15625c0,-1.41797 -1.42578,-3.40625 -3.28125,-3.40625zM25,0c-1.65625,0 -3,1.34375 -3,3c0,1.65625 1.34375,3 3,3c1.65625,0 3,-1.34375 3,-3c0,-1.65625 -1.34375,-3 -3,-3zM23.15625,7.625l0.28125,7.34375c0.62891,0.27734 1.17969,0.49609 1.1875,0.5c0.59375,0.23047 1.24219,0.49609 1.90625,0.78125l0.1875,-8.5625c-0.53906,0.19922 -1.10937,0.3125 -1.71875,0.3125c-0.65234,0 -1.27344,-0.14844 -1.84375,-0.375zM20.90625,12.09375c-1.60156,0 -3.3125,1.19531 -3.3125,3.09375c0,5.39844 9.90625,4.82422 9.90625,8.625c0,0.83594 -0.48437,1.57031 -1.03125,2.15625c0.00781,0.00391 0.02344,-0.00391 0.03125,0c0.24219,0.16797 0.48828,0.33203 0.6875,0.46875c0.62891,0.43359 1.29297,0.89844 1.9375,1.40625c0.90625,-1 1.875,-2.50781 1.875,-4.4375c0,-5.5 -10.90625,-6.10156 -10.90625,-8.5c0.80078,0.10156 3.09375,0.08594 3.09375,-1.3125c0,-0.60156 -0.58203,-1.5 -2.28125,-1.5zM29.09375,12.09375c-1.69922,0 -2.28125,0.89844 -2.28125,1.5c0,1.39844 2.29297,1.41406 3.09375,1.3125c0,0.51953 -0.64453,1.43359 -1.625,2.15625c0.88281,0.46484 1.73438,1.01172 2.46875,1.65625c0.93359,-0.6875 1.65625,-1.67578 1.65625,-3.53125c0,-1.89844 -1.71094,-3.09375 -3.3125,-3.09375zM20.46875,21.375c-0.57031,0.67969 -1.0625,1.59766 -1.0625,2.71875c0,5.89844 7.90625,6.39844 7.90625,9.5c0,0.28125 -0.14062,0.54688 -0.3125,0.78125c0,0 1.99219,1.25 2.375,1.90625c0.58203,-0.67187 1.125,-1.60547 1.125,-2.875c0,-4.10156 -7.90625,-6.10156 -7.90625,-9c0,-0.67578 0.32813,-1.28906 0.78125,-1.8125c-0.33594,-0.14062 -0.64453,-0.26953 -0.90625,-0.375c-0.62891,-0.25 -1.32031,-0.53125 -2,-0.84375zM25.15625,23.46875c-0.07422,0.14844 -0.14062,0.30859 -0.25,0.4375c-0.18359,0.21484 -0.28906,0.35547 -0.3125,0.4375c0.05469,0.10547 0.19922,0.23438 0.34375,0.375c0.03516,-0.04297 0.05859,-0.08594 0.09375,-0.125c0.35547,-0.38281 0.46484,-0.65234 0.46875,-0.78125c-0.04297,-0.09766 -0.17969,-0.23047 -0.34375,-0.34375zM21.0625,30.75c-0.56641,0.70703 -1.0625,1.64063 -1.0625,2.65625c0,5.27344 6.73047,4.03125 5.90625,8.125c0.03906,0.08203 0.03906,0.16406 0.09375,0.25c0.71875,0.39453 1.60156,0.90234 2.375,1.53125c0.34766,-0.73828 0.625,-1.55859 0.625,-2.3125c0,-1.72266 -0.78516,-3.25391 -1.40625,-3.71875c0,0 -1.30078,-1.09766 -2.25,-1.65625c-0.94922,-0.55859 -2.03125,-1.13281 -2.03125,-1.9375c0,-0.33594 0.23047,-0.75391 0.53125,-1.15625c-0.20312,-0.12891 -0.41406,-0.23828 -0.59375,-0.34375c-0.66406,-0.40234 -1.4375,-0.87891 -2.1875,-1.4375zM21.28125,39.0625c-0.16016,0.42969 -0.28125,0.9375 -0.28125,1.53125c0,1.58203 1.30859,3.28516 2.90625,4.15625c1.82813,1.12109 2.28125,1.47656 2.375,2c0.04688,0.25 -0.14453,0.64063 -0.53125,1.09375c-0.35937,0.42188 -0.32812,1.05078 0.09375,1.40625c0.1875,0.16016 0.42578,0.25 0.65625,0.25c0.28125,0 0.55078,-0.10937 0.75,-0.34375c0.8125,-0.95703 1.16016,-1.86328 1,-2.75c-0.23828,-1.34375 -2.76562,-2.5625 -3.59375,-3.09375c-0.82812,-0.53125 -1.09375,-1.55469 -0.875,-2.75c-0.30469,-0.25 -0.91797,-0.59766 -1.3125,-0.8125c-0.35937,-0.19531 -0.76172,-0.41797 -1.1875,-0.6875zM21.59375,44.75c-0.37109,0.74219 -0.50781,1.47656 -0.375,2.1875c0.30078,1.62109 1.76953,2.38672 1.9375,2.46875c0.14063,0.06641 0.29297,0.09375 0.4375,0.09375c0.37109,0 0.73438,-0.20703 0.90625,-0.5625c0.23828,-0.5 0.02734,-1.10156 -0.46875,-1.34375c-0.00781,-0.00391 -0.72656,-0.39453 -0.84375,-1.03125c-0.04687,-0.25391 0.01172,-0.51562 0.125,-0.78125c-0.03125,-0.01953 -0.0625,-0.04297 -0.09375,-0.0625c-0.50391,-0.27344 -1.06641,-0.58594 -1.625,-0.96875z"></path></g></g></svg>