<svg id="Layer_1" enable-background="new 0 0 468.009 468.009" height="512" viewBox="0 0 468.009 468.009" width="512" xmlns="http://www.w3.org/2000/svg"><g><path d="m465.993 128.556-5.06 238.22c-.53 25-19.27 46.08-44.62 50.17l-298.98 48.35c-10.874 1.755-22.322.217-32.63-4.79l-53.2-25.88c-18.08-8.8-29.5-26.78-29.5-46.46v-256.17c0-26.8 20.95-49.2 48.36-51.71l291.37-26.71c7.59-.7 15.25.19 22.47 2.62 38.384 12.946 22.996 7.76 65.88 22.2 21.641 7.29 36.393 27.39 35.91 50.16z" fill="#ff8293"/><path d="m319.073 11.726v74.02c-23.442 2.923-14.967 1.868-36.15 4.5l-.48-57.26-103.67 12.2.49 56.11-39.02 3.39v-78.53c0-5.17 4.16-9.44 9.47-9.72l158.82-14.43c5.73-.29 10.54 4.14 10.54 9.72z" fill="#51518e"/><path d="m299.743 88.156-16.82 2.09-.48-57.26 9.95-1.56z" fill="#3e3e7a"/><path d="m465.993 128.556-5.06 238.22c-.53 25-19.27 46.08-44.62 50.17l-298.98 48.35c-5.7.92-11.48.93-17.11.05v-288.43c0-26.47 20.44-48.7 47.48-51.63 306.266-33.129 304.157-32.91 304.26-32.91 9.08 9.64 14.32 22.49 14.03 36.18z" fill="#ff9fb3"/><ellipse cx="276.084" cy="270.363" fill="#fcf4f6" rx="116.926" ry="122.275"/><path d="m363.08 257.549c-1.203-9.105-9.757-15.533-19.121-14.368l-41.952 5.246v-46.319c0-9.18-7.648-16.622-17.082-16.622s-17.082 7.441-17.082 16.622v50.592l-44.172 5.524c-9.358 1.17-15.968 9.5-14.766 18.604 1.199 9.077 9.731 15.541 19.121 14.368l39.817-4.979v46.789c0 9.18 7.648 16.622 17.082 16.622s17.082-7.441 17.082-16.622v-51.062l46.307-5.791c9.357-1.17 15.968-9.5 14.766-18.604z" fill="#ff9fb3"/></g><g><path d="m430.722 76.5-65.88-22.2c-7.527-2.534-15.366-3.448-23.291-2.716l-20.481 1.88v-41.738c0-6.789-5.822-12.079-12.713-11.708l-158.75 14.423c-6.373.33-11.365 5.476-11.365 11.714v44.066l-88.061 8.073c-28.606 2.619-50.178 25.706-50.178 53.702v256.17c0 20.573 11.735 39.064 30.625 48.258l53.2 25.88c10.541 5.13 22.236 6.841 33.824 4.966l298.979-48.35c26.278-4.24 45.75-26.152 46.301-52.103l5.06-238.22c.502-23.476-14.476-44.412-37.27-52.097zm-288.48-50.345c0-4.108 3.326-7.499 7.65-7.725l158.749-14.422c4.624-.242 8.428 3.322 8.428 7.719v72.258l-32.164 4.003-.452-53.289 8.248-1.297c1.091-.171 1.837-1.195 1.665-2.286-.171-1.09-1.193-1.834-2.286-1.665-14.014 2.203 4.63-.153-111.306 13.489v-6.663c0-1.104-.896-2-2-2s-2 .896-2 2c0 13.91-.088-1.054.477 63.184l-35.01 3.048v-76.354zm138.401 31.018-99.684 9.133-.17-19.34 99.667-11.728zm183.351 71.34-5.06 238.22c-.509 24.019-18.568 44.306-42.94 48.239l-298.98 48.35c-10.777 1.744-21.646.149-31.435-4.614l-53.2-25.88c-17.503-8.519-28.375-25.632-28.375-44.662v-256.17c0-25.915 20.009-47.289 46.542-49.718l87.696-8.04v30.452c0 1.102.894 2 2 2 .143 0-1.78.163 39.199-3.405 1.041-.091 1.836-.966 1.827-2.01l-.272-30.956 99.682-9.133.247 29.08c.01 1.19 1.053 2.114 2.247 1.968l36.145-4.499c1.001-.125 1.753-.976 1.753-1.985v-28.27l20.848-1.914c7.369-.681 14.653.169 21.647 2.523l65.88 22.2c21.128 7.125 35.012 26.504 34.549 48.224z"/><path d="m380.296 100.124c-.119-1.098-1.101-1.889-2.204-1.773l-230.608 24.945c-28.084 3.043-49.263 26.095-49.263 53.62v215.723c0 1.104.896 2 2 2s2-.896 2-2v-215.723c0-25.478 19.644-46.82 45.694-49.643l230.607-24.945c1.099-.119 1.893-1.106 1.774-2.204z"/><path d="m276.084 146.088c-65.576 0-118.926 55.75-118.926 124.275s53.35 124.275 118.926 124.275 118.926-55.75 118.926-124.275-53.349-124.275-118.926-124.275zm0 244.55c-63.37 0-114.926-53.955-114.926-120.275s51.556-120.275 114.926-120.275c63.371 0 114.926 53.955 114.926 120.275s-51.555 120.275-114.926 120.275z"/><path d="m343.711 241.197-39.704 4.965v-44.053c0-10.268-8.56-18.622-19.082-18.622s-19.083 8.354-19.083 18.622v48.826l-42.42 5.305c-10.359 1.294-17.861 10.548-16.5 20.85 1.323 10.014 10.748 17.414 21.352 16.09l37.569-4.698v44.524c0 10.268 8.561 18.622 19.083 18.622s19.082-8.354 19.082-18.622v-49.296l44.555-5.572c10.361-1.295 17.861-10.551 16.5-20.85-1.344-10.171-10.922-17.392-21.352-16.091zm17.386 16.613c1.051 7.96-4.717 15.319-13.031 16.358l-46.307 5.791c-1.001.125-1.752.976-1.752 1.984v51.062c0 8.062-6.766 14.622-15.082 14.622s-15.083-6.559-15.083-14.622v-46.79c0-1.102-.894-2-2-2-.193 0 2.213-.292-40.065 4.995-8.405 1.049-15.851-4.78-16.89-12.645-1.049-7.941 4.7-15.316 13.031-16.358l44.172-5.524c1.001-.125 1.752-.976 1.752-1.984v-50.591c0-8.062 6.766-14.622 15.083-14.622s15.082 6.559 15.082 14.622v46.319c0 1.211 1.07 2.139 2.248 1.984l41.951-5.246c8.246-1.03 15.834 4.645 16.891 12.645z"/></g></svg>