<?xml version="1.0" encoding="iso-8859-1"?>
<!-- Generator: Adobe Illustrator 19.0.0, SVG Export Plug-In . SVG Version: 6.00 Build 0)  -->
<svg version="1.1" id="Capa_1" xmlns="http://www.w3.org/2000/svg" xmlns:xlink="http://www.w3.org/1999/xlink" x="0px" y="0px"
	 viewBox="0 0 511.999 511.999" style="enable-background:new 0 0 511.999 511.999;" xml:space="preserve">
<path style="fill:#707487;" d="M359.212,57.498h-73.181v12.03c0,6.839-5.596,12.435-12.435,12.435H124.89
	c-6.839,0-12.435-5.596-12.435-12.435v-12.03H39.274c-15.428,0-27.979,12.552-27.979,27.979V484.02
	c0,15.428,12.552,27.979,27.979,27.979h319.937c15.428,0,27.979-12.552,27.979-27.979V85.477
	C387.191,70.05,374.64,57.498,359.212,57.498z"/>
<path style="fill:#5B5D6E;" d="M31.9,484.021V85.477c0-15.428,12.552-27.979,27.979-27.979H39.274
	c-15.428,0-27.979,12.552-27.979,27.979V484.02c0,15.428,12.552,27.979,27.979,27.979h20.605C44.451,512,31.9,499.448,31.9,484.021z
	"/>
<path style="fill:#E4EAF8;" d="M356.103,390.669V117.035c0-3.233-2.775-5.853-6.198-5.853H48.581c-3.423,0-6.198,2.621-6.198,5.853
	v358.024c0,3.233,2.775,5.853,6.198,5.853h217.278L356.103,390.669z"/>
<path style="fill:#D8DCE5;" d="M62.988,475.059V117.035c0-3.232,2.775-5.853,6.198-5.853H48.582c-3.423,0-6.198,2.621-6.198,5.853
	v358.024c0,3.233,2.775,5.853,6.198,5.853h20.605C65.763,480.912,62.988,478.291,62.988,475.059z"/>
<path style="fill:#00C3FF;" d="M253.718,148.127h-108.95c-9.4,0-17.048-7.648-17.048-17.049V77.842c0-4.267,3.459-7.727,7.727-7.727
	c4.267,0,7.727,3.459,7.727,7.727v53.235c0,0.879,0.715,1.595,1.595,1.595h108.95c0.879,0,1.595-0.716,1.595-1.595V77.842
	c0-4.267,3.459-7.727,7.727-7.727s7.727,3.459,7.727,7.727v53.235C270.767,140.479,263.118,148.127,253.718,148.127z"/>
<path style="fill:#D8DCE5;" d="M223.863,32.725v-20.29C223.863,5.596,218.266,0,211.427,0h-24.368
	c-6.839,0-12.435,5.596-12.435,12.435v20.289L223.863,32.725L223.863,32.725z"/>
<path style="fill:#C3C8D1;" d="M208.044,0h-20.986c-6.839,0-12.435,5.596-12.435,12.435v20.289h20.985V12.435
	C195.609,5.596,201.205,0,208.044,0z"/>
<path style="fill:#E4EAF8;" d="M273.668,32.209H124.818c-7.101,0-12.878,5.777-12.878,12.878V69.6
	c0,7.101,5.777,12.878,12.878,12.878h148.849c7.101,0,12.878-5.777,12.878-12.878V45.087
	C286.546,37.986,280.769,32.209,273.668,32.209z"/>
<g>
	<path style="fill:#D8DCE5;" d="M273.668,61.874H124.818c-7.101,0-12.878-5.777-12.878-12.878V69.6
		c0,7.101,5.777,12.878,12.878,12.878h148.849c7.101,0,12.878-5.777,12.878-12.878V48.996
		C286.546,56.097,280.769,61.874,273.668,61.874z"/>
	<path style="fill:#D8DCE5;" d="M356.103,390.669h-84.044c-3.423,0-6.198,2.621-6.198,5.853v84.389L356.103,390.669z"/>
</g>
<path style="fill:#C3C8D1;" d="M286.465,396.522c0-3.233,2.775-5.853,6.198-5.853h-20.605c-3.423,0-6.198,2.621-6.198,5.853v84.389
	l20.605-20.605V396.522z"/>
<path style="fill:#FF6161;" d="M453.271,81.963c-17.676,0.017-33.074,9.723-41.196,24.087l-0.002-0.003c0,0-2.64,3.272-6.152,3.274
	c-3.51,0.005-6.154-3.258-6.154-3.258h-0.009c-8.153-14.344-23.562-24.023-41.242-24.005c-26.166,0.026-47.361,21.262-47.333,47.428
	c0.072,68.365,75.346,108.199,91.75,116.068c0.011,0.004,2.896,1.106,6.249,0l0,0c16.362-7.889,91.592-47.88,91.522-116.26
	C500.676,103.126,479.444,81.937,453.271,81.963z"/>
<path style="fill:#DD4343;" d="M331.786,129.486c-0.024-22.638,15.842-41.573,37.064-46.289c-3.329-0.738-6.783-1.143-10.336-1.14
	c-26.166,0.026-47.361,21.262-47.333,47.428c0.072,68.365,75.346,108.199,91.75,116.069c0.011,0.004,2.896,1.106,6.249-0.001l0,0
	c1.76-0.849,4.205-2.071,7.16-3.658C391.771,228.761,331.851,190.48,331.786,129.486z"/>
<path style="fill:#FF6161;" d="M178.396,355.62c-0.125,0-0.25-0.003-0.375-0.009c-3.374-0.163-6.251-2.499-7.104-5.767
	l-25.85-99.094l-11.189,36.764c-0.99,3.254-3.991,5.477-7.392,5.477H89.489c-4.267,0-7.727-3.459-7.727-7.727
	s3.459-7.727,7.727-7.727h31.272l17.486-57.455c1.008-3.309,4.096-5.571,7.548-5.475c3.458,0.069,6.448,2.428,7.321,5.774
	l26.525,101.681l14.535-39.612c1.116-3.042,4.013-5.065,7.254-5.065h25.916c3.233,0,6.124,2.012,7.246,5.044l2.929,7.911
	l14.435-56.305c0.853-3.326,3.798-5.691,7.229-5.804c3.45-0.119,6.527,2.051,7.598,5.313l14.391,43.842h28.224
	c4.267,0,7.727,3.459,7.727,7.727s-3.459,7.727-7.727,7.727h-33.82c-3.339,0-6.3-2.145-7.342-5.317l-7.883-24.014l-14.004,54.629
	c-0.84,3.274-3.709,5.623-7.084,5.798c-3.387,0.17-6.473-1.864-7.646-5.034l-9.651-26.063h-15.142l-21.177,57.716
	C184.527,353.608,181.622,355.62,178.396,355.62z"/>
<g>
</g>
<g>
</g>
<g>
</g>
<g>
</g>
<g>
</g>
<g>
</g>
<g>
</g>
<g>
</g>
<g>
</g>
<g>
</g>
<g>
</g>
<g>
</g>
<g>
</g>
<g>
</g>
<g>
</g>
</svg>
