<svg xmlns="http://www.w3.org/2000/svg"  viewBox="0 0 48 48" width="48px" height="48px"><path fill="#f8bbd0" d="M45,18.5c0-1.984-1.293-3.649-3.075-4.248c-0.338-2.233-2.141-3.963-4.405-4.2 C36.552,7.677,34.223,6,31.5,6c-1.43,0-2.747,0.467-3.821,1.25C26.58,5.879,24.894,5,23,5c-1.682,0-3.199,0.694-4.289,1.808 C17.929,6.301,17.001,6,16,6c-2.127,0-3.932,1.334-4.654,3.206C10.915,9.086,10.469,9,10,9c-2.761,0-5,2.239-5,5 c0,0.5,0.096,0.973,0.232,1.429C3.914,16.083,3,17.429,3,19c0,1.202,0.541,2.267,1.38,3C3.541,22.733,3,23.798,3,25 c0,1.525,0.863,2.834,2.118,3.509C5.045,28.829,5,29.158,5,29.5C5,31.985,7.015,34,9.5,34c0.018,0,0.034-0.005,0.052-0.005 c0.436,0.752,1.105,1.352,1.911,1.693L10,43h6l0.78-2.34C17.509,38.474,19,37,22,37c2.335,0,4.28-1.286,4.83-3.017 C26.888,33.985,26.942,34,27,34c1.586,0,2.944-0.93,3.591-2.268C31.031,31.898,31.502,32,32,32c1.586,0,2.944-0.93,3.591-2.268 C36.031,29.898,36.502,30,37,30c1.479,0,2.756-0.812,3.448-2.005c0.018,0,0.034,0.005,0.052,0.005c2.485,0,4.5-2.015,4.5-4.5 c0-0.925-0.281-1.785-0.76-2.5C44.719,20.285,45,19.425,45,18.5z"/><path fill="#f06292" d="M45,18.5c0-1.937-1.267-3.638-3.056-4.247c-0.33-2.194-2.091-3.926-4.299-4.212	C36.753,7.659,34.291,6,31.5,6c-1.324,0-2.589,0.364-3.66,1.04C26.727,5.774,24.94,5,23,5c-1.749,0-3.359,0.619-4.483,1.692	C17.754,6.242,16.887,6,16,6c-2.104,0-3.921,1.308-4.646,3.196C10.472,8.94,9.537,8.938,8.631,9.193	c-1.653,0.468-2.971,1.785-3.439,3.439c-0.264,0.933-0.251,1.896,0.027,2.801C3.896,16.095,3,17.464,3,19	c0,1.062,0.431,2.066,1.159,2.804C3.419,22.692,3,23.819,3,25c0,1.594,0.763,3.069,2.033,4.003C5.011,29.173,5,29.337,5,29.5	c0,2.498,2.066,4.565,4.55,4.5c0.703,1.222,2.006,2,3.45,2h1.016l-1.976,6.718c-0.028,0.095-0.025,0.188-0.024,0.282h2.026	l4.192-14.254C18.537,27.718,19.497,27,20.568,27C21.909,27,23,28.091,23,29.432V30c0,0.048,0.021,0.089,0.027,0.135	c0.14,2.04,1.694,3.709,3.673,3.855C26.801,33.997,26.901,34,27.001,34c0.959,0,1.875-0.339,2.603-0.971	c0.42-0.364,0.753-0.802,0.987-1.289C31.039,31.911,31.515,32,32,32c2.206,0,4-1.794,4-4c0-0.552-0.448-1-1-1s-1,0.448-1,1	c0,1.103-0.897,2-2,2c-0.364,0-0.718-0.104-1.03-0.297c-0.03-0.304-0.092-0.624-0.226-0.942c0-0.533,0.186-1.278,0.963-2.055	c0.391-0.391,0.391-1.023,0-1.414s-1.023-0.391-1.414,0c-0.629,0.629-1.02,1.265-1.25,1.863C28.737,27.057,28.391,27,28,27	c-0.552,0-1,0.448-1,1s0.448,1,1,1c0.394,0,0.639,0.132,0.788,0.319c0.047,0.346,0.125,0.623,0.193,0.82	c-0.038,0.538-0.281,1.028-0.688,1.379c-0.399,0.347-0.917,0.518-1.447,0.476C25.829,31.92,25,30.954,25,29.842v-0.41	C25,26.988,23.012,25,20.568,25c-1.953,0-3.701,1.309-4.252,3.182L14.605,34H13c-0.394,0-0.761-0.128-1.076-0.335	c-0.014-0.038-0.013-0.078-0.031-0.115c-0.154-0.308-3.486-7.26,4.302-13.678c0.074,0.158,0.164,0.318,0.277,0.475	C17.263,21.444,18.787,22,21,22c0.552,0,1-0.448,1-1s-0.448-1-1-1c-1.991,0-2.668-0.506-2.895-0.808	c-0.151-0.201-0.186-0.422-0.186-0.596c2.792-1.855,5.353-2.39,7.591-2.181c-0.578,1.203-0.668,2.841,0.783,4.292	C26.488,20.902,26.744,21,27,21s0.512-0.098,0.707-0.293c0.391-0.391,0.391-1.023,0-1.414c-1.047-1.047-0.468-2.031-0.115-2.455	c1.466,0.452,2.751,1.18,3.813,1.966c0.445,0.328,1.07,0.235,1.399-0.208c0.329-0.444,0.235-1.07-0.208-1.399	c-1.559-1.155-3.987-2.5-6.997-2.765C26.053,14.195,26.801,14,28,14c0.552,0,1-0.448,1-1s-0.448-1-1-1	c-3.702,0-4.663,1.613-4.912,2.475c-2.046,0.251-4.286,1.043-6.661,2.705c-2.507,1.755-4.196,3.6-5.318,5.406	c-0.476-0.671-0.693-1.359-0.655-2.085c0.107-2.029,2.153-3.706,2.174-3.723c0.429-0.345,0.499-0.974,0.154-1.404	c-0.344-0.431-0.975-0.501-1.405-0.156c-0.113,0.09-2.757,2.237-2.918,5.164c-0.083,1.485,0.478,2.869,1.65,4.122	c-1.242,2.94-1.128,5.636-0.767,7.478C8.037,31.9,7,30.824,7,29.5c0-0.205,0.036-0.425,0.114-0.692	c0.133-0.457-0.074-0.944-0.496-1.165C5.62,27.119,5,26.107,5,25c0-0.983,0.486-1.905,1.3-2.468	c0.294-0.204,0.458-0.549,0.428-0.906c-0.03-0.356-0.248-0.67-0.572-0.822C5.443,20.469,5,19.778,5,19	c0-0.982,0.739-1.829,1.719-1.967c0.332-0.047,0.618-0.257,0.762-0.56c0.145-0.302,0.128-0.657-0.044-0.944	c-0.305-0.509-0.607-1.331-0.319-2.353c0.276-0.975,1.084-1.783,2.058-2.059c1.024-0.289,1.844,0.014,2.354,0.318	c0.293,0.176,0.655,0.189,0.96,0.037c0.305-0.152,0.512-0.45,0.548-0.789C13.2,9.154,14.474,8,16,8c0.729,0,1.438,0.277,1.998,0.782	c0.059,0.053,0.133,0.079,0.201,0.116c0.314,1.586-0.54,2.146-0.663,2.216c-0.482,0.252-0.675,0.845-0.431,1.333	C17.281,12.798,17.634,13,18.001,13c0.15,0,0.303-0.034,0.446-0.105c0.924-0.462,2.386-2.063,1.598-4.878	C20.797,7.379,21.861,7,23,7c1.629,0,3.127,0.773,3.728,1.924c0.143,0.275,0.406,0.468,0.711,0.522	c0.307,0.057,0.619-0.036,0.848-0.244C29.141,8.427,30.282,8,31.5,8c2.146,0,4.002,1.357,4.415,3.227	c0.011,0.052,0.039,0.094,0.058,0.142c-0.035,0.259-0.112,0.511-0.287,0.638c-0.348,0.254-1.076,0.139-1.375,0.043	c-0.523-0.173-1.085,0.112-1.26,0.634c-0.175,0.524,0.108,1.09,0.632,1.265c0.105,0.035,0.67,0.211,1.368,0.211	c0.164,0,0.335-0.014,0.51-0.037c0.046,1.303,0.513,2.262,0.544,2.325C36.281,16.798,36.634,17,37.001,17	c0.15,0,0.303-0.034,0.446-0.105c0.494-0.247,0.694-0.848,0.447-1.342c-0.008-0.016-0.755-1.595,0-3.105	c0.044-0.088,0.058-0.181,0.074-0.273c1.165,0.401,2.012,1.488,2.031,2.782c-0.002,0.033-0.004,0.067-0.004,0.094	c0,0.498,0.366,0.919,0.859,0.99C42.077,16.214,43,17.272,43,18.5c0,0.511-0.155,0.998-0.441,1.411	c-1.386-0.226-2.52-0.045-3.342,0.596C38.034,21.432,38,22.842,38,23c0,0.546,0.438,0.983,0.985,0.992c0.005,0,0.01,0,0.015,0	c0.54,0,0.983-0.437,1-0.978c0-0.006,0.023-0.609,0.46-0.939c0.388-0.294,1.064-0.344,1.942-0.173C42.782,22.352,43,22.907,43,23.5	c0,1.378-1.122,2.5-2.5,2.5c-0.552,0-1,0.448-1,1s0.448,1,1,1c2.481,0,4.5-2.019,4.5-4.5c0-0.904-0.265-1.766-0.76-2.5	C44.735,20.266,45,19.404,45,18.5z"/></svg>