<svg id="Capa_1" enable-background="new 0 0 496.997 496.997" height="512" viewBox="0 0 496.997 496.997" width="512" xmlns="http://www.w3.org/2000/svg"><g><g fill="#4c5a80"><path d="m46.707 387.79h-16.707c-4.143 0-7.5 3.358-7.5 7.5v60c0 4.142 3.357 7.5 7.5 7.5s7.5-3.358 7.5-7.5v-18.603c3.361-.017 7.066-.033 9.207-.033 13.654 0 24.764-10.96 24.764-24.432s-11.11-24.432-24.764-24.432zm0 33.865c-2.142 0-5.841.016-9.207.033v-18.898h9.207c5.292 0 9.764 4.319 9.764 9.432s-4.472 9.433-9.764 9.433z"/><path d="m106.746 447.389h-13.246v-51.697c0-4.142-3.357-7.5-7.5-7.5s-7.5 3.358-7.5 7.5v59.197c0 4.142 3.357 7.5 7.5 7.5h20.746c4.143 0 7.5-3.358 7.5-7.5s-3.357-7.5-7.5-7.5z"/><path d="m158.81 393.485c-.025-.069-.053-.138-.081-.206-1.372-3.335-4.587-5.489-8.193-5.489-3.621.004-6.836 2.167-8.201 5.508-.023.056-.045.112-.066.168l-22.53 59.155c-1.475 3.871.469 8.204 4.339 9.678 3.87 1.475 8.204-.468 9.679-4.339l3.771-9.902h25.846l3.729 9.88c1.133 3.003 3.987 4.854 7.018 4.854.88 0 1.775-.156 2.647-.485 3.875-1.462 5.831-5.79 4.368-9.665zm-15.571 39.573 7.27-19.086 7.203 19.086z"/><path d="m215.877 387.79h-33.136c-4.143 0-7.5 3.358-7.5 7.5s3.357 7.5 7.5 7.5h9.001v52.5c0 4.142 3.357 7.5 7.5 7.5s7.5-3.358 7.5-7.5v-52.5h9.135c4.143 0 7.5-3.358 7.5-7.5s-3.357-7.5-7.5-7.5z"/><path d="m238.877 387.79c-4.143 0-7.5 3.358-7.5 7.5v60c0 4.142 3.357 7.5 7.5 7.5s7.5-3.358 7.5-7.5v-60c0-4.142-3.357-7.5-7.5-7.5z"/><path d="m310.871 387.79c-4.143 0-7.5 3.358-7.5 7.5v35.941l-27.763-40.203c-1.865-2.701-5.267-3.874-8.404-2.898-3.133.977-5.268 3.878-5.268 7.16v60c0 4.142 3.357 7.5 7.5 7.5s7.5-3.358 7.5-7.5v-35.941l27.763 40.203c1.427 2.066 3.755 3.239 6.173 3.239.743 0 1.494-.111 2.231-.34 3.133-.977 5.268-3.878 5.268-7.16v-60c0-4.143-3.357-7.501-7.5-7.501z"/><path d="m474.366 453.414-11.188-58.538c-.803-3.938-4.166-6.846-8.18-7.072-3.988-.223-7.68 2.286-8.92 6.109-.028.085-.055.171-.079.258l-10.644 37.338-10.645-37.338c-.024-.086-.051-.172-.079-.258-1.239-3.823-4.934-6.332-8.92-6.109-4.014.226-7.377 3.134-8.197 7.163l-11.17 58.447c-.778 4.068 1.89 7.997 5.958 8.774 4.071.776 7.997-1.89 8.774-5.959l6.313-33.027 9.466 33.207c.025.086.051.173.079.258 1.186 3.655 4.564 6.116 8.435 6.123 3.842-.007 7.221-2.467 8.406-6.123.028-.085.054-.172.079-.258l9.466-33.206 6.313 33.026c.778 4.07 4.71 6.736 8.774 5.959 4.07-.777 6.738-4.705 5.959-8.774z"/><path d="m380.563 387.79c-4.143 0-7.5 3.358-7.5 7.5v41.243c0 2.875-.816 6.585-7.183 9.791-1.958.987-4.085 1.466-6.502 1.466-2.674-.004-4.974-.652-7.057-1.983-4.939-3.155-5.951-5.972-5.951-9.23v-41.287c0-4.142-3.357-7.5-7.5-7.5s-7.5 3.358-7.5 7.5v41.287c0 9.054 4.332 16.413 12.875 21.871 4.498 2.874 9.574 4.335 15.087 4.343 4.794 0 9.253-1.033 13.295-3.069 12.758-6.424 15.436-16.155 15.436-23.188v-41.244c0-4.142-3.357-7.5-7.5-7.5z"/></g><path d="m495.397 343.582-4.15-8.29-30-15v-45l-6.71-13.42c-5.08-10.16-15.47-16.58-26.83-16.58h-33.24l54.27 120h33.24c11.15 0 18.4-11.73 13.42-21.71z" fill="#4cd0ed"/><path d="m462.157 343.582-40.85-81.71c-5.08-10.16-15.47-16.58-26.84-16.58l-260.257-.002v90l54.27 30 260.257.002c11.16 0 18.41-11.73 13.42-21.71z" fill="#6ae6eb"/><path d="m458.015 335.29h33.236l-30-60h-33.236l-45 30z" fill="#64b7de"/><path d="m137.751 275.29v30h199.084c10.278 0 19.674 5.807 24.271 15s13.992 15 24.271 15h72.639l-30-60z" fill="#4cd0ed"/><path d="m201.897 343.582-40.854-81.708c-5.082-10.163-15.47-16.584-26.833-16.584h-64.92c-11.363 0-21.751 6.42-26.833 16.584l-40.854 81.708c-4.987 9.974 2.266 21.708 13.416 21.708h173.461c11.151 0 18.404-11.734 13.417-21.708z" fill="#a9f8f7"/><path d="m330.07 92.057-37.403-5.435-50.577 38.747 15.056 70.577 33.454 17.588c11.004 5.785 23.866-3.559 21.764-15.813l-8.04-46.879 34.06-33.2c8.902-8.678 3.989-23.797-8.314-25.585z" fill="#6ae6eb"/><path d="m292.667 86.622-9.666-1.405-21.05-42.652c-5.502-11.149-21.4-11.149-26.902 0l-21.05 42.652-47.069 6.84c-12.303 1.788-17.216 16.907-8.313 25.585l34.06 33.2-8.04 46.879c-2.102 12.253 10.76 21.598 21.764 15.813l42.1-22.133 8.646 4.545c11.004 5.785 23.866-3.559 21.764-15.813l-6.82-39.765 28.891-28.161c8.901-8.678 3.989-23.797-8.315-25.585z" fill="#a9f8f7"/></g></svg>