<svg id="svg11425" height="512" viewBox="0 0 16.933333 16.933334" width="512" xmlns="http://www.w3.org/2000/svg" xmlns:svg="http://www.w3.org/2000/svg"><g id="layer1" transform="translate(0 -280.067)"><path id="path4550" d="m8.3472921 280.62423s-3.1421915 1.56734-7.0605515 2.08979c-.1316461.0182-.2293859.13118-.2284095.26407v.79272c-.00778.36047.5369507.36047.5291666 0v-.56534c3.6801186-.5239 6.7090374-1.96644 6.8791664-2.05052.17013.0841 3.1280759 1.52219 6.8786509 2.05052v5.3268c0 3.21204-1.710058 5.03173-3.445269 6.09214-1.70393 1.04129-3.3724429 1.30115-3.4333819 1.31051-.0609-.009-1.729451-.26922-3.4333813-1.31051-1.7352116-1.06041-3.4457851-2.8801-3.4457851-6.09214v-3.70313c.00778-.36048-.5369507-.36048-.5291666 0v3.70313c0 3.40254 1.8628359 5.42086 3.6995152 6.54327 1.8366718 1.12241 3.6695438 1.39268 3.6695438 1.39268.02604.004.05251.004.07855 0 0 0 1.8328709-.27027 3.6695419-1.39268 1.83668-1.12241 3.699516-3.14073 3.699516-6.54327v-5.55418c.0011-.13289-.09676-.24589-.22841-.26407-3.91836-.52245-7.0605509-2.08979-7.0605509-2.08979-.07513-.0495-.194953-.0248-.238745 0zm.119372 3.14658c-2.627119 0-4.7614653 2.13434-4.7614653 4.76146s2.1343463 4.76405 4.7614653 4.76405c1.372939 0 2.6134749-.58248 3.4824749-1.5136.241157-.25769-.145383-.61943-.38654-.36173-.772999.82825-1.8724539 1.34565-3.0959349 1.34565-2.341139 0-4.2322986-1.89323-4.2322986-4.23437s1.8911596-4.2323 4.2322986-4.2323c2.3411389 0 4.2322989 1.89116 4.2322989 4.2323 0 .72126-.178842 1.39896-.496094 1.99265-.166399.31143.300758.56103.467157.24959.357028-.6681.558104-1.43288.558104-2.24224 0-2.62712-2.134346-4.76146-4.7614659-4.76146zm-1.058849 2.38073v1.32447h-1.321885c-.146119-.00053-.26503.11743-.265615.26355v1.58801c.000529.14612.119496.26411.265615.26355h1.321885v1.32447c.000529.14632.119814.26439.266134.26355h1.585431c.146119.00053.265033-.11743.265618-.26355v-1.32447h1.3223999c.146119.00053.265033-.11743.265616-.26355v-1.58801c-.00053-.14612-.119497-.26411-.265616-.26355h-1.3223999v-1.32447c-.00053-.14612-.119497-.26411-.265618-.26355h-1.599126c-.149244.0133-.252547.12735-.252439.26355zm.529683.26562h1.058333v1.3224c.000529.14531.118237.26296.263549.26355h1.3244669v1.05885h-1.3244669c-.146119.00053-.264105.11949-.263549.26561v1.3224h-1.058333v-1.3224c.000529-.14612-.11743-.26503-.263549-.26561h-1.324467v-1.05885h1.324467c.145312-.00059.262967-.11824.263549-.26355z" font-variant-ligatures="normal" font-variant-position="normal" font-variant-caps="normal" font-variant-numeric="normal" font-variant-alternates="normal" font-feature-settings="normal" text-indent="0" text-align="start" text-decoration-line="none" text-decoration-style="solid" text-decoration-color="rgb(0,0,0)" text-transform="none" text-orientation="mixed" white-space="normal" shape-padding="0" isolation="auto" mix-blend-mode="normal" solid-color="rgb(0,0,0)" solid-opacity="1" vector-effect="none"/></g></svg>