<svg id="Capa_1" enable-background="new 0 0 497 497" height="512" viewBox="0 0 497 497" width="512" xmlns="http://www.w3.org/2000/svg"><g><path d="m386.34 240.149c-2.432 0-4.816-1.184-6.255-3.366l-13.149-19.946h-19.62c-4.133 0-7.484-3.35-7.484-7.484s3.351-7.484 7.484-7.484h23.65c2.516 0 4.864 1.264 6.249 3.365l15.367 23.311c2.275 3.451 1.322 8.093-2.129 10.368-1.269.835-2.699 1.236-4.113 1.236z" fill="#6cbff8"/><path d="m463.121 216.836h-14.579c-2.995 0-5.701-1.785-6.88-4.537l-13.791-32.201c-1.627-3.8.134-8.199 3.934-9.827 3.798-1.627 8.199.134 9.826 3.933l11.848 27.664h9.643c4.133 0 7.484 3.35 7.484 7.484s-3.352 7.484-7.485 7.484z" fill="#6cbff8"/><path d="m401.33 238.464c-.907 0-1.829-.166-2.724-.516-3.849-1.506-5.75-5.846-4.244-9.696l20.976-53.627c1.506-3.849 5.846-5.752 9.696-4.243 3.849 1.506 5.75 5.846 4.244 9.696l-20.976 53.627c-1.155 2.953-3.981 4.759-6.972 4.759z" fill="#6cbff8"/><path d="m359.115 302.141-23.862-37.963c-2.288-3.641-2.328-8.26-.103-11.94l8.92-14.75c12.749-21.083 16.709-46.472 10.335-70.271-19.254-71.892-84.855-124.83-162.821-124.83h-56.281c-74.635 0-135.157 60.431-135.303 135.032-.061 31.168 10.962 61.346 30.387 85.721l24.699 30.993c6.358 7.979 8.809 18.386 6.679 28.363l-26.653 124.865c-.797 3.734 2.05 7.253 5.868 7.253h139.196c2.892 0 5.372-2.063 5.9-4.906l10.966-59.164 83.666 16.1c12.81 3.072 25.719-4.684 29.022-17.436l11.183-43.185c.891-3.442 3.193-6.349 6.339-8.006l25.888-13.634c8.088-4.261 10.839-14.503 5.975-22.242z" fill="#faa68e"/><path d="m197.004 390.751-23.829-4.585c-2.327-.448-4.573 1.085-5.005 3.415l-12.054 65.033h24.061c2.892 0 5.372-2.063 5.9-4.906z" fill="#e09380"/><path d="m359.115 302.141-23.862-37.963c-2.288-3.641-2.328-8.26-.103-11.94l8.92-14.75c12.923-21.371 16.682-47.124 10.081-71.21-18.154-66.243-75.716-116.184-145.912-123.07 57.163 15.701 102.18 60.742 117.834 117.924 6.59 24.073 2.822 49.809-10.093 71.166l-8.92 14.751c-2.225 3.68-2.185 8.299.103 11.94l23.862 37.963c4.865 7.739 2.113 17.982-5.975 22.241l-25.888 13.634c-3.146 1.657-5.448 4.564-6.339 8.006l-11.183 43.185c-2.923 11.285-13.37 18.651-24.613 18.069l23.681 4.557c12.81 3.072 25.719-4.684 29.022-17.436l11.183-43.185c.891-3.442 3.193-6.349 6.339-8.006l25.888-13.634c8.088-4.261 10.839-14.503 5.975-22.242z" fill="#e09380"/><path d="m132.645 212.146v43.557c0 10.478-4.319 20.492-11.939 27.684l-4.78 4.511c-8.111 7.655-12.708 18.314-12.708 29.466v36.974c0 2.488 2.017 4.505 4.505 4.505h20.416c2.488 0 4.505-2.017 4.505-4.505v-19.694c0-15.56 9.45-29.603 23.979-35.631l23.253-9.648c14.529-6.028 23.979-20.071 23.979-35.631v-68.34z" fill="#f9dbeb"/><path d="m189.768 208.009h72.701c33.895 0 48.949-35.334 24.738-54.703 3.766-34.433-28.263-56.491-46.412-53.801-11.693-21.52-48.876-30.303-66.092-20.081-21.52-17.216-74.246-3.766-87.158 22.596-22.596 5.38-48.42 34.432-39.274 59.181-27.438 23.134 5.38 98.994 53.801 88.233 29.053 11.838 86.62 11.3 87.696-41.425z" fill="#de5791"/><g fill="#c4237c"><path d="m123.551 254.907c29.417 3.795 65.369-5.334 66.217-46.898h-16.55c-3.778 0-6.945 2.833-7.398 6.584-3.149 26.072-21.707 37.416-42.269 40.314z"/><path d="m293.066 150.98c3.766-34.433-28.263-56.491-46.412-53.801-10.604-19.517-46.989-26.643-66.514-20.176 20.727 3.244 43.925 13.967 48.009 28.159 18.149-2.69 50.178 19.368 46.412 53.801 24.21 19.368 1.631 49.046-35.586 49.046h23.495c27.412 0 46.332-24.632 39.761-44.3-.806-2.411-5.073-1.287-6.676-3.494-1.491-2.051-.259-7.451-2.489-9.235z"/><path d="m157.127 200.429c4.133 0 7.484-3.35 7.484-7.484s-3.351-7.484-7.484-7.484h-16.467c-21.153 0-38.362 17.21-38.362 38.362v25.702c4.436 1.789 9.524 3.289 14.968 4.363v-30.064c0-12.899 10.494-23.394 23.393-23.394h16.468z"/><path d="m293.126 151.031-4.683 5.97c-5.433 6.926-13.598 10.898-22.401 10.898h-6.363c-4.133 0-7.484 3.35-7.484 7.484s3.351 7.484 7.484 7.484h6.363c13.431 0 25.889-6.06 34.178-16.627l1.999-2.548c-1.549-4.624-4.504-8.973-9.093-12.661z"/></g><path d="m300.22 166.24 1.999-2.548c-1.693-5.054-4.922-9.309-9.093-12.661l-4.683 5.97c-2.381 3.035-5.287 5.503-8.541 7.318 3.584 4.624 5.016 9.578 4.639 14.432 6.038-2.84 11.413-7.073 15.679-12.511z" fill="#a71e6a"/><path d="m209.638 131.99c4.133 0 7.484-3.35 7.484-7.484s-3.351-7.484-7.484-7.484h-18.627c-9.022 0-16.362-7.34-16.362-16.363v-21.276c-4.049-3.222-9.195-5.364-14.968-6.543v27.819c0 17.276 14.055 31.331 31.331 31.331z" fill="#c4237c"/><path d="m153.924 157.028c4.133 0 7.484-3.35 7.484-7.484s-3.351-7.484-7.484-7.484h-9.919c-6.613 0-11.993-5.379-11.993-11.992v-2.962c0-19.509-14.197-35.754-32.799-38.974-5.063 4.044-9.135 8.717-11.668 13.891-.317.076-.637.172-.956.257.581.144 1.184.229 1.81.229h4.049c13.562 0 24.596 11.034 24.596 24.596v2.962c0 14.866 12.095 26.961 26.961 26.961z" fill="#c4237c"/><path d="m89.955 170.679c-16.086 6.437-33.088.021-41.707-9.551.009.024.015.049.024.074-3.955 3.334-6.651 7.768-8.236 12.876 8.957 8.324 22.076 14.21 36.308 14.21 6.265 0 12.744-1.139 19.17-3.71 3.838-1.536 5.704-5.891 4.169-9.728-1.534-3.839-5.888-5.707-9.728-4.171z" fill="#c4237c"/><ellipse cx="479.537" cy="209.353" fill="#eec06b" rx="16.415" ry="16.415" transform="matrix(.099 -.995 .995 .099 223.95 665.927)"/><ellipse cx="395.454" cy="246.303" fill="#ffa95f" rx="17.463" ry="17.463" transform="matrix(.099 -.995 .995 .099 111.383 615.562)"/><ellipse cx="428.284" cy="162.059" fill="#ffa95f" rx="17.463" ry="17.463" transform="matrix(.099 -.995 .995 .099 224.811 572.29)"/><ellipse cx="479.537" cy="209.353" fill="#ffa95f" rx="17.463" ry="17.463" transform="matrix(.099 -.995 .995 .099 223.95 665.927)"/></g></svg>