<svg id="Capa_1" enable-background="new 0 0 497 497" height="512" viewBox="0 0 497 497" width="512" xmlns="http://www.w3.org/2000/svg"><g><path d="m431.125 437h-30l15 30v15c0 8.284 6.716 15 15 15s15-6.716 15-15v-30c0-8.284-6.716-15-15-15z" fill="#b1e3f0"/><path d="m401.125 437h-350.25c-8.284 0-15 6.716-15 15v30c0 8.284 6.716 15 15 15s15-6.716 15-15v-15h101.75v15c0 8.284 6.716 15 15 15s15-6.716 15-15v-15h101.75v15c0 8.284 6.716 15 15 15s15-6.716 15-15v-15h86.75v-15c0-8.284-6.716-15-15-15z" fill="#d4f6ff"/><path d="m335.25 407-45-30v-257l75 30v249.5c0 4.142-3.358 7.5-7.5 7.5z" fill="#9e60f0"/><path d="m335.25 407v-317l-71.75 60v249.5c0 4.142 3.358 7.5 7.5 7.5z" fill="#ac7af0"/><path d="m467 407-30-60 60 30v22.5c0 4.142-3.358 7.5-7.5 7.5z" fill="#9e60f0"/><path d="m467 407v-60l-71.75 30v22.5c0 4.142 3.358 7.5 7.5 7.5z" fill="#ac7af0"/><path d="m71.75 300-30 60 60-30v-22.5c0-4.142-3.358-7.5-7.5-7.5z" fill="#14bdff"/><path d="m71.75 300v60l-71.75-30v-22.5c0-4.142 3.358-7.5 7.5-7.5z" fill="#4cd8ff"/><path d="m203.5 407-45-107 75 30v69.5c0 4.142-3.358 7.5-7.5 7.5z" fill="#9e60f0"/><path d="m203.5 407v-137l-71.75 60v69.5c0 4.142 3.358 7.5 7.5 7.5z" fill="#ac7af0"/><path d="m71.75 330-15 15v47l15 15h22.5c4.142 0 7.5-3.358 7.5-7.5v-69.5z" fill="#9e60f0"/><path d="m0 330v69.5c0 4.142 3.358 7.5 7.5 7.5h64.25v-77z" fill="#ac7af0"/><path d="m203.5 90-15 15v210l15 15h30v-232.5c0-4.142-3.358-7.5-7.5-7.5z" fill="#14bdff"/><path d="m131.75 97.5v232.5h71.75v-240h-64.25c-4.142 0-7.5 3.358-7.5 7.5z" fill="#4cd8ff"/><path d="m467 150-15 15v197l15 15h30v-219.5c0-4.142-3.358-7.5-7.5-7.5z" fill="#14bdff"/><path d="m395.25 157.5v219.5h71.75v-227h-64.25c-4.142 0-7.5 3.358-7.5 7.5z" fill="#4cd8ff"/><path d="m335.25 0-15 15v120l15 15h30v-142.5c0-4.142-3.358-7.5-7.5-7.5z" fill="#14bdff"/><path d="m263.5 7.5v142.5h71.75v-150h-64.25c-4.142 0-7.5 3.358-7.5 7.5z" fill="#4cd8ff"/></g></svg>