<svg xmlns="http://www.w3.org/2000/svg" version="1.1" xmlns:xlink="http://www.w3.org/1999/xlink" xmlns:svgjs="http://svgjs.com/svgjs" width="512" height="512" x="0" y="0" viewBox="0 0 512 512" style="enable-background:new 0 0 512 512" xml:space="preserve" class=""><g><path fill-rule="evenodd" d="M437.022 74.978A256.024 256.024 0 0 0 38.057 390.363l5.684 9.2L0 512l112.44-43.74 9.2 5.683A256.02 256.02 0 0 0 437.022 74.978zm-39.171 103.831a6.278 6.278 0 0 1 2.779 5.207v143.968a6.267 6.267 0 0 1-8.646 5.8L320 304.347l-.333 22.607c-.178 12.088-9.313 23.18-21.86 23.18H133.249c-12.7 0-21.879-11.346-21.879-23.573V185.433c0-12.227 9.178-23.567 21.879-23.567h164.557c12.547 0 21.682 11.1 21.86 23.185l.334 22.611 71.987-29.453a6.264 6.264 0 0 1 5.864.6z" fill="#3273dc" data-original="#000000" class="" opacity="1"></path></g></svg>