<svg xmlns="http://www.w3.org/2000/svg"  viewBox="0 0 48 48" width="48px" height="48px"><path fill="#BBDEFB" d="M5,39V15h38v24c0,2.209-1.791,4-4,4H9C6.791,43,5,41.209,5,39"/><path fill="#2196F3" d="M43,11v6H5v-6c0-2.209,1.791-4,4-4h30C41.209,7,43,8.791,43,11"/><path fill="#1565C0" d="M36 11c0 1.657-1.343 3-3 3s-3-1.343-3-3 1.343-3 3-3S36 9.343 36 11M18 11c0 1.657-1.343 3-3 3s-3-1.343-3-3 1.343-3 3-3S18 9.343 18 11"/><path fill="#B0BEC5" d="M33 4c-1.104 0-2 .896-2 2v5c0 1.104.896 2 2 2s2-.896 2-2V6C35 4.896 34.104 4 33 4M15 4c-1.104 0-2 .896-2 2v5c0 1.104.896 2 2 2s2-.896 2-2V6C17 4.896 16.104 4 15 4"/><g><path fill="#1565C0" d="M20 37h-3.25V26.652l-3.192.934v-2.461L19.702 23H20V37zM32.846 31.529h1.424v2.5h-1.424V37h-3.24v-2.971h-5.413L24 32.048l5.605-9.019V23h3.24V31.529L32.846 31.529zM27.087 31.529h2.519v-4.309l-.201.326L27.087 31.529z"/></g></svg>