<svg clip-rule="evenodd" fill-rule="evenodd" height="513" image-rendering="optimizeQuality" shape-rendering="geometricPrecision" text-rendering="geometricPrecision" viewBox="0 0 2448838 2448838" width="513" xmlns="http://www.w3.org/2000/svg"><g id="Name"><circle cx="1224418" cy="1224419" fill="#ecf0f1" r="1224419"/><circle cx="1224417" cy="1224417" fill="#fad24d" r="1224419"/><g id="_411722648"><path d="m1093107 1141334-33275 167185-111477 38343 65969 1040726 424153-2407 19811-1057978-71195-22399-36285-170556-257701 7087z" fill="#f0ba7d"/><g><path d="m923058 1637228c185581 89975 376485 108861 577446 5091l-6850 776750c-86643 19439-176730 29768-269236 29768-106448 0-209711-13604-308171-39132z" fill="#21d0c3"/><g><path d="m1422900 1317545 323286 88170c83829 25883 158734 75451 161130 164530l17731 658361c-73676 51502-153282 95066-237585 129547l-20629-364099-56615 392694c-121287 40271-250992 62090-385799 62090-3518 0-7013-107-10526-135l-135-333784z" fill="#eef3f7"/><path d="m1419821 1315256 42600 17184 145316 218157-170337-2740 105575 56497-329217 510564 206064-799663z" fill="#fff"/></g><g><path d="m1044695 1314213-324791 82454c-84280 24406-160036 72644-164011 161666l-29948 671768c73033 50820 151856 93859 235285 127996l27642-371783 50583 400705c117882 39042 243719 60579 374438 61684l-135-333784-169062-800706z" fill="#fff"/><path d="m1047813 1311975-50797 19456-141240 212536 170365 271-106567 54620 294183 516061-165945-802944z" fill="#eef3f7"/></g></g><path d="m873248 740392c-5429 54789 5542 176448 72007 171819 0 0 95669 278820 279852 310392 159010-29058 255739-281583 263079-305606 21903 7481 83204-94491 36212-177914-13474-23927-51632-4555-51632-4555l-2937-69661c-251274 24401-407961-218631-407961-218631-95787 104199-118835 163667-129079 293259 0 0-17985-11169-37954-11597-6010-130-13728 5108-21587 12493z" fill="#fed298"/><path d="m1059827 1308519 32547-163458c-94282-92833-143450-232849-143450-232849-64243 7166-90042-169891-46817-176076 19766-2830 32998 3360 32998 3360 9731-136831 36088-178438 126762-293259 0 0 158401 266502 409478 242095l3591 57461c11873-11670 33573-22636 51648 7098 29413 48378-9066 158328-44686 165037-5046 16953-44691 142029-128667 227736l33861 159140c94214 30506 185063 54073 276244 78321-46321-282372-72869-587933-128177-848763-53080-250293-343244-320298-510102-209136 0 0-143878 57974-170145 250242-26261 192262-16209 210788-16209 210788l-46360 592020c85966-21819 185502-41568 267483-69757z" fill="#666"/></g><g id="_411738560"><path d="m1666962 2003616c-47781-8248-79826-53672-71578-101453 8248-47775 53678-79838 101453-71590 47786 8248 79832 53689 71584 101470-8248 47775-53678 79826-101459 71573z" fill="#fefefe"/><path d="m1667831 1998576c-44996-7769-75186-50538-67412-95539 7769-45001 50549-75192 95550-67423 45001 7775 75181 50560 67412 95556-7775 45007-50543 75175-95550 67406z" fill="#0f7986"/><path d="m1674117 1962189c-24886-4296-41596-27981-37294-52872 4296-24902 27975-41590 52861-37294 24902 4302 41602 27958 37300 52866-4296 24891-27964 41596-52866 37300z" fill="#ebecec"/><path d="m1679495 1876922 20105 3467 10808-62608-20099-3467-10813 62608z" fill="#fefefe"/><g><path d="m1006183 2020986 37672-7476c16006-3180 29266-12606 37717-25246 8440-12640 12110-28494 8925-44500l-44297-223208c-16722-84224-82617-127184-157911-136701-28855-3653-59102-2323-88402 3484-29323 5796-57754 16119-83012 30501-65783 37464-110119 102248-93369 186613l44297 223214c3180 16006 12623 29255 25252 37712l28-11c12646 8457 28477 12110 44477 8936l37650-7476-3078-15521-37661 7476c-11738 2328-23369-355-32626-6540l6-6c-9269-6213-16198-15927-18532-27648l-44297-223214c-15194-76551 25427-135551 85622-169812 23786-13559 50617-23284 78310-28781 27688-5486 56209-6726 83384-3293 68912 8710 129180 47741 144340 124146l44314 223214c2323 11727-372 23346-6562 32626-6207 9263-15927 16186-27659 18509l-37667 7476 3078 15527z" fill="#21d0c3" fill-rule="nonzero"/><path d="m1058141 1753633-6771-34098c-17229-86840-85025-131103-162438-140896-29407-3710-60212-2385-90065 3541-29858 5908-58831 16434-84574 31082-67660 38535-113225 105236-95968 192223l6777 34098 25855-5142-6771-34092c-14670-73935 24716-131013 83040-164231 23313-13266 49591-22794 76748-28178 27146-5390 55104-6602 81726-3236 66775 8434 125155 46163 139808 119962l6765 34098 25866-5130z" fill="#4d4d4d" fill-rule="nonzero"/><g fill="#076673"><path d="m745342 2076164 20150-4003c5057 5677 12883 8598 20866 7013 11992-2379 19783-14027 17398-26024-2374-11975-14021-19772-26013-17387-7989 1584-14112 7278-16609 14450l-20144 3997z"/><path d="m1022194 2021212-20133 4003c-2503 7166-8620 12860-16603 14444-11986 2374-23628-5412-26013-17410-2374-11975 5412-23628 17393-26007 7983-1584 15820 1347 20860 7013l20144-4003 4352 21959z"/></g><path d="m811124 1580162-7684-38726-15279 3039-15256 3022 7769 39104c5818-1703 11715-3140 17663-4319 4240-840 8502-1545 12787-2120z" fill="#666"/><g fill="#0f7986"><path d="m778160 2054616c3631-722 5982-4257 5260-7865-716-3631-4234-5993-7865-5271s-5982 4245-5266 7870c722 3620 4240 5987 7870 5266z"/><path d="m977385 2015004c3620-716 5970-4245 5249-7859-722-3636-4234-5993-7865-5277-3631 722-5982 4245-5260 7882 710 3614 4240 5970 7876 5254z"/></g></g><path d="m1671670 1961766c-23549-4065-39335-26453-35270-50002 4065-23538 26442-39330 49991-35265 23544 4065 39341 26447 35276 49985-4071 23549-26458 39347-49997 35282z" fill="#fefefe"/><g fill="#4d4d4d" fill-rule="nonzero"><path d="m997529 1332333c-677 6-238481 1979-198312 210027l-22112 4228c-45283-234546 219414-236705 220164-236717l259 22461z"/><path d="m1472050 1310943c38794 1043 113800 11620 171521 81839 56491 68714 96092 194912 66476 426290l-22292-2819c28663-223947-8372-344518-61537-409196-51942-63189-119664-72711-154697-73653l530-22461z"/></g></g></g></svg>