<svg id="Layer_1" height="512" viewBox="0 0 512 512" width="512" xmlns="http://www.w3.org/2000/svg" data-name="Layer 1"><path d="m429.78 414.21c18.57 37.64-8.68 81.79-50.49 81.79h-246.58c-41.81 0-69.06-44.15-50.49-81.79l92.21-186.93a326.561 326.561 0 0 0 33.67-144.47v-32.35h95.8v32.35a326.561 326.561 0 0 0 33.67 144.47z" fill="#a5e2fb"/><path d="m324.72 21.04a17.178 17.178 0 0 0 -12.18-5.04h-113.08a17.23 17.23 0 1 0 0 34.46h113.08a17.232 17.232 0 0 0 12.18-29.42z" fill="#86bdce"/><g fill="#49bdff"><path d="m407.1 419.84a36.128 36.128 0 0 1 -1.75 35.73 35.607 35.607 0 0 1 -30.79 17.18h-237.12a35.607 35.607 0 0 1 -30.79-17.18 36.129 36.129 0 0 1 -1.75-35.73l61.41-124.49a110.236 110.236 0 0 0 10.23-5.94c9.16-5.79 17.08-10.8 32.66-9.4s22.49 7.72 30.49 15.04c8.33 7.64 17.77 16.3 37.25 18.04s30.31-5.11 39.86-11.15c8.07-5.1 15.17-9.58 27.39-9.63z"/><circle cx="274.12" cy="229.73" r="16"/><circle cx="241.33" cy="160.33" r="10"/></g><path d="m176.54 289.41a110.236 110.236 0 0 1 -10.23 5.94l-61.41 124.49a36.129 36.129 0 0 0 1.75 35.73 35.607 35.607 0 0 0 30.79 17.18h30a35.607 35.607 0 0 1 -30.79-17.18 36.129 36.129 0 0 1 -1.75-35.73l73.274-139.9c-14.893-1.086-22.681 3.811-31.634 9.47z" fill="#3ea2ce"/><g id="_Path_3" data-name=" Path 3"><path d="m174.465 337.705a6 6 0 0 1 -5.43-8.545l2.531-5.407a6 6 0 1 1 10.868 5.088l-2.532 5.407a6 6 0 0 1 -5.437 3.457z" fill="#f4f8fc"/></g><g id="_Path_3-2" data-name=" Path 3-2"><path d="m133.133 425.944a6 6 0 0 1 -5.43-8.547l29.767-63.548a6 6 0 1 1 10.867 5.09l-29.767 63.548a6 6 0 0 1 -5.437 3.457z" fill="#f4f8fc"/></g></svg>