<svg id="Layer_1" height="512" viewBox="0 0 512 512" width="512" xmlns="http://www.w3.org/2000/svg" data-name="Layer 1"><path d="m106.45 244.18v190.08c0 24.33 22.42 36.5 44.83 36.5s44.84-12.17 44.84-36.5v-190.08c-44.17-12.48-70.38 23.72-89.67 0z" fill="#6addc7"/><path d="m326.45 120.6h64.41v22.42h-64.41z" fill="#d4e1f4"/><path d="m326.45 120.6h40v22.42h-40z" fill="#c0cddd"/><path d="m467.51 415.31c12.82 25.39-4.88 55.27-32.82 56.71h-152.08c-27.94-1.44-45.64-31.32-32.82-56.71l24.26-48.04.46.23c36.74 31.39 85.38-15.21 169.51 1.29z" fill="#ff5a81"/><path d="m399.723 280.45 44.6 88.34c-84.13-16.5-132.77 30.1-169.51-1.29l-.46-.23 43.84-86.82a79.876 79.876 0 0 0 8.56-35.95v-101.48h64.41v101.48a79.745 79.745 0 0 0 8.56 35.95z" fill="#cae6ee"/><path d="m312.05 367.27 46.143-86.82a79.876 79.876 0 0 0 8.56-35.95v-101.48h-40v101.48a79.876 79.876 0 0 1 -8.56 35.95l-43.839 86.82.459.23c9.554 8.163 19.916 11.045 31.5 11.141z" fill="#afd2db"/><path d="m289.79 415.31 18.525-36.685c-12.517.28-23.62-2.423-33.805-11.125l-.46-.23-24.26 48.04c-12.82 25.39 4.88 55.27 32.82 56.71h40c-27.94-1.44-45.64-31.32-32.82-56.71z" fill="#e24b77"/><path d="m106.45 128.96h89.67v22.42h-89.67z" fill="#d4e1f4"/><path d="m106.45 128.96h40v22.42h-40z" fill="#c0cddd"/><path d="m196.12 151.38v92.8c-44.17-12.48-70.38 23.72-89.67 0v-92.8z" fill="#cae6ee"/><path d="m146.45 244.18v-92.8h-40v92.8c10.621 13.06 23.341 7.955 40 2.813z" fill="#afd2db"/><path d="m146.45 434.26v-187.267c-16.659 5.142-29.379 10.247-40-2.813v190.08c0 24.33 22.42 36.5 44.83 36.5a58.341 58.341 0 0 0 20-3.448c-14.063-5.179-24.83-16.194-24.83-33.052z" fill="#5cccb6"/><path d="m381.26 16a17.815 17.815 0 1 1 -17.82 17.81 17.812 17.812 0 0 1 17.82-17.81z" fill="#ff5a81"/><path d="m339.52 64.57a17.815 17.815 0 1 1 -17.81 17.81 17.814 17.814 0 0 1 17.81-17.81z" fill="#ff5a81"/><path d="m326.45 472.07h-41.73c-.71 0-1.41-.02-2.11-.05h152.08c-.7.03-1.4.05-2.11.05z" fill="#d4e1f4"/><path d="m172.71 64.57a17.815 17.815 0 1 1 -17.81 17.81 17.805 17.805 0 0 1 17.81-17.81z" fill="#6addc7"/><path d="m130.98 16a17.815 17.815 0 1 1 -17.82 17.81 17.812 17.812 0 0 1 17.82-17.81z" fill="#6addc7"/><path d="m490.67 475.53a11.993 11.993 0 0 1 -8.48 20.47h-464.37v-394.4a12.51 12.51 0 1 1 25.02 0v215.67h171.58a12.98 12.98 0 0 1 0 25.96h-171.19v128.79h438.96a11.956 11.956 0 0 1 8.48 3.51z" fill="#daaa79"/></svg>