<svg height="512" viewBox="0 0 64 64" width="512" xmlns="http://www.w3.org/2000/svg"><g id="Laptop_Doctor" data-name="Laptop Doctor"><path d="m62 19v39h-60v-39a3 3 0 0 1 3-3h54a3 3 0 0 1 3 3z" fill="#50d9d7"/><path d="m1 58h62a1 1 0 0 1 1 1v2a3 3 0 0 1 -3 3h-58a3 3 0 0 1 -3-3v-2a1 1 0 0 1 1-1z" fill="#00aaa8"/><path d="m60 19v4h-40l-4-5h43a1 1 0 0 1 1 1z" fill="#93e6e5"/><path d="m60 23v33h-56v-37a1 1 0 0 1 1-1h14.08a4 4 0 0 1 3.12 1.5c1.55 1.94 1.64 2.06 1.75 2.17a4 4 0 0 0 3 1.33z" fill="#fff"/><path d="m39 60h-14a2 2 0 0 1 -2-2h18a2 2 0 0 1 -2 2z" fill="#f3f3f3"/><path d="m12 9a1 1 0 0 1 -1-1v-3a4 4 0 0 1 4-4 1 1 0 0 1 0 2 2 2 0 0 0 -2 2v3a1 1 0 0 1 -1 1z" fill="#00bebd"/><path d="m17 4h-1a1 1 0 0 1 -1-1v-2a1 1 0 0 1 1-1h1a2 2 0 0 1 0 4z" fill="#50d9d7"/><path d="m32 9a1 1 0 0 1 -1-1v-3a2 2 0 0 0 -2-2 1 1 0 0 1 -1-1c0-2.09 5-.81 5 3v3a1 1 0 0 1 -1 1z" fill="#00bebd"/><path d="m36 16a14.71 14.71 0 0 1 -.14 2h-8.21a5.8 5.8 0 0 0 .35-2z" fill="#00bebd"/><path d="m16.35 18h-8.21a14.71 14.71 0 0 1 -.14-2h8a5.8 5.8 0 0 0 .35 2z" fill="#00bebd"/><path d="m35.86 18a13.85 13.85 0 0 1 -1.74 5h-7.2a4 4 0 0 1 -3-1.33 6 6 0 0 0 3.73-3.67z" fill="#50d9d7"/><path d="m34.12 23a14.1 14.1 0 0 1 -8.12 6.42 3 3 0 0 1 -3 2.58h-2a3 3 0 0 1 -3-2.58 14.06 14.06 0 0 1 -9.86-11.42h8.21a6 6 0 0 0 7.65 3.67 4 4 0 0 0 3 1.33z" fill="#f3f3f3"/><path d="m27 4h1a1 1 0 0 0 1-1v-2a1 1 0 0 0 -1-1h-1a2 2 0 0 0 0 4z" fill="#50d9d7"/><path d="m34.5 43a13.51 13.51 0 0 1 -13.5-14 1 1 0 0 1 2 0v.5a11.5 11.5 0 0 0 23 0v-17.5a1 1 0 0 1 2 0v17.5a13.52 13.52 0 0 1 -13.5 13.5z" fill="#00bebd"/><path d="m30 9v7a8 8 0 0 1 -16 0v-7a1 1 0 0 0 -1-1h-2a1 1 0 0 0 -1 1v7a12 12 0 0 0 24 0v-7a1 1 0 0 0 -1-1h-2a1 1 0 0 0 -1 1z" fill="#93e6e5"/><path d="m20 26h4a0 0 0 0 1 0 0v3a1 1 0 0 1 -1 1h-2a1 1 0 0 1 -1-1v-3a0 0 0 0 1 0 0z" fill="#93e6e5"/><g fill="#d9d9d9"><path d="m7 43h16v2h-16z"/><path d="m49 39h8v2h-8z"/><path d="m7 47h16v2h-16z"/><path d="m7 51h16v2h-16z"/><path d="m57 48h-3v-3h-2v3h-3v2h3v3h2v-3h3z"/></g><circle cx="47" cy="7" fill="#ffac00" r="7"/><circle cx="47" cy="7" fill="#ea9706" r="4"/></g></svg>