<svg id="Image" viewBox="0 0 64 64" xmlns="http://www.w3.org/2000/svg"><g fill="none" stroke="#464747" stroke-linecap="round" stroke-linejoin="round" stroke-width="2"><path d="m6 7h-1a3 3 0 0 0 -3 3v6h38v-6a3 3 0 0 0 -3-3h-25"/><path d="m6 7v-2a3 3 0 0 1 3-3h22a3 3 0 0 1 3 3v2"/><path d=""/><path d="m37 59a3 3 0 0 1 -3 3h-26a3 3 0 0 1 -3-3v-43"/><path d="m37 16v13"/><path d="m21 16v-4"/><path d="m26 16v-4"/><path d="m16 16v-4"/><path d="m31 16v-4"/><path d="m11 16v-4"/><path d="m36 16v-4"/><path d="m6 16v-4"/><path d="m9 26h20v25h-20"/><path d="m12 31h4a2 2 0 0 1 2 2v1a2 2 0 0 1 -2 2h-4a0 0 0 0 1 0 0v-5a0 0 0 0 1 0 0z"/><path d="m12 36v5"/><path d="m15 36 9 10"/><path d="m24 39-6 7"/><path d="m61 37a14.522 14.522 0 0 0 -13-8 14 14 0 0 0 -14 14"/><path d="m61 32v5h-5"/><path d="m35 49a14.522 14.522 0 0 0 13 8 14 14 0 0 0 14-14"/><path d="m35 54v-5h5"/><path d="m53.829 43.171a4 4 0 0 1 -5.658 5.658l-6-6a4 4 0 0 1 5.658-5.658z"/><path d="m50.83 40.17-5.66 5.66"/></g></svg>