<svg id="Capa_1" enable-background="new 0 0 512 512" height="512" viewBox="0 0 512 512" width="512" xmlns="http://www.w3.org/2000/svg"><g><path d="m301.035 154.61c-8.753-10.857-19.701-19.871-32.169-26.366-3.012-1.569-4.861-4.724-4.861-8.12v-35.799l-153.18-14.655v50.454c0 3.418-1.886 6.567-4.916 8.149-32.393 16.9-54.508 50.801-54.508 89.866l69.507 59.59-69.507 166.499v41.069c0 14.748 11.955 26.703 26.703 26.703h218.622c2.828 0 5.553-.44 8.111-1.255-7.878-2.577-3.802-356.135-3.802-356.135z" fill="#d3effb"/><path d="m223.148 77.344v6.859c0 15.081 4.114 22.689 11.018 26.924 18.909 11.599 33.717 29.23 41.748 50.214l14.058 2.221 11.064-8.953c-8.753-10.857-19.701-19.871-32.169-26.366-3.012-1.569-4.861-4.724-4.861-8.12v-35.798z" fill="#b1e4f9"/><path d="m301.85 484.153-28.543-46.524c-15.259 31.806-47.763 53.768-85.396 53.768h-135.81c2.759 11.808 13.354 20.603 26.003 20.603h218.622c2.828 0 5.553-.44 8.111-1.255-7.878-2.577-.682-17.988-2.987-26.592z" fill="#b1e4f9"/><path d="m275.539 84.325h-176.248c-4.985 0-9.026-4.041-9.026-9.026v-66.273c0-4.985 4.041-9.026 9.026-9.026h176.248c4.985 0 9.026 4.041 9.026 9.026v66.272c0 4.986-4.041 9.027-9.026 9.027z" fill="#5c90b9"/><path d="m275.539 0h-32.181v23.726c0 22.089-17.907 39.995-39.996 39.995h-113.097v11.577c0 4.985 4.041 9.026 9.026 9.026h176.248c4.985 0 9.026-4.041 9.026-9.026v-66.272c.001-4.985-4.041-9.026-9.026-9.026z" fill="#4a80aa"/><path d="m51.401 277.004v167.224h102.705c10.5 0 19.013-8.512 19.013-19.012v-148.212l-67.925-24.899z" fill="#f1f1f4"/><path d="m459.728 447.221c3.628 13.539-4.407 27.454-17.945 31.082l-122.508 32.826c-13.539 3.628-27.454-4.407-31.082-17.945l-77.215-288.17c-3.628-13.539 4.407-27.454 17.945-31.082l122.508-32.826c13.539-3.628 27.454 4.407 31.082 17.945z" fill="#c6c1c8"/><path d="m459.728 447.221-77.215-288.17c-3.628-13.538-17.544-21.573-31.082-17.945l-8.782 2.353 59.87 223.438c12.465 46.521-15.142 94.339-61.664 106.805l-54.005 14.471 1.343 5.012c3.628 13.539 17.544 21.573 31.082 17.945l122.508-32.826c13.538-3.629 21.573-17.544 17.945-31.083z" fill="#afaab4"/><path d="m278.468 215.098c0 10.554-8.556 19.11-19.11 19.11s-19.11-8.556-19.11-19.11 8.556-19.11 19.11-19.11 19.11 8.556 19.11 19.11zm-2.328 43.521c-10.554 0-19.11 8.556-19.11 19.11s8.556 19.11 19.11 19.11 19.11-8.556 19.11-19.11-8.556-19.11-19.11-19.11zm16.782 62.631c-10.554 0-19.11 8.556-19.11 19.11s8.556 19.11 19.11 19.11 19.11-8.556 19.11-19.11-8.556-19.11-19.11-19.11zm16.782 62.631c-10.554 0-19.11 8.556-19.11 19.11s8.556 19.11 19.11 19.11 19.11-8.556 19.11-19.11-8.556-19.11-19.11-19.11zm16.782 62.631c-10.554 0-19.11 8.556-19.11 19.11s8.556 19.11 19.11 19.11 19.11-8.556 19.11-19.11-8.556-19.11-19.11-19.11zm17.734-273.263c-10.554 0-19.11 8.556-19.11 19.11s8.556 19.11 19.11 19.11 19.11-8.556 19.11-19.11c.001-10.554-8.555-19.11-19.11-19.11zm16.782 62.631c-10.554 0-19.11 8.556-19.11 19.11s8.556 19.11 19.11 19.11 19.11-8.556 19.11-19.11-8.555-19.11-19.11-19.11zm16.783 62.631c-10.554 0-19.11 8.556-19.11 19.11s8.556 19.11 19.11 19.11 19.11-8.556 19.11-19.11-8.556-19.11-19.11-19.11zm16.782 62.631c-10.554 0-19.11 8.556-19.11 19.11s8.556 19.11 19.11 19.11 19.11-8.556 19.11-19.11-8.556-19.11-19.11-19.11zm16.782 62.631c-10.554 0-19.11 8.556-19.11 19.11s8.556 19.11 19.11 19.11 19.11-8.556 19.11-19.11-8.556-19.11-19.11-19.11z" fill="#e28086"/><g fill="#dd636e"><path d="m413.677 380.253c0-8.183-5.143-15.164-12.373-17.888l1.215 4.533c2.623 9.788 3.471 19.633 2.743 29.195 5.077-3.437 8.415-9.249 8.415-15.84z"/><path d="m384.522 299.733 8.04 30.006c2.707-3.298 4.332-7.518 4.332-12.117.001-8.183-5.142-15.165-12.372-17.889z"/><path d="m367.74 237.102 8.04 30.006c2.707-3.298 4.332-7.518 4.332-12.117.001-8.184-5.142-15.165-12.372-17.889z"/><ellipse cx="411.349" cy="442.884" rx="19.11" ry="19.11" transform="matrix(.099 -.995 .995 .099 -69.913 808.59)"/><path d="m350.958 174.471 8.04 30.006c2.707-3.298 4.332-7.518 4.332-12.117.001-8.184-5.142-15.165-12.372-17.889z"/><path d="m344.233 472.724c-1.114.346-2.24.673-3.378.977l-26.114 6.997c3.24 2.528 7.317 4.034 11.745 4.034 8.045.001 14.928-4.97 17.747-12.008z"/></g><path d="m115.933 66.383c-4.267 0-7.726-3.459-7.726-7.726v-32.989c0-4.268 3.459-7.726 7.726-7.726s7.726 3.459 7.726 7.726v32.989c0 4.268-3.459 7.726-7.726 7.726zm36.319-7.726v-32.989c0-4.268-3.459-7.726-7.726-7.726s-7.726 3.459-7.726 7.726v32.989c0 4.268 3.459 7.726 7.726 7.726s7.726-3.458 7.726-7.726zm28.593 0v-32.989c0-4.268-3.459-7.726-7.726-7.726s-7.726 3.459-7.726 7.726v32.989c0 4.268 3.459 7.726 7.726 7.726s7.726-3.458 7.726-7.726zm28.593 0v-32.989c0-4.268-3.459-7.726-7.726-7.726s-7.726 3.459-7.726 7.726v32.989c0 4.268 3.459 7.726 7.726 7.726s7.726-3.458 7.726-7.726zm28.593 0v-32.989c0-4.268-3.459-7.726-7.726-7.726s-7.726 3.459-7.726 7.726v32.989c0 4.268 3.459 7.726 7.726 7.726s7.726-3.458 7.726-7.726zm28.593 0v-32.989c0-4.268-3.459-7.726-7.726-7.726s-7.726 3.459-7.726 7.726v32.989c0 4.268 3.459 7.726 7.726 7.726 4.266 0 7.726-3.458 7.726-7.726z" fill="#4a80aa"/><path d="m178.954 63.721h-11.671c1.417 1.631 3.505 2.662 5.835 2.662s4.419-1.031 5.836-2.662z" fill="#407093"/><path d="m258.897 17.942c-4.267 0-7.726 3.459-7.726 7.726v32.989c0 4.268 3.459 7.726 7.726 7.726s7.726-3.459 7.726-7.726v-32.989c.001-4.268-3.459-7.726-7.726-7.726z" fill="#407093"/><path d="m121.768 63.721h-11.671c1.417 1.631 3.505 2.662 5.835 2.662s4.419-1.031 5.836-2.662z" fill="#407093"/><path d="m150.361 63.721h-11.671c1.417 1.631 3.505 2.662 5.835 2.662s4.419-1.031 5.836-2.662z" fill="#407093"/><path d="m238.031 58.657v-14.974c-3.662 6.348-9.018 11.596-15.451 15.127.081 4.197 3.508 7.573 7.724 7.573 4.267 0 7.727-3.458 7.727-7.726z" fill="#407093"/><path d="m207.745 63.483c-1.439.157-2.901.238-4.383.238h-7.486c1.417 1.631 3.505 2.662 5.835 2.662 2.442 0 4.618-1.132 6.034-2.9z" fill="#407093"/><g><path d="m222.133 124.568h-69.435c-4.267 0-7.726-3.459-7.726-7.726 0-4.268 3.459-7.726 7.726-7.726h69.435c4.267 0 7.726 3.459 7.726 7.726 0 4.268-3.459 7.726-7.726 7.726z" fill="#b1e4f9"/></g><g><path d="m126.907 320.118h-11.999c-4.267 0-7.726-3.459-7.726-7.726s3.459-7.726 7.726-7.726h11.999c4.267 0 7.726 3.459 7.726 7.726s-3.458 7.726-7.726 7.726z" fill="#665e66"/></g><g><path d="m126.907 352.268h-11.999c-4.267 0-7.726-3.459-7.726-7.726 0-4.268 3.459-7.726 7.726-7.726h11.999c4.267 0 7.726 3.459 7.726 7.726.001 4.267-3.458 7.726-7.726 7.726z" fill="#665e66"/></g><g><path d="m126.907 384.418h-11.999c-4.267 0-7.726-3.459-7.726-7.726 0-4.268 3.459-7.726 7.726-7.726h11.999c4.267 0 7.726 3.459 7.726 7.726.001 4.267-3.458 7.726-7.726 7.726z" fill="#665e66"/></g><g><path d="m126.907 416.567h-11.999c-4.267 0-7.726-3.459-7.726-7.726s3.459-7.726 7.726-7.726h11.999c4.267 0 7.726 3.459 7.726 7.726s-3.458 7.726-7.726 7.726z" fill="#665e66"/></g><path d="m89.154 336.815h-37.753v15.453h37.753c4.267 0 7.726-3.459 7.726-7.726 0-4.268-3.459-7.727-7.726-7.727z" fill="#665e66"/><path d="m96.88 376.691c0-4.268-3.459-7.726-7.726-7.726h-37.753v15.453h37.753c4.267 0 7.726-3.459 7.726-7.727z" fill="#665e66"/><path d="m89.154 304.665h-37.753v15.453h37.753c4.267 0 7.726-3.459 7.726-7.726s-3.459-7.727-7.726-7.727z" fill="#665e66"/><path d="m96.88 408.841c0-4.268-3.459-7.726-7.726-7.726h-37.753v15.453h37.753c4.267-.001 7.726-3.459 7.726-7.727z" fill="#665e66"/><g><path d="m369.262 463.288c-3.411 0-6.533-2.277-7.458-5.728l-67.828-253.137c-1.104-4.122 1.342-8.359 5.464-9.463 4.121-1.11 8.358 1.341 9.463 5.463l67.828 253.137c1.104 4.122-1.342 8.359-5.464 9.463-.67.179-1.343.265-2.005.265z" fill="#afaab4"/></g><path d="m369.262 463.288c.662 0 1.335-.086 2.005-.266 3.942-1.055 6.35-4.976 5.588-8.921-3.387 3.074-7.034 5.897-10.919 8.43 1.023.49 2.158.757 3.326.757z" fill="#a298a5"/><path d="m173.119 237.152c0-10.5-8.512-19.013-19.013-19.013h-102.705v58.864h121.718z" fill="#5c90b9"/></g></svg>