<?xml version="1.0" encoding="UTF-8" standalone="no"?>
<!-- Created with Inkscape (http://www.inkscape.org/) -->

<svg
   version="1.1"
   id="svg1518"
   xml:space="preserve"
   width="682.66669"
   height="682.66669"
   viewBox="0 0 682.66669 682.66669"
   xmlns="http://www.w3.org/2000/svg"
   xmlns:svg="http://www.w3.org/2000/svg"><defs
     id="defs1522"><clipPath
       clipPathUnits="userSpaceOnUse"
       id="clipPath1532"><path
         d="M 0,512 H 512 V 0 H 0 Z"
         id="path1530" /></clipPath></defs><g
     id="g1524"
     transform="matrix(1.3333333,0,0,-1.3333333,0,682.66667)"><g
       id="g1526"><g
         id="g1528"
         clip-path="url(#clipPath1532)"><g
           id="g1534"
           transform="translate(192.0713,446.5684)"><path
             d="m 0,0 v 33.861 c 0,13.294 10.777,24.071 24.071,24.071 h 79.715 c 13.294,0 24.071,-10.777 24.071,-24.071 V 0"
             style="fill:none;stroke:#000000;stroke-width:15;stroke-linecap:round;stroke-linejoin:round;stroke-miterlimit:10;stroke-dasharray:none;stroke-opacity:1"
             id="path1536" /></g><g
           id="g1538"
           transform="translate(326.459,93.4043)"><path
             d="M 0,0 18.656,221.13"
             style="fill:none;stroke:#000000;stroke-width:15;stroke-linecap:round;stroke-linejoin:round;stroke-miterlimit:10;stroke-dasharray:none;stroke-opacity:1"
             id="path1540" /></g><g
           id="g1542"
           transform="translate(166.8848,314.5347)"><path
             d="M 0,0 18.656,-221.13"
             style="fill:none;stroke:#000000;stroke-width:15;stroke-linecap:round;stroke-linejoin:round;stroke-miterlimit:10;stroke-dasharray:none;stroke-opacity:1"
             id="path1544" /></g><g
           id="g1546"
           transform="translate(256,314.5347)"><path
             d="M 0,0 V -221.13"
             style="fill:none;stroke:#000000;stroke-width:15;stroke-linecap:round;stroke-linejoin:round;stroke-miterlimit:10;stroke-dasharray:none;stroke-opacity:1"
             id="path1548" /></g><g
           id="g1550"
           transform="translate(111.958,392.3804)"><path
             d="m 0,0 h -45.326 c -14.963,0 -27.094,12.13 -27.094,27.094 0,14.964 12.131,27.094 27.094,27.094 h 378.735 c 14.964,0 27.095,-12.13 27.095,-27.094 C 360.504,12.13 348.373,0 333.409,0 H 35.083"
             style="fill:none;stroke:#000000;stroke-width:15;stroke-linecap:round;stroke-linejoin:round;stroke-miterlimit:10;stroke-dasharray:none;stroke-opacity:1"
             id="path1552" /></g><g
           id="g1554"
           transform="translate(408.6113,134.0449)"><path
             d="M 0,0 21.796,258.335"
             style="fill:none;stroke:#000000;stroke-width:15;stroke-linecap:round;stroke-linejoin:round;stroke-miterlimit:10;stroke-dasharray:none;stroke-opacity:1"
             id="path1556" /></g><g
           id="g1558"
           transform="translate(81.5928,392.3804)"><path
             d="m 0,0 28.638,-339.434 c 2.168,-25.694 23.656,-45.446 49.442,-45.446 h 192.654 c 25.787,0 47.275,19.752 49.443,45.446 l 3.889,46.108"
             style="fill:none;stroke:#000000;stroke-width:15;stroke-linecap:round;stroke-linejoin:round;stroke-miterlimit:10;stroke-dasharray:none;stroke-opacity:1"
             id="path1560" /></g></g></g></g></svg>
